<?xml version="1.0" encoding="utf-8"?>
<!-- Generator: Adobe Illustrator 23.0.3, SVG Export Plug-In . SVG Version: 6.00 Build 0)  -->
<svg version="1.1" id="Layer_1" xmlns="http://www.w3.org/2000/svg" xmlns:xlink="http://www.w3.org/1999/xlink" x="0px" y="0px"
	 viewBox="0 0 264.71 264.22" style="enable-background:new 0 0 264.71 264.22;" xml:space="preserve">
<style type="text/css">
	.st0{fill:#A4E74E;}
</style>
<g>
	<g>
		<path class="st0" d="M264.71,213.05c-0.68,1.07-1.18,2.33-2.07,3.18c-1.68,1.62-3.81,1.95-5.99,1.15
			c-2.09-0.77-3.4-2.32-3.73-4.55c-0.18-1.18-0.16-2.4-0.16-3.6c-0.01-60.58-0.01-121.17-0.01-181.75c0-1.01,0-2.02,0-3.03
			c-0.17-0.09-0.35-0.19-0.52-0.28c-63.03,75.85-126.05,151.69-189.5,228.04c1.54,0,2.53,0,3.51,0c63.51,0,127.01,0.02,190.52-0.04
			c3.75,0,6.5,1.11,7.95,4.7c0,0.86,0,1.72,0,2.58c-1.37,3.48-3.93,4.76-7.64,4.75c-68.58-0.05-137.17-0.05-205.75-0.02
			c-2.87,0-5.33-0.61-6.69-3.37c-1.43-2.88-0.31-5.26,1.59-7.53c11.72-14.06,23.41-28.15,35.1-42.22
			C138.44,142.33,195.56,73.6,252.67,4.86c1.55-1.87,3.07-3.71,5.81-3.8c3.11-0.11,4.74,1.89,6.23,4.16
			C264.71,74.51,264.71,143.78,264.71,213.05z"/>
		<path class="st0" d="M59.66,165.99c23.27-29.23,46.42-58.31,69.7-87.56c-8.51-6.78-16.82-13.4-25.28-20.13
			c-0.61,0.7-1.17,1.31-1.69,1.96c-17.55,22.05-35.11,44.09-52.64,66.16c-1.93,2.43-4.11,4.29-7.44,3.35
			c-4.42-1.25-5.61-6.16-2.46-10.19c5.25-6.69,10.58-13.32,15.88-19.98C69.64,82.12,83.55,64.64,97.5,47.19
			c0.95-1.18,2.12-2.27,3.4-3.08c18.37-11.76,36.77-23.47,55.17-35.18c0.94-0.6,1.91-1.22,2.96-1.53c4.51-1.3,8.68,2.73,7.27,7.28
			c-1.92,6.22-4.21,12.34-6.38,18.48c-5.27,14.88-10.54,29.75-15.9,44.6c-0.63,1.74-1.57,3.45-2.71,4.9
			C111.54,120.13,81.74,157.58,51.92,195c-9.17,11.51-22.03,14.78-34.9,8.97C1.45,196.95-4.31,177.03,5.5,163.01
			c4.77-6.82,10.18-13.19,15.46-19.64c2.69-3.29,5.88-3.39,9.5-0.53c8.97,7.08,17.89,14.22,26.83,21.33
			C58.01,164.76,58.76,165.31,59.66,165.99z M26.78,155.24c-3.56,4.47-6.93,8.7-10.28,12.94c-0.48,0.6-0.9,1.26-1.31,1.91
			c-4.26,6.69-2.89,15.33,3.29,20.72c5.8,5.06,15.06,5.56,20.52,0.27c4.82-4.67,8.79-10.22,13.28-15.54
			C43.59,168.63,35.28,162.01,26.78,155.24z M132.87,37.94c0.91,0.76,1.64,1.32,2.32,1.94c2.98,2.67,3.43,6.11,1.18,8.88
			c-2.06,2.53-5.65,2.71-8.77,0.38c-1.85-1.38-3.63-2.85-5.51-4.33c-2.89,1.84-5.69,3.63-8.72,5.56
			c7.26,5.78,14.28,11.37,21.59,17.18c4.73-13.33,9.33-26.27,13.92-39.21c-0.15-0.1-0.3-0.21-0.45-0.31
			C143.32,31.27,138.21,34.53,132.87,37.94z"/>
		<path class="st0" d="M108.31,87.22c-0.57,1.05-1.17,2.68-2.2,3.97c-12.57,15.88-25.2,31.72-37.83,47.56
			c-2.5,3.14-6.03,3.77-8.79,1.66c-2.86-2.18-3.17-5.83-0.57-9.12c9.2-11.65,18.47-23.25,27.72-34.87
			c3.53-4.43,7.05-8.87,10.59-13.29c1.69-2.11,3.9-3.19,6.57-2.47c2.3,0.62,3.83,2.22,4.28,4.66
			C108.18,85.75,108.2,86.18,108.31,87.22z"/>
		<path class="st0" d="M223.26,165.72c0,14.61,0,29.21,0,43.82c0,6.37-1.93,8.29-8.32,8.29c-23.97,0-47.94,0-71.91,0
			c-0.6,0-1.2-0.01-1.8-0.01c-2.63,0.01-4.69-1.01-5.85-3.44c-1.17-2.45-0.57-4.7,1.08-6.71c4.21-5.11,8.44-10.18,12.67-15.27
			c20.81-25.04,41.61-50.08,62.43-75.11c0.71-0.85,1.46-1.73,2.36-2.35c3.48-2.41,8.2-0.51,9.05,3.64c0.24,1.17,0.27,2.39,0.27,3.58
			C223.26,136.68,223.26,151.2,223.26,165.72z M211.02,205.74c0-23,0-45.71,0-69.04c-19.29,23.22-38.2,45.99-57.35,69.04
			C173.11,205.74,191.99,205.74,211.02,205.74z"/>
	</g>
</g>
</svg>
