<?xml version="1.0" encoding="utf-8"?>
<!-- Generator: Adobe Illustrator 23.0.3, SVG Export Plug-In . SVG Version: 6.00 Build 0)  -->
<svg version="1.1" id="Layer_1" xmlns="http://www.w3.org/2000/svg" xmlns:xlink="http://www.w3.org/1999/xlink" x="0px" y="0px"
	 viewBox="0 0 888.71 548.35" style="enable-background:new 0 0 888.71 548.35;" xml:space="preserve">
<style type="text/css">
	.st0{fill:#262D75;}
	.st1{fill:#4887A3;}
	.st2{fill:#1C4CA2;}
	.st3{fill:#7F246D;}
	.st4{fill:#3941F7;}
	.st5{fill:#437F98;}
	.st6{fill:#E9C3F8;}
	.st7{fill:#62D4CC;}
	.st8{fill:#1F1E5B;}
	.st9{fill:#94236D;}
	.st10{fill:#AC236D;}
	.st11{fill:#73B8D9;}
	.st12{fill:#2160AB;}
	.st13{fill:#E99A53;}
	.st14{fill:#2C327B;}
	.st15{fill:#E3A7F3;}
	.st16{fill:#4EADDC;}
	.st17{fill:#DAA3F6;}
	.st18{fill:#6877CC;}
	.st19{fill:#6DE8DE;}
	.st20{fill:#4B8BB0;}
	.st21{fill:#4AC1D2;}
	.st22{fill:#C89DFC;}
	.st23{fill:#859EE5;}
	.st24{fill:#FEFEFE;}
	.st25{fill:#DAEDF7;}
	.st26{fill:#4D246C;}
	.st27{fill:#6DE3DF;}
	.st28{fill:#69D7E1;}
	.st29{fill:#6BDCDF;}
	.st30{fill:#FFFFFF;}
</style>
<g>
	<path class="st0" d="M604.15,95.56c17.91-4.53,36.01-8.45,53.67-13.83c9.8-2.99,17.65-1.76,25.32,4.5
		c5.19,4.24,10.62,8.18,15.95,12.25c2.33,1.61,4.66,3.22,6.99,4.83c8.52,7.13,17.04,14.26,25.78,21.58c4.76-5.9,9-11.15,13.24-16.4
		c3.99-3.68,7.97-7.36,11.96-11.04c0.29,0.29,0.59,0.58,0.88,0.88c-0.39,0.66-0.7,1.37-1.17,1.96
		c-6.16,7.81-12.18,15.73-18.59,23.33c-2.44,2.89-2.22,4.65,0.45,6.98c12.49,10.91,24.9,21.91,37.34,32.87
		c1.57,1.45,3.15,2.91,4.72,4.36c0.15,0.27,0.26,0.55,0.33,0.85c-0.08,1.44-0.17,2.88-0.27,4.67c-1.52-0.17-2.64-0.2-3.72-0.43
		c-11.13-2.47-22.25-5-33.39-7.45c-17.58-3.88-35.17-7.67-52.74-11.6c-7.41-1.66-14.73-3.74-22.15-5.36
		c-11.28-2.46-22.64-4.53-33.91-7.03c-12.91-2.85-25.74-6.13-38.65-8.96c-20.5-4.49-41.06-8.7-61.55-13.26
		c-1.4-0.31-2.38-2.5-3.56-3.81c0.9-0.37,1.77-0.86,2.71-1.11c15.47-4.13,30.96-8.23,46.44-12.33
		C588.19,99.85,596.17,97.7,604.15,95.56z"/>
	<path class="st1" d="M651.94,520.09c-1.49,0.09-2.98,0.26-4.47,0.26c-89.29-0.01-178.58-0.03-267.87-0.06
		c-0.83,0-1.66-0.11-2.49-0.16c7.36-1.57,14.73-3.12,22.08-4.73c2.6-0.57,5.26-1.23,2.77-4.8c2.61-0.95,5.22-1.91,7.83-2.86
		c-7.01-3.65-13.98-6.17-21.01-8.5c-27.94-9.27-55.91-18.44-83.82-27.79c-2.47-0.83-4.61-2.65-6.9-4.02
		c11.97-0.03,23.94-0.09,35.91-0.09c56.36,0.01,112.73,0.04,169.09,0.06c1.65,1.38,3.09,3.3,4.99,4.02c5.1,1.94,10.4,3.33,15.6,5.02
		c13.87,4.5,27.74,8.98,41.57,13.6c14.94,4.99,29.83,10.12,44.74,15.2c0.96,0.33,1.89,0.73,2.83,1.1c0.01,0.49,0.01,0.99,0.02,1.48
		c-5.76,0.86-11.52,2.44-17.29,2.47c-45.5,0.21-91,0.12-136.5,0.13c-1.83,0-3.67,0.18-5.5,0.27c-0.04,0.58-0.08,1.16-0.13,1.74
		c5.25,1.19,10.48,2.44,15.75,3.54c5.8,1.21,11.63,3.24,17.46,3.27c53.16,0.26,106.33,0.15,159.49,0.18
		C648.05,519.45,649.99,519.87,651.94,520.09z"/>
	<path class="st2" d="M138.46,106.48c-0.71-31.64-1.42-63.27-2.14-94.91c-0.03-1.5-0.21-3-0.2-4.49c0.03-5.13,3.01-8.12,7.97-6.74
		c16.77,4.68,33.42,9.82,50.11,14.78c0.29,12.99,0.61,25.99,0.83,38.98c0.02,1.42-0.6,2.85-0.92,4.28
		c-9.7-10.91-18.42-22.79-30.26-31.66c1.84,3.79,4.5,6.85,7.03,10.01c5.45,6.83,10.83,13.72,16.24,20.59
		c-0.34,2.78-0.97,5.55-0.98,8.33c-0.08,36.88-0.07,73.76-0.08,110.65c-7.83,0.31-15.66,0.62-23.49,0.92
		c-5.43-9.77-10.86-19.53-16.29-29.3C143.65,134.11,141.06,120.29,138.46,106.48z"/>
	<path class="st3" d="M857.91,424.44c0,29.77,0,59.53,0,89.54c-22.45,0-44.56,0-67.73,0c0-17.55,0-35.11,0-52.68
		c0.07-2.16,0.18-4.31,0.19-6.47c0.08-20.8,0.14-41.6,0.21-62.4c3.68,1.75,7.38,3.43,11.03,5.25c14.98,7.47,29.9,15.05,44.92,22.42
		C850.16,421.89,854.11,423.02,857.91,424.44z"/>
	<path class="st4" d="M785.7,463.63c-0.11,14.76-0.22,29.52-0.32,44.28c-0.01,1.94,0,3.88,0,6.29c-21.83,0-43.03,0-64.23,0
		c0.36-5.72,0.73-11.43,1.1-17.15c3,1.1,5.96,3.04,8.99,3.15c10.45,0.4,20.93,0.16,31.4,0.16c7.87,0,11.96-3.27,12.13-11.11
		c0.3-13.27-0.08-26.56-0.18-39.84c0.09-13.43,0.2-26.86,0.22-40.29c0-1.46-0.39-2.98-0.87-4.38c-1.4-4.14-3.89-6.65-8.73-6.56
		c-10.95,0.19-21.91-0.19-32.84,0.26c-2.69,0.11-5.29,2.53-7.92,3.88c0.18-10.54,0.36-21.08,0.54-31.62
		c10.26-12.99,13.79-28.2,14.69-44.29c0.13-5.64,0.27-11.28,0.4-16.91c15.68-4.76,30.52-0.45,45.33,4.18
		c0.08,4.88,0.16,9.76,0.24,14.64c-0.01,4.36-0.02,8.72-0.04,13.07c-0.11,0.99-0.32,1.97-0.32,2.96
		c-0.03,38.78-0.04,77.57-0.02,116.35C785.26,461.68,785.54,462.66,785.7,463.63z"/>
	<path class="st5" d="M651.94,520.09c-1.95-0.22-3.89-0.64-5.84-0.64c-53.16-0.04-106.33,0.07-159.49-0.18
		c-5.83-0.03-11.65-2.06-17.46-3.27c-5.27-1.1-10.5-2.35-15.75-3.54c0.04-0.58,0.08-1.16,0.13-1.74c1.83-0.09,3.67-0.27,5.5-0.27
		c45.5-0.02,91,0.07,136.5-0.13c5.77-0.03,11.53-1.61,17.29-2.47c-0.01-0.49-0.01-0.99-0.02-1.48c-0.94-0.37-1.87-0.78-2.83-1.1
		c-14.91-5.08-29.8-10.21-44.74-15.2c-13.83-4.62-27.71-9.09-41.57-13.6c-5.2-1.69-10.5-3.07-15.6-5.02
		c-1.9-0.72-3.34-2.65-4.99-4.02c51.08-0.05,102.15-0.1,153.23-0.16c-0.54,14.4-1.09,28.79-1.63,43.19c-5.05,0-10.1,0-15.14,0
		c0.02,0.63,0.04,1.26,0.06,1.88c4.89,0,9.78,0,14.67,0c-0.32,2.69-0.64,5.38-0.96,8.06C652.84,520.3,652.39,520.19,651.94,520.09z"
		/>
	<path class="st6" d="M604.15,95.56c-7.98,2.15-15.96,4.29-23.94,6.44C575.54,96,570.63,90.18,566.23,84
		c-12.11-17-28.76-21.96-48.45-18.25c-31.51,5.93-60.44,19.34-89.72,31.68c-2.37,0.69-4.71,1.48-7.11,2.04
		c-10.88,2.54-21.66,6.18-32.69,7.21c-12.26,1.14-23.76-4.15-35.2-8.23c-1.92-7.12-6.95-11.43-13.22-14.62
		c-7.32-3.72-14.61-5.27-21.19,0.74c-4.79-7.01-9.22-13.5-13.64-19.98c15.59,5.22,31.45,9.76,46.71,15.81
		c25.72,10.2,50.51,7.89,75.49-2.46c21.33-8.84,42.82-17.33,64.57-25.06c14.35-5.1,29.17-8.8,44.74-8.53
		c14.08,0.25,24.69,6.57,33.48,16.97c8.97,10.61,16.28,22.79,28.61,30.23C600.56,92.7,602.31,94.2,604.15,95.56z"/>
	<path class="st7" d="M43.88,159.38c0.56-13.01-4.64-24.38-10.85-35.18c-5.53-9.6-12.18-18.56-18.17-27.9
		c-0.85-1.33-1.5-3.71-0.87-4.81c0.67-1.17,3.03-2.07,4.56-1.95c15.01,1.13,30.02,2.32,45,3.86c10.36,1.07,20.81,2.08,30.96,4.31
		c11.91,2.61,23.86,5.77,33.54,13.98c1.23,1.05,2.19,2.42,3.28,3.64c-6.01,5.12-11.91,10.36-18.05,15.31
		c-3.94,3.17-8.23,5.91-12.36,8.85c-15.14-15.26-32.97-25.75-54.2-30.28c16.74,5.6,31.57,14.39,44.63,26.16
		c-13.7,11.43-27.38,22.88-41.14,34.24c-0.79,0.65-2.17,0.59-3.27,0.86C45.92,166.77,44.9,163.08,43.88,159.38z"/>
	<path class="st8" d="M117.07,527.38c-15.45-0.31-30.89-0.59-46.34-0.95c-18.61-0.44-37.22-0.86-55.82-1.49
		c-10.2-0.34-15.13-4.96-14.9-15.21c0.17-7.7,2.05-15.36,3.17-23.04c2.53-5.28,6.17-9,12.53-8.86c10.13,0.22,20.26,0.46,30.4,0.69
		c0.91,0.3,1.81,0.83,2.73,0.85c14.08,0.39,28.17,0.71,42.25,1.05c2.03,0.02,4.05,0.04,6.08,0.07c3.3,0.32,6.61,0.64,9.91,0.97
		c0.32,3.67,0.64,7.34,0.96,11.01c-31.45-1.03-62.91-2.06-94.36-3.1c-0.02,0.55-0.04,1.1-0.07,1.65c0.78,0.15,1.56,0.42,2.34,0.45
		c19.92,0.72,39.85,1.35,59.77,2.12c11.45,0.45,22.88,1.12,34.32,1.69c0.67,4.78,1.34,9.57,2.01,14.35
		c-33.21-1.11-66.42-2.21-99.63-3.32c-0.02,0.64-0.04,1.27-0.07,1.91c34.22,1.41,68.44,2.82,102.66,4.22
		C115.7,517.42,116.38,522.4,117.07,527.38z"/>
	<path class="st7" d="M857.94,265.22c7.92,5.64,16,10.98,25.4,13.93c6.07,1.9,6.73,3.44,3.31,8.86c-7.19,11.42-15.28,22-27.71,28.32
		c-0.4,0.2-0.62,0.76-0.93,1.16c-11.25,4.94-22.87,6.3-34.9,3.61c0.01-26.96,0.03-53.92,0.04-80.88c1.25,0.77,2.58,1.45,3.75,2.33
		c7.68,5.84,15.32,11.74,22.98,17.61C852.57,261.85,855.26,263.54,857.94,265.22z"/>
	<path class="st2" d="M49.06,371.53c-11.42-1.5-20.82-7.17-28.44-15.33c-5.63-6.03-10.21-13.05-15.07-19.76
		c-1.98-2.73-1.8-5.62,1.89-6.74c15.12-4.58,27.31-14.07,39.68-23.29c3.98-3.02,7.95-6.04,11.93-9.07c3.62-2.45,7.25-4.9,10.87-7.35
		c0.39,2.07,1.08,4.14,1.1,6.22c0.12,9.06,0,18.12,0.1,27.18c0.02,1.7,0.66,3.39,1.02,5.09c-0.01,0.65-0.03,1.3-0.04,1.95
		c-0.34,1.72-0.96,3.44-0.98,5.16c-0.11,8.81-0.06,17.63-0.07,26.44c-6.91,0.08-13.82,0.11-20.73,0.27
		c-3.97,0.1-4.97,1.82-3.21,5.36c0.58,1.16,1.46,2.18,2.2,3.26C49.12,371.08,49.04,371.28,49.06,371.53z"/>
	<path class="st9" d="M857.91,424.44c-3.8-1.43-7.75-2.55-11.38-4.33c-15.03-7.37-29.95-14.95-44.92-22.42
		c-3.64-1.82-7.35-3.5-11.03-5.25c0.07-15.34,0.14-30.68,0.21-46.02c1.88,0.56,3.9,0.86,5.61,1.75c3.22,1.68,6.13,3.97,9.39,5.52
		c9.41,4.46,19.72,6.86,28.39,13.12c4.1,2.96,9.05,4.79,13.73,6.89c3.24,1.46,6.67,2.49,10.02,3.72
		C857.92,393.1,857.92,408.77,857.91,424.44z"/>
	<path class="st10" d="M46.1,478.53c-10.13-0.23-20.26-0.47-30.4-0.69c-6.35-0.14-9.99,3.58-12.53,8.86
		c-0.05-15.8-0.37-31.61-0.06-47.4c0.18-9.15,7.4-14.95,18.83-16.22c8.19,0,16.38,0,24.58,0c-0.31-6.29,1.02-7.87,7.31-8.98
		c10.75,0.13,21.49,0.25,32.24,0.38c0.07,2.96,0.14,5.91,0.21,8.87c-8.42-1.64-12.35,3.46-15.21,10.16
		c-5.63,0.01-11.26-0.09-16.89,0.05c-5.87,0.15-8.1,2.46-8.11,8.23C46.05,454.02,46.09,466.27,46.1,478.53z"/>
	<path class="st10" d="M857.92,377.43c-3.35-1.23-6.78-2.26-10.02-3.72c-4.68-2.1-9.63-3.93-13.73-6.89
		c-8.67-6.27-18.98-8.66-28.39-13.12c-3.27-1.55-6.18-3.84-9.39-5.52c-1.71-0.89-3.73-1.19-5.6-1.75c-0.22-1.65-0.44-3.31-0.66-4.96
		c-0.02-4.01-0.03-8.01-0.05-12.02c0.11-4.95,0.23-9.9,0.34-14.85c1.93,0.33,3.87,0.61,5.79,1c8.97,1.82,17.93,3.68,26.9,5.52
		c12.04,2.69,23.65,1.34,34.9-3.61C857.98,337.47,857.95,357.45,857.92,377.43z"/>
	<path class="st11" d="M100.92,139.48c4.13-2.93,8.42-5.68,12.36-8.85c6.14-4.95,12.05-10.19,18.05-15.31
		c1.25,1.48,2.5,2.96,3.74,4.44c2.1,6.24,4.55,12.39,6.18,18.76c1.42,5.53,1.9,11.29,2.79,16.95c-1.4,25.63-2.81,51.25-4.21,76.88
		c-2,1.46-4.01,2.91-6.01,4.37c-2.92-13.58-5.77-27.18-8.79-40.74C120.5,175.67,115.61,155.47,100.92,139.48z"/>
	<path class="st6" d="M59.04,297.34c-3.98,3.02-7.95,6.05-11.93,9.07c-2.8-3.85-5.65-7.66-8.39-11.54
		c-12.1-17.14-19.07-36.23-21.7-56.98c-1.94-15.28-1.65-30.38,3-45.23c4.3-13.74,11.84-25.1,23.87-33.27
		c1.02,3.69,2.05,7.39,3.07,11.08c1.4,4.31,2.8,8.62,4.2,12.93c-10.89,12-17.84,25.93-19.01,42.16
		c-1.57,21.81,4.62,41.55,17.5,59.19C52.73,288.97,55.9,293.14,59.04,297.34z"/>
	<path class="st12" d="M194.1,58.38c0.32-1.43,0.95-2.86,0.92-4.28c-0.21-13-0.54-25.99-0.83-38.98
		c22.68,8.19,43.46,19.63,61.34,36.01c1.22,1.12,2.47,2.2,3.71,3.3c2.45,2.74,4.9,5.49,7.35,8.23c0.16,0.59,0.32,1.17,0.48,1.76
		c-4.38,4.68-8.57,3.18-13.85,0.84c-10.45-4.63-20.92-4.72-29.88,4.04c-4.64,4.54-6.37,10.25-6.53,16.85
		c-1.38-0.27-2.47-0.48-3.56-0.69c-0.41-0.34-0.81-0.68-1.22-1.02l0.01,0.06c-0.54-1.18-0.91-2.48-1.64-3.51
		C205.01,73.43,199.54,65.91,194.1,58.38z"/>
	<path class="st2" d="M775.95,163.45c-12.44-10.97-24.85-21.97-37.34-32.87c-2.67-2.33-2.89-4.09-0.45-6.98
		c6.41-7.59,12.43-15.52,18.59-23.33c0.47-0.59,0.78-1.3,1.17-1.96c-0.29-0.29-0.59-0.58-0.88-0.88
		c-3.99,3.68-7.97,7.36-11.96,11.04c0.3-7.74,0.6-15.49,0.9-23.23c8.9-2.5,17.76-5.17,26.72-7.41c3.97-0.99,5.9,1.56,5.77,6.39
		c-0.53,20.56-0.99,41.13-1.46,61.69c-0.02,0.82,0.11,1.65,0.17,2.48c-0.12,3.21-0.24,6.41-0.35,9.62
		C776.54,159.82,776.25,161.64,775.95,163.45z"/>
	<path class="st13" d="M653.29,520.4c0.32-2.69,0.64-5.38,0.96-8.06c0.14-0.63,0.28-1.26,0.42-1.88c0.54-14.4,1.09-28.79,1.63-43.19
		c-0.07-7.95-0.13-15.9-0.2-23.85c0.06-1.58,0.12-3.17,0.18-4.75c9.37,3.11,18.95,3.46,28.66,2.21c0.4,2.12,0.8,4.24,1.19,6.36
		c0.36,6.65,0.71,13.3,1.07,19.95c-0.66,14.43-1.31,28.85-1.97,43.28c-0.03,0.59-0.05,1.18-0.08,1.78c-0.35,1.34-0.7,2.68-1.05,4.02
		c-3.3,1.36-6.59,2.73-9.89,4.09c0,0-0.15,0.03-0.15,0.03c-0.46-15.96-0.93-31.93-1.39-47.89c-0.44,0-0.87-0.01-1.31-0.01
		c-0.59,4.7-1.03,9.42-1.81,14.09c-1.87,11.24-3.89,22.46-5.85,33.69c-1.99,6.21-3.98,12.41-5.97,18.63
		c-2.45-0.32-4.91-0.64-7.37-0.96C651.34,532.09,652.31,526.24,653.29,520.4z"/>
	<path class="st13" d="M363.07,522.39c-16.31,3.37-32.63,6.74-48.94,10.11c-5.32-14.54-4.77-28.93,1.12-43.18
		c1.78,0.15,3.63,0.05,5.34,0.5c8.9,2.3,17.78,4.71,26.65,7.14c5.34,1.46,10.65,3.04,15.97,4.56
		C360.71,508.46,361.28,515.42,363.07,522.39z"/>
	<path class="st14" d="M315.25,489.32c-5.89,14.25-6.44,28.64-1.12,43.19c-16.02-0.38-32.04-0.77-48.06-1.15
		c0.8-3.95,3.53-3.1,6.1-2.37c3.18,0.9,4.27,0.02,3.55-3.35c-0.5-2.36-0.44-4.83-0.64-7.26c8.41,0,16.82,0,25.23,0
		c-1.94-1.25-3.97-1.64-6-1.74c-7.74-0.38-15.48-0.66-23.22-0.98c-0.99-4.82-1.99-9.64-2.98-14.46c11.15,0,22.29,0,33.44,0
		c-2.7-1.06-5.44-1.44-8.19-1.58c-7.42-0.38-14.84-0.66-22.27-0.98c-0.68-3.91-1.36-7.82-2.04-11.73c9.39,0.21,18.79,0.27,28.17,0.7
		C303.24,487.89,309.24,488.73,315.25,489.32z"/>
	<path class="st0" d="M181.21,514.5c23.62,0.93,47.24,1.85,70.87,2.78c7.67,0.37,15.34,0.73,23.01,1.1c0.19,2.42,0.14,4.9,0.64,7.26
		c0.72,3.38-0.38,4.26-3.55,3.35c-2.57-0.73-5.3-1.58-6.1,2.37c-21.81-0.48-43.62-0.97-65.42-1.46l-83.58-2.52l-2.05-14.93
		L181.21,514.5"/>
	<path class="st10" d="M857.94,265.22c-2.69-1.69-5.37-3.37-8.06-5.06c0.14-11.64,0.34-23.28,0.37-34.92
		c0.01-5.92-1.95-9.13-7.62-9.98c-9.46-1.43-19.1-2.97-28.58-2.54c-13.64,0.63-17.01,4.58-16.9,15.71c-2.24-0.1-4.49-0.21-6.73-0.31
		c-0.22-7.48-0.73-15.03,4.69-21.26c17.94-9.45,36.26-9.73,54.71-1.84c6.01,2.57,8.07,8.33,8.15,14.37
		C858.19,234.66,857.98,249.94,857.94,265.22z"/>
	<path class="st15" d="M267.07,64.43c-0.16-0.59-0.32-1.17-0.48-1.76c3.84-1.7,7.69-3.39,11.53-5.09
		c9.33,0.93,18.35,3.03,26.89,6.99c4.43,6.49,8.86,12.97,13.64,19.98c6.57-6.01,13.86-4.46,21.19-0.74
		c6.27,3.19,11.3,7.5,13.22,14.62c-5.51-2.09-10.94-4.42-16.54-6.22c-10.01-3.22-20.04-6.45-30.21-9.08
		c-10.02-2.6-20.24-4.47-30.37-6.67C272.99,72.45,270.03,68.44,267.07,64.43z"/>
	<path class="st6" d="M53.83,414.08c-6.28,1.11-7.62,2.7-7.3,8.98c-8.2,0-16.39,0-24.58,0c5.14-10.19,10.03-20.51,15.51-30.51
		c3.81-6.95,8.44-13.44,12.7-20.14c0.65-0.11,1.3-0.22,1.95-0.33c0.59,0.08,1.19,0.17,1.78,0.25
		C57.38,386.26,56.8,400.17,53.83,414.08z"/>
	<path class="st12" d="M745.99,85.24c-0.3,7.74-0.6,15.49-0.9,23.23c-4.24,5.25-8.48,10.5-13.24,16.4
		c-8.74-7.32-17.26-14.45-25.78-21.58c1.77-1.21,3.53-2.42,5.3-3.63C722.91,94.86,734.45,90.05,745.99,85.24z"/>
	<path class="st5" d="M684.09,516.26c0.35-1.34,0.7-2.68,1.05-4.02c3.81,0.04,7.62,0.13,11.43,0.1c9.18-0.07,14.96-4.76,17.25-13.95
		c0.14-10.34,0.28-20.67,0.42-31.01c2.82-0.06,5.64-0.12,8.46-0.18c-0.15,9.95-0.31,19.9-0.46,29.85
		c-0.37,5.72-0.73,11.43-1.1,17.15c-2.71,4.61-6.71,6.38-12.04,6.2c-8.59-0.29-17.2-0.18-25.8-0.23
		C683.56,518.87,683.83,517.56,684.09,516.26z"/>
	<path class="st15" d="M790.13,341.46c0.22,1.65,0.44,3.31,0.66,4.96c-0.07,15.34-0.14,30.68-0.21,46.02
		c-0.07,20.8-0.13,41.6-0.21,62.4c-0.01,2.16-0.13,4.31-0.19,6.47c-1.5,0.77-2.99,1.55-4.49,2.32c-0.15-0.98-0.43-1.95-0.43-2.93
		c-0.01-38.78,0-77.57,0.02-116.35c0-0.99,0.21-1.97,0.32-2.96C787.11,341.41,788.62,341.44,790.13,341.46z"/>
	<path class="st6" d="M795.12,206.87c-5.42,6.24-4.91,13.78-4.69,21.26c-2.47,0.08-4.94,0.16-7.41,0.23c-1.33-2-2.66-3.99-3.99-5.99
		c-1.05-9.78-2.09-19.56-3.14-29.35c1.96-0.85,3.9-1.76,5.88-2.54c7.66-3.03,8.87-4.9,8.21-12.99l0.35-0.29
		c1.25,7.44,2.52,14.88,3.74,22.33C794.47,201.97,794.77,204.42,795.12,206.87z"/>
	<path class="st8" d="M363.07,522.39c-1.79-6.97-2.36-13.93,0.14-20.87c1.29,0.16,2.61,0.21,3.86,0.51
		c11.63,2.83,23.26,5.71,34.88,8.57c2.49,3.57-0.17,4.23-2.77,4.8c-7.35,1.61-14.72,3.16-22.08,4.73
		C372.43,520.88,367.75,521.64,363.07,522.39z"/>
	<path class="st16" d="M447.21,53.69c-8.33,6.14-16.67,12.27-24.99,18.44c-2.42,1.79-4.21,1.22-5.77-1.2
		c-2.23-3.46-4.57-6.87-6.01-9.03c-3.01-2.49-5.37,3.05-7.11-1.49c2.78-1.31,5.43-3.24,8.36-3.8c6.93-1.34,13.97-2.3,21-2.92
		C437.5,53.26,442.37,53.66,447.21,53.69z"/>
	<path class="st16" d="M404.19,52.48c-2.76-4.24-5.52-8.47-8.28-12.71c0.24-0.46,0.49-0.93,0.73-1.39
		c16.94,3.84,33.89,7.67,50.83,11.51C433.04,50.75,418.62,51.61,404.19,52.48z"/>
	<path class="st5" d="M663.7,520.27c1.96-11.23,3.98-22.44,5.85-33.69c0.77-4.67,1.21-9.39,1.81-14.09c0.44,0,0.87,0.01,1.31,0.01
		c0.46,15.96,0.93,31.93,1.39,47.89C670.6,520.35,667.15,520.31,663.7,520.27z"/>
	<path class="st14" d="M650.36,537.93c2.46,0.32,4.91,0.64,7.37,0.96c0.15,1.48,0.27,2.96,0.47,4.44c0.38,2.87-0.73,4.49-3.74,4.49
		c-7.25,0.01-14.5,0-22.44-1C638.13,543.86,644.25,540.9,650.36,537.93z"/>
	<path class="st4" d="M404.19,52.48c14.43-0.86,28.85-1.73,43.28-2.59c0.97,0.19,1.94,0.39,3.37,0.68c-1.4,1.21-2.52,2.17-3.64,3.12
		c-4.84-0.03-9.71-0.43-14.51,0c-7.04,0.62-14.07,1.57-21,2.92c-2.92,0.57-5.58,2.49-8.36,3.8
		C403.62,57.77,403.91,55.12,404.19,52.48z"/>
	<path class="st17" d="M144.05,155.47c-0.9-5.66-1.38-11.43-2.79-16.95c-1.63-6.36-4.09-12.51-6.18-18.76
		c1.13-4.43,2.26-8.86,3.39-13.29c2.6,13.82,5.2,27.63,7.8,41.45C145.52,150.44,144.78,152.96,144.05,155.47z"/>
	<path class="st13" d="M684.09,516.26c-0.27,1.3-0.53,2.61-0.79,3.91c-0.17,2.62-0.26,5.25-0.52,7.87c-0.38,3.8-1.37,7.34-4.81,9.63
		c-0.25-0.01-0.5,0.01-0.75,0.04c-0.8-4.02-1.65-8.03-2.39-12.06c-0.32-1.75-0.43-3.53-0.63-5.3
		C677.5,518.99,680.8,517.62,684.09,516.26z"/>
	<path class="st6" d="M776.84,158.01c0.12-3.21,0.24-6.41,0.35-9.62c6.39,8.69,10.5,18.42,13.13,28.83c0,0-0.35,0.28-0.35,0.28
		c-2.99-2.95-5.98-5.89-8.97-8.84c-0.07-0.3-0.18-0.58-0.33-0.85c0.46-1.56,1.04-3.1,1.36-4.69
		C782.93,158.66,781.64,157.43,776.84,158.01z"/>
	<path class="st14" d="M677.22,537.71c0.25-0.03,0.5-0.05,0.75-0.04c4.68,1.1,3.96,5.33,4.95,8.56c-2.8,0.77-5.58,1.71-8.43,2.11
		c-0.39,0.05-1.98-2.9-1.58-3.87C673.9,542.04,675.72,539.94,677.22,537.71z"/>
	<path class="st6" d="M278.12,57.58c-3.84,1.7-7.69,3.39-11.53,5.09c-2.45-2.74-4.9-5.49-7.35-8.23
		C265.53,55.48,271.83,56.53,278.12,57.58z"/>
	<path class="st6" d="M711.37,99.67c-1.77,1.21-3.53,2.42-5.3,3.63c-2.33-1.61-4.66-3.22-6.99-4.83
		C703.18,98.87,707.27,99.27,711.37,99.67z"/>
	<path class="st18" d="M52.11,372.09c-0.65,0.11-1.3,0.22-1.95,0.33c-0.37-0.3-0.74-0.59-1.1-0.89c-0.02-0.25,0.07-0.45,0.25-0.62
		C50.24,371.3,51.18,371.7,52.11,372.09z"/>
	<path class="st14" d="M781.01,168.66c2.99,2.95,5.98,5.89,8.97,8.84c0.65,8.08-0.55,9.96-8.21,12.99
		c-1.99,0.78-3.92,1.69-5.88,2.54c-0.98,0.42-1.96,0.84-2.94,1.26c-1.95,0.74-3.91,1.47-5.86,2.21c-0.31,0.37-0.62,0.74-0.92,1.12
		c0,0,0.23,0.14,0.23,0.14c-2.07,0.38-4.23,0.5-6.2,1.18c-7.01,2.41-13.95,5-20.91,7.53c-6.37-5.49-12.37-11.48-19.18-16.36
		c-18.82-13.49-37.97-26.51-57-39.72c-0.16-0.12-0.31-0.25-0.47-0.37c0.13,0.16,0.25,0.31,0.38,0.47c2.95,3.39,5.42,7.4,8.92,10.08
		c17.21,13.16,34.74,25.91,52.06,38.92c4.14,3.11,7.93,6.71,11.87,10.08c-0.52-0.03-1.04-0.06-1.55-0.09
		c-0.95,0.25-1.93,0.42-2.85,0.77c-12.98,5.05-25.97,10.07-38.91,15.2c-15.85,6.28-31.66,12.65-47.49,18.98
		c-4.45,0.03-7.52-1.83-10.43-5.46c-8.16-10.2-16.41-20.42-25.51-29.77c-16.07-16.5-32.78-32.38-49.31-48.43
		c-1.19-1.15-3.08-1.57-4.65-2.34c-0.96-1.61-1.62-3.54-2.94-4.77c-8.25-7.65-16.88-14.91-24.83-22.86
		c-2.08-2.08-3.41-6.37-2.83-9.18c0.5-2.41,4.22-4.15,6.51-6.19c1.18,1.31,2.16,3.5,3.56,3.81c20.49,4.56,41.05,8.77,61.55,13.26
		c12.92,2.83,25.74,6.1,38.65,8.96c11.27,2.49,22.63,4.57,33.91,7.03c7.42,1.62,14.74,3.7,22.15,5.36
		c17.56,3.93,35.16,7.72,52.74,11.6c11.14,2.46,22.26,4.99,33.39,7.45c1.07,0.24,2.19,0.26,3.72,0.43
		C780.84,171.54,780.92,170.1,781.01,168.66z M690.09,213.32c-1.26,0.31-2.17,0.49-3.06,0.76c-10.33,3.22-20.76,6.16-30.95,9.78
		c-7.47,2.65-12.98,0.88-18.34-4.73c-16.64-17.44-33.56-34.6-50.38-51.87c-11.16-11.46-22.32-22.92-33.49-34.38
		c-1.4-1.43-2.7-2.98-4.25-4.22c-0.74-0.59-1.96-0.58-2.96-0.85c0.21,1.13,0.08,2.52,0.7,3.34c1.29,1.71,2.99,3.12,4.51,4.66
		c28.37,28.66,56.76,57.3,85.09,85.99c3.7,3.75,8.06,7.05,13.19,5.6c13.38-3.78,26.53-8.41,39.77-12.72
		C689.99,214.67,689.97,214.38,690.09,213.32z"/>
	<path class="st15" d="M531.07,115.43c-2.3,2.04-6.02,3.78-6.51,6.19c-0.58,2.81,0.75,7.11,2.83,9.18
		c7.95,7.94,16.58,15.2,24.83,22.86c1.32,1.22,1.98,3.16,2.94,4.77c-1.35,2.97-2.7,5.94-4.06,8.9c-24.42,0.44-48.83,0.88-73.25,1.34
		c-0.99,0.02-1.98,0.29-2.97,0.31c-14.93,0.36-29.86,0.69-44.79,1.03c-0.01-2-0.07-3.99-0.01-5.99c0.1-3.34,2.02-4.63,5.2-4.61
		c7.73,0.04,15.46,0.05,23.19-0.01c8.59-0.06,8.58-0.1,10.8-8.25c2.82-10.34-2.86-16.48-13.43-14.5c-0.95,0.18-1.88,0.45-2.96,0.71
		c-1.06-1.65-2.06-3.15-3.01-4.68c-2.63-4.2-5.86-7.58-10.92-8.83c-2.85-0.7-6.83-0.92-8.11-2.83c-1.5-2.23-0.68-6.06-0.77-9.2
		c-0.07-2.49,0.25-5.02-0.09-7.47c-0.32-2.36-1.26-4.63-1.93-6.94c29.28-12.34,58.21-25.74,89.72-31.68
		C537.47,62.04,554.12,67,566.23,84c4.4,6.18,9.31,12.01,13.98,17.99c-15.48,4.11-30.96,8.21-46.44,12.33
		C532.84,114.58,531.97,115.06,531.07,115.43z"/>
	<path class="st13" d="M776.84,158.01c4.8-0.58,6.09,0.65,5.19,5.12c-0.32,1.59-0.9,3.13-1.36,4.69c-1.57-1.45-3.15-2.91-4.72-4.36
		C776.25,161.64,776.54,159.82,776.84,158.01z"/>
	<path class="st19" d="M520.47,400.4c11.19,3.54,22.45,6.88,33.58,10.61c13.82,4.63,27.5,9.68,41.31,14.34
		c12.38,4.18,24.79,8.25,37.29,12.04c7.71,2.34,15.61,4.04,23.43,6.03c0.07,7.95,0.13,15.9,0.2,23.85
		c-51.07,0.05-102.15,0.1-153.23,0.16c-56.36-0.02-112.73-0.05-169.09-0.06c-11.97,0-23.94,0.06-35.91,0.09
		c-32.36-0.03-64.71-0.06-97.07-0.09c-2.11-6.57-4.49-13.06-6.27-19.72c-2.5-9.37-4.54-18.86-6.77-28.3
		c1.69-4.32,3.38-8.64,5.07-12.96c0.03,7.49,0.07,14.97,0.09,22.46c0.03,9.33,4.05,13.45,13.26,13.47
		c40.43,0.09,80.87,0.16,121.3,0.23c1.33,0,2.67,0.08,3.99-0.07c4.4-0.51,8.11-4.17,8.36-8.55c0.71-12.25,1.46-24.5,1.87-36.76
		c0.55-16.44,0.78-32.9,1.22-49.35c0.05-1.79,0.6-3.57,0.92-5.36c6.47,1.73,13.03,3.2,19.39,5.28c3.44,1.13,6.54,3.29,9.79,4.98"/>
	<path class="st19" d="M412.43,366.24c6.41,1.56,13,2.42,19.3,4.3c8.1,2.42,15.97,5.58,23.95,8.42c-0.08,0.49-0.15,0.98-0.23,1.47
		c-2.06,0-4.23-0.39-6.16,0.12c-1.56,0.42-2.82,1.93-4.22,2.96"/>
	<path class="st20" d="M201,467.35c32.36,0.03,64.71,0.06,97.07,0.09c2.29,1.36,4.43,3.19,6.9,4.02
		c27.91,9.35,55.88,18.52,83.82,27.79c7.03,2.33,13.99,4.85,21.01,8.5c-2.61,0.95-5.22,1.91-7.83,2.86
		c-11.63-2.86-23.25-5.74-34.89-8.57c-1.25-0.31-2.57-0.35-3.86-0.51c-5.32-1.52-10.63-3.1-15.97-4.56
		c-8.87-2.43-17.75-4.84-26.65-7.14c-1.71-0.44-3.56-0.34-5.34-0.5c-6.01-0.59-12.01-1.43-18.04-1.71
		c-9.38-0.43-18.78-0.49-28.17-0.71c-10.63-0.46-21.26-0.99-31.89-1.36c-13.64-0.48-27.28-0.85-40.92-1.26"/>
	<path class="st21" d="M430.1,170.03c14.93-0.34,29.86-0.68,44.79-1.03c0.99-0.02,1.98-0.3,2.97-0.31
		c24.41-0.46,48.83-0.9,73.24-1.34c-0.72,4.66-4.48,8.92-1.9,14.03c-12.11,0.48-24.22,1.09-36.33,1.42
		c-12.94,0.35-25.88,0.39-38.82,0.65c-12.79,0.26-25.58,0.65-38.37,0.98c-25.58,0.66-51.16,1.39-76.75,1.98
		c-19.29,0.45-38.58,0.73-57.87,1.08c-5.77,0.31-11.53,0.78-17.3,0.9c-18.87,0.41-37.74,0.69-56.6,1.02
		c-16.37-0.04-32.75-0.26-49.12,0.01c-4.35,0.07-9.29,0.52-11.03,6.05c0,0,0.06-0.06,0.06-0.06c-1.29,1.02-3.31,1.79-3.74,3.1
		c-1.18,3.56-2.31,7.32-2.36,11.02c-0.28,22.63-0.26,45.26-0.33,67.89c-4.16-1-8.32-1.99-12.49-2.99
		c-0.39-26.57-0.82-53.14-1.14-79.7c-0.12-9.43,6.05-16.23,15.52-17.48c7.83-0.31,15.66-0.62,23.49-0.92
		c21.02-0.65,42.05-1.29,63.07-1.94c1.97-0.01,3.94-0.02,5.91-0.03c4.79,0.01,9.59,0.16,14.38,0.01c5.22-0.16,10.44-0.58,15.65-0.89
		c13.12-0.27,26.25-0.55,39.37-0.81c23.44-0.46,46.88-0.84,70.32-1.38C406.53,170.99,418.31,170.45,430.1,170.03z"/>
	<path class="st12" d="M249.11,174.36c-21.02,0.65-42.05,1.3-63.07,1.94c0.01-36.88,0-73.77,0.08-110.65
		c0.01-2.78,0.64-5.55,0.98-8.33c6.36,8.98,12.72,17.95,19.07,26.93c-1.16,0.06-2.32,0.14-3.48,0.17c-6.05,0.16-8.29,3.07-6.08,8.64
		c1.2,3.02,3.08,5.87,5.11,8.44c5.95,7.56,15.01,9.98,23.34,13.56C234.58,134.22,244.37,153.26,249.11,174.36z"/>
	<path class="st22" d="M162.54,177.22c-9.47,1.25-15.63,8.05-15.52,17.48c0.33,26.57,0.75,53.14,1.14,79.7
		c-0.04,10.29-0.09,20.59-0.13,30.88c-2.67-3.26-5.34-6.53-8.01-9.79c-0.06-21.05-0.13-42.09-0.19-63.14
		c1.4-25.63,2.81-51.25,4.21-76.88c0.74-2.52,1.47-5.03,2.21-7.55C151.68,157.69,157.11,167.46,162.54,177.22z"/>
	<path class="st0" d="M206.17,84.25c-6.36-8.97-12.72-17.95-19.07-26.93c-5.41-6.87-10.79-13.76-16.24-20.59
		c-2.52-3.16-5.18-6.22-7.03-10.01c11.85,8.87,20.56,20.75,30.26,31.66c5.45,7.53,10.92,15.05,16.31,22.62
		c0.74,1.03,1.1,2.33,1.64,3.51C210.09,84.42,208.13,84.34,206.17,84.25z"/>
	<path class="st9" d="M722.24,497.06c0.15-9.95,0.31-19.9,0.46-29.85c0.48-13.92,0.96-27.84,1.44-41.76
		c1.27,0.31,2.65,0.4,3.79,0.97c12.39,6.29,24.72,12.7,37.12,18.96c3.07,1.55,6.35,2.7,9.54,4.04c0.09,13.28,0.47,26.57,0.18,39.84
		c-0.17,7.84-4.26,11.1-12.13,11.11c-10.47,0-20.95,0.24-31.4-0.16C728.2,500.09,725.23,498.16,722.24,497.06z"/>
	<path class="st23" d="M785.4,313.68c-14.81-4.63-29.65-8.94-45.33-4.18c-0.48-4.04-0.96-8.08-1.45-12.13
		c-0.43-3.93-0.86-7.86-1.3-11.78c2.86-3.19,5.39-6.77,8.63-9.51c13.18-11.12,27.67-17.3,45.11-10.67
		c-0.38,16.14-0.77,32.27-1.15,48.41C788.41,313.77,786.9,313.73,785.4,313.68z"/>
	<path class="st10" d="M774.59,449.41c-3.18-1.33-6.46-2.48-9.54-4.04c-12.4-6.26-24.73-12.67-37.12-18.96
		c-1.14-0.58-2.52-0.66-3.79-0.97c0.1-7.71,0.2-15.41,0.3-23.12c2.64-1.36,5.23-3.77,7.92-3.88c10.93-0.45,21.9-0.07,32.84-0.26
		c4.85-0.08,7.33,2.43,8.73,6.56c0.47,1.4,0.87,2.92,0.87,4.38C774.79,422.55,774.67,435.98,774.59,449.41z"/>
	<path class="st21" d="M724.43,402.33c-0.1,7.71-0.2,15.41-0.3,23.12c-0.48,13.92-0.96,27.84-1.44,41.76
		c-2.82,0.06-5.64,0.12-8.46,0.18c-0.04-10.96-0.11-21.92-0.1-32.88c0.03-30.72,0.1-61.44,0.15-92.15c0.29,0.75,0.59,1.49,0.88,2.24
		c3.27,8.7,6.54,17.4,9.81,26.1C724.79,381.25,724.61,391.79,724.43,402.33z"/>
	<path class="st14" d="M724.97,370.71c-3.27-8.7-6.54-17.4-9.81-26.1c-0.28-0.75-0.58-1.49-0.88-2.24
		c-0.19-0.96-0.37-1.93-0.56-2.89c-0.5-1.49-1.01-2.99-1.51-4.48c-0.11-1.85-0.21-3.7-0.32-5.55c1.32-0.01,2.64-0.01,3.97-0.02
		c1.92,9.33,3.85,18.65,5.77,27.98c0.39-0.09,0.77-0.18,1.16-0.27c-1.48-9.24-2.96-18.47-4.44-27.71c2.48,0,4.96,0,7.44,0
		c0.19,3.35,0.37,6.71,0.56,10.06c0.1,1.36,0.21,2.73,0.31,4.09c0.01,0.88,0.02,1.76,0.03,2.65c0.14,4.09,0.28,8.17,0.41,12.26
		c0.22,0.27,0.43,0.55,0.65,0.82c0.22-0.29,0.43-0.58,0.65-0.88c0.09-6.34,0.19-12.67,0.28-19.01c0.02-3.98,0.04-7.97,0.06-11.95
		c3.64-0.35,7.28-0.69,10.92-1.04C738.76,342.5,735.23,357.72,724.97,370.71z"/>
	<path class="st0" d="M739.66,326.42c-3.64,0.35-7.28,0.69-10.92,1.04c0-7.31,0-14.62,0-23.28c-1.91,1.61-2.79,2-2.79,2.41
		c-0.12,7.61-0.13,15.23-0.17,22.84c-2.48,0-4.96,0-7.44,0c-0.71-10.56-0.89-21.07,3.74-30.99c5.51-0.35,11.02-0.71,16.52-1.06
		c0.48,4.04,0.96,8.08,1.45,12.13C739.93,315.14,739.8,320.78,739.66,326.42z"/>
	<path class="st24" d="M785.4,313.68c1.51,0.05,3.01,0.09,4.52,0.14c0.06,0.32,0.23,0.58,0.5,0.77c-0.11,4.95-0.23,9.9-0.34,14.85
		c-1.48-0.37-2.96-0.74-4.44-1.12C785.56,323.44,785.48,318.56,785.4,313.68z"/>
	<path class="st6" d="M785.64,328.32c1.48,0.37,2.96,0.74,4.44,1.12c0.02,4.01,0.03,8.01,0.05,12.02c-1.51-0.02-3.02-0.04-4.52-0.07
		C785.62,337.03,785.63,332.68,785.64,328.32z"/>
	<path class="st25" d="M654.66,510.45c-0.14,0.63-0.28,1.26-0.42,1.88c-4.89,0-9.78,0-14.67,0c-0.02-0.63-0.04-1.26-0.06-1.88
		C644.56,510.45,649.61,510.45,654.66,510.45z"/>
	<path class="st17" d="M430.1,170.03c-11.79,0.42-23.57,0.96-35.36,1.23c-23.44,0.54-46.88,0.92-70.32,1.38
		c-13.12,0.26-26.25,0.54-39.37,0.81c0.59-16.63,1.19-33.26,1.78-49.89c-0.02-1.82,0.11-3.65-0.07-5.45
		c-1.41-14.45-4.71-28.41-10.81-41.64c10.13,2.19,20.34,4.07,30.37,6.67c10.17,2.64,20.2,5.86,30.21,9.08
		c5.6,1.8,11.03,4.13,16.54,6.22c11.45,4.08,22.95,9.37,35.2,8.23c11.03-1.03,21.81-4.66,32.69-7.21c2.4-0.56,4.74-1.35,7.11-2.04
		c0.67,2.31,1.61,4.58,1.93,6.94c0.34,2.45,0.01,4.98,0.09,7.47c0.09,3.14-0.73,6.97,0.77,9.2c1.29,1.91,5.26,2.13,8.11,2.83
		c5.06,1.25,8.29,4.63,10.92,8.83c0.96,1.53,1.95,3.04,3.01,4.68c1.08-0.26,2.01-0.53,2.96-0.71c10.57-1.98,16.24,4.16,13.43,14.5
		c-2.22,8.15-2.22,8.18-10.8,8.25c-7.73,0.06-15.46,0.05-23.19,0.01c-3.18-0.02-5.1,1.26-5.2,4.61
		C430.03,166.03,430.09,168.03,430.1,170.03z M413.67,158.45c3.92-0.71,5.83-2.05,6.6-5.79c1.25-6.12,3.29-12.09,4.46-18.22
		c0.28-1.48-1.18-3.69-2.45-4.95c-1.22-1.2-3.2-1.68-4.89-2.35c-8.74-3.48-16.76-0.99-19.11,6.41c-1.32,4.16-2.8,5.63-7.35,4.17
		c-4.2-1.36-6.58,1.51-4.66,5.47c1.31,2.7,3.32,5.85,5.85,7.03C399.07,153.46,406.46,155.77,413.67,158.45z"/>
	<path class="st11" d="M51.15,183.39c-1.4-4.31-2.8-8.62-4.2-12.93c1.1-0.27,2.48-0.21,3.27-0.86
		c13.76-11.36,27.44-22.81,41.14-34.24c11.76,10.12,20.04,22.55,23.8,37.62c5.84,23.42,11.26,46.94,16.86,70.42
		c-1.66,1.35-3.31,2.71-4.97,4.06c-5.4-9.65-13.61-16-23.56-20.43c-5.9-2.63-11.84-5.24-17.48-8.37
		C70.97,210.34,59.86,198.03,51.15,183.39z"/>
	<path class="st12" d="M132.02,243.4c-5.6-23.48-11.03-47-16.86-70.42c-3.76-15.07-12.04-27.51-23.8-37.62
		c-13.06-11.77-27.9-20.56-44.63-26.16c21.22,4.53,39.06,15.01,54.2,30.28c14.69,16,19.59,36.19,24.12,56.51
		c3.02,13.56,5.87,27.16,8.8,40.74c0.6,5.71,1.19,11.42,1.78,17.14c-0.34,0.06-0.68,0.13-1.02,0.19
		C133.73,250.5,132.87,246.95,132.02,243.4z"/>
	<path class="st26" d="M46.1,478.53c-0.01-12.25-0.05-24.5-0.03-36.76c0.01-5.76,2.24-8.08,8.11-8.23
		c5.63-0.14,11.26-0.04,16.89-0.05c4.07,0.29,8.14,0.72,12.22,0.85c6,0.18,7.75,1.77,7.77,7.69c0.03,12.8,0.02,25.6,0.03,38.4
		c-14.08-0.34-28.17-0.66-42.25-1.05C47.91,479.35,47.01,478.82,46.1,478.53z"/>
	<path class="st0" d="M171.86,512.33c-18.97-0.68-37.95-1.36-56.92-2.07c-0.97-0.04-1.93-0.41-2.89-0.62
		c-0.67-4.78-1.34-9.57-2.01-14.35c1.83,0.01,3.65-0.02,5.48,0.04c18.23,0.6,36.46,1.23,54.69,1.84"/>
	<path class="st26" d="M107.07,481.46c-3.3-0.32-6.61-0.64-9.91-0.97c-0.01-12.42,0.34-24.85-0.16-37.24
		c-0.34-8.58,3.46-11.34,13.34-9.13c1.27,0.28,2.45,0.97,3.67,1.47c0.04,15.26,0.09,30.52,0.13,45.78
		C111.78,481.4,109.42,481.43,107.07,481.46z"/>
	<path class="st9" d="M114.01,435.59c-1.22-0.5-2.4-1.19-3.67-1.47c-9.88-2.21-13.68,0.55-13.34,9.13
		c0.5,12.4,0.15,24.83,0.16,37.24c-2.03-0.02-4.05-0.04-6.08-0.07c-0.01-12.8,0.01-25.6-0.03-38.4c-0.02-5.91-1.77-7.5-7.77-7.69
		c-4.08-0.12-8.14-0.55-12.22-0.85c2.86-6.7,6.79-11.79,15.21-10.16c10.93,0.06,21.87,0.13,32.8,0.19
		C117.39,427.54,115.7,431.57,114.01,435.59z"/>
	<path class="st0" d="M169.88,495.28c-20.62-0.93-41.23-1.87-61.85-2.8c-0.32-3.67-0.64-7.34-0.96-11.01
		c2.35-0.03,4.71-0.06,7.06-0.09c12.29,0.34,24.58,0.67,36.88,1.01c5.64,0.37,11.28,0.74,16.92,1.11"/>
	<path class="st11" d="M790.42,314.58c-0.27-0.19-0.44-0.45-0.5-0.77c0.38-16.13,0.77-32.27,1.15-48.41
		c7.79,3.58,15.58,7.16,23.78,10.93c-6.71-7.88-20.78-15.11-32.76-17.07c-0.03-10.02-0.05-20.04-0.08-30.06
		c0.34-0.28,0.67-0.56,1.01-0.85c2.47-0.08,4.94-0.15,7.41-0.23c2.25,0.1,4.49,0.2,6.73,0.31c9.29,2.55,18.35,5.6,25.99,11.78
		c-0.01,26.96-0.03,53.92-0.04,80.88c-8.97-1.84-17.93-3.7-26.9-5.52C794.29,315.19,792.35,314.91,790.42,314.58z"/>
	<path class="st13" d="M823.16,240.22c-7.64-6.18-16.71-9.23-25.99-11.78c-0.11-11.13,3.26-15.08,16.9-15.71
		c9.48-0.44,19.12,1.11,28.58,2.54c5.67,0.85,7.63,4.07,7.62,9.98c-0.03,11.64-0.24,23.28-0.37,34.92
		c-7.66-5.88-15.3-11.77-22.98-17.61C825.74,241.67,824.41,240.99,823.16,240.22z"/>
	<path class="st22" d="M51.15,183.39c8.71,14.63,19.82,26.95,34.85,35.27c5.64,3.12,11.58,5.74,17.48,8.37
		c9.95,4.43,18.17,10.79,23.56,20.43c5.87,14.18,8.4,29.04,9.02,44.29c-1.08-0.76-2.21-1.46-3.22-2.31
		C113.27,272.98,91,275,69.91,289.99c-3.62,2.45-7.25,4.9-10.87,7.35c-3.13-4.2-6.3-8.36-9.39-12.59
		c-12.88-17.64-19.07-37.38-17.5-59.19C33.31,209.32,40.27,195.4,51.15,183.39z"/>
	<path class="st12" d="M71.04,362.02c0.01-8.81-0.04-17.63,0.07-26.44c0.02-1.72,0.64-3.44,0.98-5.16c1.62-0.75,3.29-1.41,4.85-2.28
		c6.2-3.45,12.22-7.29,18.59-10.39c13.45-6.55,27.01-7.26,40.32,0.55c4.38,2.57,8.62,5.37,12.93,8.07
		c0.07,3.77,0.04,7.55,0.25,11.31c0.22,4,0.68,7.98,1.04,11.97c-1.57,2.61-3.14,5.23-4.72,7.84c-11.58-0.76-22.76,1.32-33.78,4.63
		c-9.79,0.12-19.59,0.23-29.38,0.35C78.48,362.32,74.76,362.17,71.04,362.02z"/>
	<path class="st12" d="M69.91,289.99c21.09-14.99,43.36-17.01,62.94-0.54c1.01,0.85,2.14,1.54,3.22,2.3
		c1.32,1.25,2.64,2.49,3.96,3.74c2.67,3.26,5.34,6.53,8.01,9.79c0.17,5.41,0.34,10.81,0.51,16.21c-2.65-1.68-5.26-3.4-7.94-5.02
		c-13.25-7.98-27.22-11.01-41.62-3.87c-9.29,4.6-17.93,10.53-26.86,15.86c-0.36-1.7-1-3.39-1.02-5.09
		c-0.1-9.06,0.02-18.12-0.1-27.18C70.99,294.13,70.3,292.06,69.91,289.99z"/>
	<path class="st10" d="M71.04,362.02c3.72,0.15,7.44,0.3,11.15,0.45c-0.07,3.05-0.14,6.1-0.2,9.15c-9.36,0.24-18.73,0.48-28.09,0.72
		c-0.59-0.08-1.19-0.17-1.78-0.25c-0.94-0.39-1.87-0.78-2.81-1.18c-0.74-1.08-1.62-2.1-2.2-3.26c-1.76-3.54-0.76-5.26,3.21-5.36
		C57.22,362.12,64.13,362.1,71.04,362.02z"/>
	<path class="st0" d="M72.14,328.47c8.93-5.33,17.57-11.25,26.86-15.86c14.4-7.14,28.37-4.11,41.62,3.87
		c2.68,1.62,5.3,3.34,7.94,5.02c0.08,1.62,0.16,3.25,0.23,4.87c-4.31-2.7-8.55-5.5-12.93-8.07c-13.31-7.81-26.88-7.1-40.32-0.55
		c-6.37,3.1-12.38,6.94-18.59,10.39c-1.56,0.87-3.23,1.53-4.85,2.28C72.11,329.77,72.12,329.12,72.14,328.47z"/>
	<path class="st4" d="M53.9,372.34c9.36-0.24,18.73-0.48,28.09-0.72c16.92,0.08,33.84,0.2,50.77,0.22
		c5.12,0.01,10.24-0.25,15.36-0.39c0,0-0.01,0.05-0.01,0.05c0.33,0.3,0.67,0.6,1,0.9l0-0.01c0.19,1.32,0.39,2.64,0.58,3.96
		c0.01,1,0.02,1.99,0.03,2.99c-0.23,0.07-0.44,0.19-0.62,0.36c-28.81-0.05-57.62-0.11-86.43-0.11c-0.87,0-1.75,0.55-2.62,0.84
		c0.07,0.37,0.15,0.74,0.22,1.11c29.62,0,59.23,0,88.85,0c-0.03,1.52-0.05,3.04-0.08,4.56c-29.51,0-59.02,0-88.53,0
		c0,0.5,0,0.99,0.01,1.49c29.73,0,59.46,0,89.19,0c-0.03,1.57-0.06,3.15-0.08,4.72c-29.79,0-59.58,0-89.37,0c0,0.68,0,1.36,0,2.03
		c29.8,0,59.61,0,89.42,0c0.05,1.37,0.11,2.74,0.16,4.11c-29.88,0-59.75,0-89.63,0c0,0.69,0.01,1.39,0.01,2.08
		c29.89,0,59.78,0,89.67,0c0.09,0.45,0.17,0.9,0.25,1.35c-0.08,0.86-0.15,1.72-0.23,2.57c-29.89,0-59.78,0-89.68,0
		c-0.01,0.75-0.02,1.49-0.02,2.24c2.37,0,4.74-0.01,7.11,0c27.45,0.08,54.9,0.16,82.36,0.24c0.18,1.33,0.37,2.65,0.55,3.98
		c-0.14,1.12-0.27,2.23-0.41,3.35c-21.24,0.07-42.49,0.14-63.73,0.21c-10.75-0.13-21.49-0.25-32.24-0.38
		C56.8,400.17,57.38,386.26,53.9,372.34z"/>
	<path class="st13" d="M86.07,414.46c21.24-0.07,42.49-0.14,63.73-0.21c-0.22,3.04-0.45,6.08-0.67,9.12
		c-10.02,0.05-20.04,0.1-30.05,0.14c-10.93-0.06-21.87-0.12-32.8-0.19C86.21,420.38,86.14,417.42,86.07,414.46z"/>
	<path class="st23" d="M140.03,295.49c-1.32-1.25-2.64-2.49-3.96-3.74c-0.62-15.25-3.15-30.11-9.02-44.29
		c1.66-1.35,3.31-2.71,4.97-4.06c0.86,3.55,1.72,7.1,2.57,10.65c0.34-0.06,0.68-0.13,1.02-0.19c-0.59-5.71-1.19-11.43-1.78-17.14
		c2-1.46,4.01-2.91,6.01-4.37C139.9,253.4,139.97,274.45,140.03,295.49z"/>
	<path class="st18" d="M275.95,76.47c6.1,13.23,9.41,27.19,10.81,41.64c0.18,1.8,0.05,3.63,0.07,5.45
		c-11.46-1.01-22.93-1.87-34.37-3.09c-6.52-0.69-12.97-1.96-19.46-2.97c-2.65-0.81-5.3-1.63-7.95-2.44
		c-8.33-3.57-17.39-5.99-23.34-13.55c-2.02-2.57-3.91-5.42-5.11-8.44c-2.21-5.57,0.03-8.48,6.08-8.64c1.16-0.03,2.32-0.11,3.48-0.17
		c1.96,0.08,3.92,0.17,5.88,0.26c0,0-0.01-0.06-0.01-0.06c0.41,0.34,0.81,0.68,1.22,1.02c1.09,0.21,2.18,0.42,3.56,0.69
		c0.16-6.6,1.89-12.31,6.53-16.85c8.96-8.76,19.43-8.68,29.88-4.04c5.27,2.34,9.47,3.84,13.85-0.84
		C270.03,68.44,272.99,72.45,275.95,76.47z"/>
	<path class="st0" d="M213.26,85.47c-0.41-0.34-0.81-0.68-1.22-1.02C212.44,84.79,212.85,85.13,213.26,85.47z"/>
	<path class="st27" d="M373.22,352.7c-3.25-1.7-6.35-3.86-9.79-4.99c-6.36-2.08-12.92-3.55-19.39-5.28
		c0.34-12.3,0.78-24.61,0.99-36.91c0.12-6.97-4.63-11.97-10.86-11.78c-16.12,0.5-32.24,1.2-48.36,1.54
		c-26.47,0.55-52.94,0.87-79.4,1.3c-9.32,0.15-13.29,4.19-13.3,13.53c-0.04,22.82-0.08,45.65-0.12,68.47c-1.5-2.36-3-4.72-4.49-7.08
		c2.93-3.75,3.16-7.62,0.52-11.62c3.07-2.98,3-6.54,1.56-10.13c-1.3-3.22-2.98-6.28-4.49-9.41c0.82-3.88-0.69-6.55-4.42-7.67
		c-7.01-2.1-14.11,1.74-16.23,8.7c-0.32,1.06,0.16,2.38-0.23,3.39c-0.21,0.55-1.47,0.7-2.26,1.03c-0.31-10.2-0.61-20.41-0.92-30.61
		c0.27-2.12,0.76-4.23,0.77-6.35c0.08-33.46,0.1-66.93,0.14-100.39c1.79,0.21,3.67,0.15,5.36,0.69c7.47,2.36,14.93,4.77,22.31,7.41
		c6.89,2.47,13.66,5.25,20.48,7.89c-1.66,4.26-4.45,8.43-4.77,12.79c-0.97,13.44,11.03,25.25,25.12,25.29
		c24.76,0.06,49.53-0.05,74.29-0.18c8.11-0.04,16.23-0.36,24.34-0.55c1.05,1.51,1.9,4.12,3.19,4.37c10.89,2.09,21,6.23,31.24,10.33
		c12.89,5.16,26.29,9.08,39.52,13.41c17.14,5.61,34.33,11.07,51.45,16.72"/>
	<path class="st27" d="M569.06,347.21c1.27,2.3,32.05,15.73,33.44,17.95c4.94,7.85,10.79,14.77,19.53,18.66
		c1.02,0.69,2.04,1.37,3.05,2.05c-1.33,0.48-2.65,0.96-4.56,1.66c2.3,4.24,4.39,8.08,6.49,11.93c2.71,5.26,5.73,10.38,8.04,15.8
		c3.48,8.19,8.74,12.83,18.14,10.86c1.03,4.18,2.06,8.37,3.09,12.55c-0.06,1.58-0.12,3.17-0.18,4.75
		c-7.82-1.99-15.72-3.7-23.43-6.03c-12.5-3.79-24.92-7.86-37.29-12.04c-13.81-4.66-27.49-9.71-41.31-14.34
		c-11.13-3.73-22.39-7.07-33.58-10.61c-5.19-1.64-10.36-3.34-15.54-5.01c-9.14,5.88-18.08,1.08-23.78,1.08
		c-15.57,0-12.47-12.79-28.04-12.6c-2.68-0.12-5.36-0.24-8.03-0.36c1.39-1.03,2.66-2.54,4.22-2.96c1.93-0.52,4.1-0.12,6.16-0.12
		c0.08-0.49,0.15-0.98,0.23-1.47c-7.97-2.84-15.85-6-23.95-8.42c-31.46-3.83-52.11-16.29-58.52-17.85
		c-0.95-0.23,79.02-47.16,82.24-46.09"/>
	<path class="st27" d="M455.46,306.6c5.29,0,73.61,25.2,76.93,26.72c2.91,1.34,6.32,1.55,9.43,2.5c7.07,2.17,14.16,4.29,21.09,6.85
		c2.3,0.85,4.12,2.99,6.15,4.54"/>
	<path class="st27" d="M687.19,467.19c-0.36-6.65-0.71-13.3-1.07-19.95c8.43,0.26,9.36-0.82,6.95-8.79c-2.49,0-5.13,0-7.76,0
		c0.26-1.03,0.51-2.07,0.77-3.1c1.63-0.01,3.41,0.39,4.83-0.15c1.23-0.47,2.05-2.01,3.05-3.07c-1.14-0.57-2.24-1.4-3.45-1.65
		c-1.41-0.29-2.92-0.07-4.39-0.08c-0.01-2.64-0.02-5.28-0.03-7.92c12.31-1.76,19.21-11.33,15.99-22.17
		c-0.05-1.19-0.11-2.38-0.16-3.58c3.35-3.82,6.01,1.39,9.12,0.69c-0.7,23.2-1.41,46.41-2.11,69.61
		C701.68,467.09,694.43,467.14,687.19,467.19z"/>
	<path class="st5" d="M687.19,467.19c7.25-0.05,14.49-0.09,21.74-0.14c1.09,0.08,2.19,0.16,3.28,0.25
		c0.03,10.37,0.05,20.74,0.08,31.11c-3.78,9.49-7.45,11.98-17.62,12c-3.15,0.01-6.3,0.04-9.45,0.06
		C685.88,496.04,686.53,481.62,687.19,467.19z"/>
	<path class="st10" d="M686.08,435.35c-0.26,1.03-0.51,2.07-0.77,3.1c-0.13,0.81-0.25,1.62-0.38,2.43
		c-9.71,1.25-19.29,0.91-28.66-2.21c-1.03-4.19-2.06-8.37-3.09-12.56c4.22-0.35,8.44-0.7,12.99-1.08c-0.42-3.06-0.8-5.8-1.17-8.54
		c7.03,2,14.07,3.99,21.1,5.99c0.01,2.64,0.02,5.28,0.03,7.92C686.11,432.05,686.09,433.7,686.08,435.35z"/>
	<path class="st20" d="M684.93,440.88c0.13-0.81,0.25-1.62,0.38-2.43c2.63,0,5.27,0,7.76,0c2.41,7.97,1.49,9.05-6.95,8.79
		C685.72,445.12,685.32,443,684.93,440.88z"/>
	<path class="st25" d="M685.22,510.47c3.15-0.02,6.3-0.06,9.45-0.06c10.16-0.02,13.83-2.52,17.62-12c0.51,0,1.02,0,1.53,0
		c-2.29,9.19-8.07,13.88-17.25,13.95c-3.81,0.03-7.62-0.06-11.43-0.1C685.17,511.65,685.19,511.06,685.22,510.47z"/>
	<path class="st0" d="M188,498.12c21.69,0.73,43.38,1.46,65.07,2.19c2,0.09,4,0.17,6,0.26c0.69,1.96,1.39,3.91,2.08,5.87
		c0.53,0.03,1.06,0.06,1.59,0.09c1.15-1.81,2.3-3.62,3.45-5.43c0.64,0.03,1.29,0.07,1.93,0.1c0.99,4.82,1.99,9.64,2.98,14.46
		c-1.68-0.06-3.35-0.12-5.03-0.17c-0.68-1.62-1.35-3.23-2.03-4.85c-1.22,1.11-2.49,2.19-3.65,3.37c-0.28,0.29-0.22,0.92-0.32,1.39
		c-2.66,0.01-5.32,0.03-7.98,0.04c-23.64-0.99-47.27-1.97-70.91-2.96"/>
	<path class="st0" d="M189.54,495.52c12.41,0.64,24.81,1.31,37.22,1.89c8.77,0.41,17.55,0.69,26.33,1.03c6,0.06,12,0.13,17.99,0.19
		c-0.68-3.91-1.36-7.82-2.04-11.73c-10.63-0.46-21.26-0.99-31.89-1.36c-13.64-0.48-27.28-0.85-40.92-1.26l-29.25-0.8l2.89,11.79
		L189.54,495.52"/>
	<path class="st18" d="M253.09,498.44c6,0.06,12,0.13,17.99,0.19c7.42,0.32,14.85,0.6,22.27,0.99c2.76,0.14,5.5,0.52,8.19,1.58
		c-11.15,0-22.29,0-33.44,0c-0.64-0.04-1.29-0.07-1.93-0.1c-2.37-0.18-4.74-0.36-7.11-0.53c-2-0.09-4-0.17-6-0.26
		C253.07,499.69,253.08,499.06,253.09,498.44z"/>
	<path class="st18" d="M252.09,515.43c2.66-0.01,5.32-0.03,7.98-0.04c2,0.03,3.99,0.06,5.99,0.09c1.68,0.06,3.35,0.11,5.03,0.17
		c7.74,0.32,15.48,0.6,23.22,0.98c2.04,0.1,4.06,0.5,6,1.74c-8.41,0-16.82,0-25.23,0c-7.67-0.37-15.34-0.73-23.01-1.1
		C252.08,516.66,252.08,516.05,252.09,515.43z"/>
	<path class="st10" d="M181.21,514.5c23.62,0.93,47.24,1.85,70.87,2.78c0.01-0.62,0.01-1.23,0.02-1.85
		c-23.64-0.99-47.27-1.97-70.91-2.96l-9.33-0.14l-56.92-2.07l-2.89-0.62l-99.63-3.32l-0.07,1.91l102.66,4.22L181.21,514.5z"/>
	<path class="st1" d="M165.93,467.33c-4.94,0-9.89,0-14.83,0c-0.03,5.01-0.06,10.03-0.09,15.04c5.64,0.37,11.28,0.74,16.92,1.1
		l28.31,0.8l6.03-16.83L165.93,467.33"/>
	<path class="st10" d="M188,498.12c21.69,0.73,43.38,1.46,65.07,2.19c0.01-0.62,0.02-1.24,0.03-1.87
		c-8.78-0.34-17.56-0.62-26.33-1.03c-12.41-0.58-24.82-1.26-37.22-1.89l-19.67-0.24c-20.62-0.93-41.23-1.87-61.85-2.8
		c-31.45-1.03-62.91-2.06-94.36-3.1c-0.02,0.55-0.04,1.1-0.07,1.65c0.78,0.15,1.56,0.42,2.34,0.45c19.92,0.72,39.85,1.35,59.77,2.12
		c11.45,0.45,22.88,1.12,34.32,1.69c1.83,0.01,3.65-0.02,5.48,0.04c18.23,0.6,36.46,1.23,54.69,1.84"/>
	<path class="st24" d="M713.82,498.4c-0.51,0-1.02,0-1.53,0c-0.03-10.37-0.05-20.74-0.08-31.11c-0.03-24.64-0.05-49.27-0.08-73.91
		c0.08-2.49,0.22-4.98,0.23-7.47c0.07-15.45,0.12-30.9,0.17-46.35c0.4-0.03,0.8-0.06,1.2-0.09c0.19,0.96,0.37,1.93,0.56,2.89
		c-0.05,30.72-0.12,61.44-0.15,92.15c-0.01,10.96,0.06,21.92,0.1,32.88C714.1,477.73,713.96,488.06,713.82,498.4z"/>
	<path class="st4" d="M783.02,228.36c-0.34,0.28-0.67,0.56-1.01,0.85c-10.02,0.58-17.4,6.53-24.6,12.52
		c-10.09,8.39-16.62,19.5-22.56,30.98c-0.49-3.69-1.85-7.51-1.3-11.04c1.87-12.07,4.41-24.04,6.7-36.04
		c5.31-3.87,10.62-7.75,15.93-11.62c3.94,0.99,7.88,1.98,11.82,2.97c3.68,1.8,7.35,3.6,11.03,5.39
		C780.35,224.37,781.68,226.37,783.02,228.36z"/>
	<path class="st15" d="M779.02,222.37c-3.68-1.8-7.35-3.6-11.03-5.4c1.65-7.56,3.3-15.13,4.95-22.69c0.98-0.42,1.96-0.84,2.94-1.26
		C776.93,202.81,777.98,212.59,779.02,222.37z"/>
	<path class="st0" d="M549.21,181.36c-2.59-5.11,1.17-9.36,1.9-14.03c1.35-2.97,2.7-5.94,4.06-8.9c1.57,0.76,3.46,1.18,4.65,2.34
		c16.53,16.05,33.24,31.93,49.31,48.43c9.1,9.34,17.35,19.56,25.51,29.77c2.91,3.64,5.97,5.49,10.43,5.46
		c2.52,3.69,5.05,7.37,7.56,11.07c1.51,2.22,2.99,4.47,4.48,6.7c-9.35-1.49-18.69-2.97-28.04-4.46c-0.63-0.46-1.2-1.14-1.91-1.36
		c-21.79-6.9-40.28-18.89-55.57-35.85C562.11,208.62,554.65,195.57,549.21,181.36z"/>
	<path class="st8" d="M657.1,262.2c-1.49-2.23-2.97-4.48-4.48-6.7c-2.51-3.7-5.04-7.38-7.56-11.07
		c15.83-6.33,31.64-12.71,47.49-18.98c12.95-5.13,25.94-10.15,38.91-15.2c0.91-0.35,1.9-0.52,2.84-0.77
		c-2.12,7.67-4.23,15.34-6.35,23.01c-0.25,0.2-0.38,0.45-0.39,0.75c-0.87,8.88-7.14,13.85-13.56,18.69
		C696.19,261.77,677.16,264.82,657.1,262.2z"/>
	<path class="st8" d="M740.25,225.63c-2.29,12.01-4.83,23.97-6.7,36.04c-0.55,3.53,0.81,7.35,1.3,11.04
		c0.48,2.86,0.95,5.72,1.43,8.59c0.35,1.43,0.7,2.86,1.05,4.29c0.43,3.93,0.86,7.86,1.3,11.78c-5.51,0.35-11.02,0.71-16.52,1.06
		c1.56-3.67,3.11-7.35,4.67-11.02c-6.53,2.5-7.09,8.36-9.23,13.27c-1.83-0.78-3.67-1.55-5.5-2.33c0.37-1.28,0.74-2.55,1.11-3.83
		c4.06-8.14,8.21-16.23,12.12-24.44c1.26-2.64,1.89-5.57,2.81-8.37c1.69-10.1,3.38-20.19,5.06-30.29c0,0-0.08,0.05-0.08,0.05
		c0.28-0.3,0.56-0.6,0.84-0.9c0.65-7.01,1.31-14.02,1.96-21.04c-3.95-3.37-7.73-6.97-11.87-10.08
		c-17.32-13.02-34.85-25.77-52.06-38.92c-3.5-2.67-5.97-6.68-8.92-10.08l0.1-0.09c19.02,13.21,38.18,26.23,57,39.72
		c6.81,4.88,12.81,10.88,19.18,16.36C739.6,212.85,739.92,219.24,740.25,225.63z"/>
	<path class="st25" d="M690.09,213.32c-0.12,1.06-0.1,1.34-0.16,1.36c-13.24,4.31-26.38,8.93-39.77,12.72
		c-5.14,1.45-9.49-1.85-13.19-5.6c-28.33-28.7-56.72-57.34-85.09-85.99c-1.52-1.54-3.22-2.95-4.51-4.66
		c-0.62-0.82-0.49-2.21-0.7-3.34c1,0.26,2.22,0.26,2.96,0.85c1.55,1.24,2.85,2.79,4.25,4.22c11.16,11.46,22.33,22.92,33.49,34.38
		c16.82,17.27,33.74,34.43,50.38,51.87c5.35,5.61,10.87,7.38,18.34,4.73c10.19-3.62,20.62-6.56,30.95-9.78
		C687.92,213.81,688.84,213.63,690.09,213.32z"/>
	<path class="st2" d="M740.25,225.63c-0.32-6.39-0.64-12.78-0.96-19.17c6.97-2.52,13.91-5.12,20.92-7.53
		c1.97-0.68,4.13-0.8,6.19-1.18c-3.41,5.42-6.81,10.84-10.22,16.25C750.86,217.88,745.56,221.76,740.25,225.63z"/>
	<path class="st13" d="M756.17,214.01c3.41-5.42,6.81-10.84,10.22-16.25c0,0-0.22-0.14-0.22-0.14c0.31-0.37,0.62-0.74,0.92-1.12
		c1.95-0.74,3.91-1.47,5.86-2.21c-1.65,7.56-3.3,15.12-4.95,22.69C764.05,215.99,760.11,215,756.17,214.01z"/>
	<path class="st2" d="M735.86,209.56c-0.65,7.01-1.31,14.02-1.96,21.04c-0.28,0.3-0.56,0.6-0.84,0.9c0,0,0.08-0.05,0.08-0.05
		c-1.73,0.35-3.45,0.69-5.18,1.04c2.12-7.67,4.23-15.34,6.35-23.01C734.83,209.5,735.35,209.53,735.86,209.56z"/>
	<path class="st2" d="M767.09,196.5c-0.31,0.37-0.61,0.74-0.92,1.12C766.47,197.24,766.78,196.87,767.09,196.5z"/>
	<path class="st8" d="M663.01,150.48c-0.13-0.16-0.25-0.31-0.38-0.47c0.16,0.12,0.31,0.25,0.47,0.37
		C663.11,150.38,663.01,150.48,663.01,150.48z"/>
	<path class="st1" d="M192.98,378.58c0.04-22.82,0.08-45.65,0.12-68.47c0.02-9.34,3.99-13.38,13.3-13.53
		c26.47-0.42,52.94-0.75,79.4-1.3c16.12-0.34,32.24-1.03,48.36-1.54c6.22-0.19,10.97,4.81,10.86,11.78
		c-0.21,12.31-0.65,24.61-0.99,36.91c-0.32,1.79-0.87,3.56-0.92,5.36c-0.44,16.45-0.67,32.9-1.22,49.35
		c-0.41,12.26-1.16,24.51-1.87,36.76c-0.25,4.38-3.96,8.04-8.36,8.55c-1.32,0.15-2.66,0.07-3.99,0.07
		c-40.43-0.07-80.87-0.14-121.3-0.23c-9.21-0.02-13.23-4.14-13.26-13.47c-0.02-7.49-0.06-14.97-0.09-22.46
		c1.69-3.32,3.37-6.64,5.06-9.97c0.01,10.16-0.05,20.33,0.07,30.49c0.09,7.37,4.26,11.48,11.47,11.49
		c38.82,0.05,77.63,0.09,116.45,0.11c6.52,0,9.04-1.94,10.53-8.24c0.41-1.75,0.38-3.62,0.45-5.44c0.67-16.58,1.38-33.16,1.95-49.74
		c0.75-21.92,1.48-43.84,2.03-65.77c0.17-6.82-4-10.9-10.85-10.82c-6.8,0.08-13.59,0.67-20.39,0.86
		c-14.79,0.41-29.59,0.72-44.38,1.02c-18.46,0.38-36.92,0.74-55.37,1.03c-8.65,0.14-11.9,3.36-11.91,12.19
		c-0.03,22.99-0.04,45.98-0.06,68.97c-1.35-0.89-2.69-1.78-4.04-2.67C193.67,379.45,193.33,379.01,192.98,378.58z"/>
	<path class="st28" d="M549.21,181.36c5.45,14.2,12.9,27.26,22.37,39.16c-4.82-0.02-9.63-0.01-14.45-0.05
		c-35.01-0.29-70.02-0.59-105.04-0.89c-24.34-0.4-48.69-0.8-73.03-1.2c1.87-5.2-2.32-5.64-5.28-5.78
		c-4.76-0.23-8.88-1.44-13.39-3.24c-15.27-6.09-30.95-11.14-46.53-16.44c-2.62-0.89-5.49-1.35-8.25-1.4
		c-2.98-0.05-4.22-1.37-4.55-4.05c19.29-0.35,38.58-0.63,57.87-1.08c25.58-0.59,51.16-1.31,76.75-1.98
		c12.79-0.33,25.58-0.72,38.37-0.98c12.94-0.27,25.89-0.3,38.82-0.65C524.99,182.45,537.1,181.85,549.21,181.36z"/>
	<path class="st29" d="M301.07,187.47c0.33,2.69,1.57,4.01,4.55,4.05c2.76,0.04,5.63,0.51,8.25,1.4
		c15.58,5.29,31.27,10.34,46.53,16.44c4.51,1.8,8.62,3,13.39,3.24c2.96,0.15,7.15,0.58,5.28,5.78c-20.4-0.27-40.81-0.64-61.21-0.78
		c-20.92-0.15-41.85-0.09-62.78-0.12c-6.29-0.06-12.67,0.52-18.85-0.32c-9.65-1.31-17.98,0.65-25.16,7.27
		c-6.82-2.64-13.6-5.42-20.48-7.89c-7.38-2.64-14.84-5.05-22.31-7.41c-1.69-0.53-3.57-0.47-5.36-0.69c1.39-4.35,2.78-8.7,4.17-13.05
		c0,0-0.06,0.06-0.06,0.06c5.48-3.92,11.59-5.09,18.27-4.94c12.28,0.27,24.57,0.13,36.85,0.03c1.67-0.01,3.34-0.74,5.01-1.14
		c18.87-0.33,37.74-0.62,56.6-1.02C289.54,188.25,295.3,187.78,301.07,187.47z"/>
	<path class="st12" d="M233.01,117.5c6.48,1.01,12.94,2.28,19.46,2.97c11.44,1.22,22.91,2.08,34.37,3.09
		c-0.59,16.63-1.19,33.26-1.78,49.89c-5.22,0.31-10.43,0.73-15.65,0.89c-4.79,0.14-9.59,0-14.38-0.01
		c-2.66-8.69-4.8-17.59-8.12-26.02C242.77,137.84,237.68,127.75,233.01,117.5z"/>
	<path class="st7" d="M162.01,315.18c0.31,10.2,0.61,20.41,0.92,30.61c-4.77-0.34-9.27,0.26-12.86,3.86
		c-0.36-3.99-0.81-7.97-1.04-11.97c-0.21-3.76-0.18-7.54-0.25-11.31c-0.08-1.62-0.16-3.25-0.23-4.87
		c-0.17-5.4-0.34-10.81-0.51-16.21c0.04-10.29,0.09-20.59,0.13-30.88c4.16,1,8.32,1.99,12.49,2.99c0.1,10.9,0.16,21.81,0.35,32.71
		C161.04,311.8,161.66,313.49,162.01,315.18z"/>
	<path class="st0" d="M233.01,117.5c4.67,10.25,9.77,20.34,13.89,30.81c3.32,8.43,5.46,17.33,8.12,26.02
		c-1.97,0.01-3.94,0.02-5.91,0.03c-4.73-21.1-14.53-40.14-24.05-59.3C227.71,115.87,230.36,116.68,233.01,117.5z"/>
	<path class="st24" d="M162.01,315.18c-0.35-1.69-0.98-3.38-1.01-5.07c-0.19-10.9-0.25-21.81-0.35-32.71
		c0.08-22.63,0.05-45.26,0.33-67.89c0.05-3.7,1.18-7.47,2.36-11.02c0.43-1.3,2.45-2.08,3.74-3.1c-1.39,4.35-2.78,8.7-4.17,13.05
		c-0.03,33.46-0.05,66.93-0.14,100.39C162.77,310.95,162.28,313.06,162.01,315.18z"/>
	<path class="st24" d="M227.16,189.4c-1.67,0.4-3.34,1.13-5.01,1.14c-12.28,0.1-24.57,0.24-36.85-0.03
		c-6.69-0.15-12.79,1.02-18.27,4.94c1.73-5.53,6.68-5.98,11.03-6.05C194.42,189.14,210.79,189.36,227.16,189.4z"/>
	<path class="st12" d="M737.32,285.59c-0.35-1.43-0.7-2.86-1.05-4.29c0.92-0.93,1.91-1.81,2.75-2.81
		c11.28-13.29,25.24-20.57,43.06-19.22c11.98,1.96,26.05,9.19,32.76,17.07c-8.2-3.77-15.99-7.35-23.78-10.93
		c-17.44-6.63-31.93-0.45-45.11,10.67C742.71,278.82,740.18,282.4,737.32,285.59z"/>
	<path class="st29" d="M600.18,347.26c-0.4-1.07-1.05-2.11-1.17-3.21c-0.74-6.75-4.43-11.94-10.89-14.9
		c0.85,2.01,2.8,4.37,2.24,5.66c3.64,4.16,14.63,26.69,12.9,31.53c-11.42,1.78-33.35-14.18-34.2-19.13
		c-2.04-1.55-3.86-3.69-6.15-4.54c-6.93-2.56-16.37-3.79-23.43-5.96c-3.11-0.95-81.1-28.78-84.01-30.11"/>
	<path class="st29" d="M455.46,306.6c-17.13-5.65-34.31-11.11-51.45-16.72c-13.22-4.33-26.62-8.24-39.52-13.41
		c-10.25-4.1-20.35-8.24-31.24-10.33c-1.3-0.25-2.14-2.86-3.19-4.37c12.68-0.18,25.35-0.35,38.03-0.53
		c15.27-0.23,30.54-0.58,45.81-0.68c26.44-0.17,52.87-0.14,79.31-0.28c8.29-0.04,16.57-0.34,24.85-0.52
		c1.44,1.29,2.67,3.21,4.35,3.77c15.71,5.22,31.55,10.05,47.26,15.28c28.76,9.57,57.47,19.31,86.15,29.12
		c1.32,0.45,2.18,2.29,3.25,3.48c0.33,2.7,0.66,5.4,1,8.1c0,0.95,0,1.9,0,2.85c-0.33,1.56-0.66,3.12-1.04,4.85
		c12.08,0,23.27,0,34.77,0c0-1.78,0-3.22,0-4.66c5.69,1.29,11.39,2.59,17.08,3.88c0.34,1,0.68,2.01,1.02,3.01
		c0.11,1.85,0.21,3.7,0.32,5.55c0.1,1.53,0.2,3.05,0.31,4.57c-0.06,15.45-0.1,30.9-0.17,46.35c-0.01,2.49-0.15,4.98-0.23,7.47
		c-0.36,1.35-0.72,2.7-1.08,4.05c-3.11,0.69-5.77-4.51-9.12-0.69c-2.66-4.07-5.32-8.14-7.98-12.21c0.42-10.08,0.42-10.08-9.52-10.11
		c-1.15,0-2.3,0.08-3.45,0.13c-3.61-0.47-7.22-0.95-10.82-1.42c-0.25-0.89-0.51-1.78-0.77-2.67c6.82-0.02,13.64,0.08,20.45-0.16
		c1.4-0.05,2.75-1.36,4.13-2.09c-1.31-0.61-2.61-1.72-3.94-1.75c-7.31-0.17-14.63-0.07-21.95-0.07c-0.43-1.22-0.85-2.44-1.28-3.66
		c9.05-0.15,18.1-0.3,27.15-0.45c0-0.9,0-1.81,0-2.71c-9.53-0.03-19.05-0.06-28.58-0.1c-0.14-0.35-0.29-0.69-0.43-1.04
		c0.63-0.45,1.27-0.9,1.9-1.35c6.63,0.08,13.26,0.21,19.89,0.24c7.65,0.04,7.68-0.02,7.36-7.83c-0.04-0.93-0.36-1.86-0.65-3.23
		c-6.78,0-13.4,0-20.01,0c-0.09-1.26-0.19-2.52-0.28-3.78c5.49-0.05,10.99-0.17,16.48-0.13c4.2,0.04,5.27-1.75,3.8-5.56
		c-9.38,0-18.51,0-27.64,0c-0.61-0.78-1.21-1.57-1.82-2.35c3.69-0.06,7.39-0.12,11.08-0.18c5.31,0.05,10.61,0.22,15.91,0.05
		c1.03-0.03,2.02-1.39,3.03-2.14c-0.99-0.6-1.97-1.69-2.98-1.72c-5.3-0.16-10.61-0.05-15.92-0.03c-4.33-0.03-8.66-0.01-12.99-0.12
		c-2.46-0.06-3.39,0.92-2.76,3.32c-1.42,1.93-2.77,2.78-5.22,1.04c-0.73-0.52-4.26,1.07-4.27,1.71c-0.02,2.49,0.86,4.98,1.41,7.48
		c-1.34,3.55-2.97,7.02-3.93,10.67c-0.86,3.26-0.45,6.24,3.95,7.08c1.09,0.21,2.29,1.94,2.69,3.21c0.64,2.01,0.66,4.22,0.94,6.35
		c-1.95,0.1-3.9,0.2-5.85,0.3c-6.63-0.89-13.27-1.78-19.9-2.67"/>
	<path class="st25" d="M717.54,300.69c2.13-4.92,2.69-10.77,9.23-13.27c-1.56,3.67-3.11,7.35-4.67,11.02
		c-4.63,9.92-4.45,20.42-3.74,30.99c1.48,9.24,2.96,18.47,4.44,27.71c-0.39,0.09-0.77,0.18-1.16,0.27
		c-1.92-9.33-3.85-18.65-5.77-27.98C715.08,319.77,714.66,310.14,717.54,300.69z"/>
	<path class="st0" d="M717.54,300.69c-2.87,9.44-2.46,19.08-1.67,28.73c-1.32,0.01-2.64,0.01-3.97,0.02c-0.34-1-0.68-2.01-1.02-3.01
		c-0.07-0.81-0.14-1.63-0.22-2.44c-0.83-8.61-2.21-17.25,1.37-25.63C713.87,299.14,715.7,299.92,717.54,300.69z"/>
	<path class="st6" d="M725.79,329.42c0.04-7.61,0.05-15.23,0.17-22.84c0.01-0.41,0.89-0.8,2.79-2.41c0,8.66,0,15.97,0,23.28
		c-0.02,3.98-0.04,7.97-0.06,11.95c-0.78,0.02-1.56,0.05-2.34,0.07C726.16,336.13,725.98,332.78,725.79,329.42z"/>
	<path class="st25" d="M726.35,339.48c0.78-0.02,1.56-0.05,2.34-0.07c-0.09,6.34-0.19,12.67-0.28,19.01
		c-0.43,0.02-0.87,0.04-1.3,0.05c-0.14-4.09-0.28-8.17-0.41-12.26c-0.01-0.88-0.02-1.76-0.03-2.65
		C726.56,342.21,726.45,340.84,726.35,339.48z"/>
	<path class="st25" d="M712.53,339.57c-0.1-1.52-0.21-3.05-0.31-4.57c0.5,1.49,1.01,2.99,1.51,4.48
		C713.33,339.51,712.93,339.54,712.53,339.57z"/>
	<path class="st6" d="M726.66,343.57c0.01,0.88,0.02,1.77,0.03,2.65C726.68,345.33,726.67,344.45,726.66,343.57z"/>
	<path class="st6" d="M727.11,358.47c0.43-0.02,0.87-0.04,1.3-0.05c-0.22,0.29-0.43,0.58-0.65,0.88
		C727.54,359.02,727.33,358.75,727.11,358.47z"/>
	<path class="st22" d="M413.67,158.45c-7.21-2.68-14.6-4.99-21.55-8.23c-2.52-1.18-4.54-4.33-5.85-7.03
		c-1.92-3.95,0.46-6.82,4.66-5.47c4.54,1.47,6.03,0,7.35-4.17c2.35-7.4,10.37-9.89,19.11-6.41c1.69,0.67,3.68,1.15,4.89,2.35
		c1.27,1.26,2.73,3.47,2.45,4.95c-1.17,6.13-3.21,12.1-4.46,18.22C419.51,156.4,417.59,157.74,413.67,158.45z"/>
	<path class="st3" d="M151.1,467.34c-0.03,5.01-0.06,10.03-0.09,15.04c-12.29-0.34-24.58-0.67-36.88-1.01
		c-0.04-15.26-0.08-30.52-0.13-45.78c1.69-4.02,3.38-8.04,5.08-12.07c10.02-0.05,20.04-0.09,30.05-0.14c0.33,1.7,0.9,3.4,0.95,5.11
		C150.48,441.43,150.77,454.39,151.1,467.34z"/>
	<path class="st23" d="M782.09,259.27c-17.82-1.35-31.77,5.93-43.06,19.22c-0.85,1-1.83,1.87-2.75,2.81
		c-0.48-2.86-0.95-5.72-1.43-8.58c5.94-11.48,12.47-22.59,22.56-30.98c7.2-5.99,14.58-11.94,24.6-12.52
		C782.03,239.23,782.06,249.25,782.09,259.27z"/>
	<path class="st13" d="M144.84,362.25c1.09,3.07,2.18,6.14,3.27,9.21c-5.12,0.14-10.24,0.39-15.36,0.39
		c-16.92-0.02-33.84-0.14-50.77-0.22c0.07-3.05,0.14-6.1,0.2-9.15c9.8-0.12,19.59-0.23,29.38-0.35
		C122.66,362.16,133.75,362.21,144.84,362.25z"/>
	<path class="st22" d="M144.84,362.25c-11.09-0.04-22.18-0.09-33.27-0.13c11.02-3.31,22.21-5.38,33.79-4.63
		C145.19,359.08,145.01,360.66,144.84,362.25z"/>
	<path class="st7" d="M151.1,467.34c-0.32-12.95-0.62-25.9-1.01-38.85c-0.05-1.71-0.62-3.4-0.95-5.11c0.22-3.04,0.45-6.08,0.67-9.12
		c0.14-1.12,0.27-2.23,0.41-3.35c3.22,5.35,8.64,7.37,14.1,9.3c-7.93,11.82-3.07,23.95-0.83,36c0.7,3.73,1.62,7.42,2.44,11.12
		C160.99,467.34,156.04,467.34,151.1,467.34z"/>
	<path class="st6" d="M149.66,394.33c-29.8,0-59.61,0-89.41,0c0-0.68,0-1.36,0-2.03c29.79,0,59.58,0,89.38,0
		C149.63,392.97,149.65,393.65,149.66,394.33z"/>
	<path class="st6" d="M149.9,404.44c-0.08,0.83-0.15,1.66-0.23,2.48c-27.45-0.08-54.9-0.16-82.36-0.24c-2.37-0.01-4.74,0-7.11,0
		c0.01-0.75,0.02-1.49,0.02-2.24C90.11,404.44,120.01,404.44,149.9,404.44z"/>
	<path class="st25" d="M149.87,400.52c-29.89,0-59.78,0-89.67,0c0-0.69-0.01-1.39-0.01-2.08c29.88,0,59.75,0,89.63,0
		C149.84,399.13,149.86,399.82,149.87,400.52z"/>
	<path class="st25" d="M149.11,381.53c-29.62,0-59.23,0-88.85,0c-0.07-0.37-0.15-0.74-0.22-1.11c0.87-0.29,1.75-0.84,2.62-0.84
		c28.81,0,57.62,0.06,86.42,0.11C149.09,380.3,149.1,380.91,149.11,381.53z"/>
	<path class="st24" d="M149.7,387.57c-29.73,0-59.46,0-89.19,0c0-0.5,0-0.99-0.01-1.49c29.51,0,59.02,0,88.53,0
		C149.25,386.58,149.48,387.07,149.7,387.57z"/>
	<path class="st7" d="M149.7,387.57c-0.22-0.5-0.45-0.99-0.67-1.49c0.03-1.52,0.05-3.04,0.08-4.56c-0.01-0.61-0.02-1.23-0.03-1.84
		c0.18-0.16,0.39-0.28,0.63-0.36c2.86,2.29,5.72,4.59,8.59,6.89c-2.72,5.22-5.44,10.43-8.17,15.65c-0.08-0.45-0.17-0.9-0.25-1.35
		c-0.02-0.69-0.04-1.39-0.05-2.08c-0.05-1.37-0.11-2.74-0.16-4.11c-0.01-0.68-0.03-1.36-0.04-2.03
		C149.65,390.72,149.67,389.15,149.7,387.57z"/>
	<path class="st18" d="M149.11,372.38c5.45,0.55,0.19,2.67,0.58,3.96C149.49,375.02,149.3,373.7,149.11,372.38z"/>
	<path class="st18" d="M148.11,371.5c0.33,0.3,0.67,0.6,1,0.9C148.77,372.1,148.44,371.8,148.11,371.5z"/>
	<path class="st20" d="M368.08,261.24c-12.68,0.17-25.35,0.35-38.03,0.53c-8.11,0.19-16.23,0.51-24.34,0.55
		c-24.76,0.13-49.53,0.24-74.29,0.18c-14.09-0.03-26.09-11.84-25.12-25.29c0.31-4.35,3.11-8.53,4.77-12.79
		c7.18-6.62,15.5-8.57,25.16-7.27c6.19,0.84,12.56,0.26,18.85,0.32c-0.43,1.88-1.4,3.77,1.57,4.71c8.27,2.62,16.46,5.48,24.72,8.12
		c5.14,1.64,10.43,2.86,15.53,4.62c12.68,4.38,25.25,9.07,37.93,13.44c9.91,3.42,19.94,6.5,29.86,9.9
		C366,258.73,366.96,260.23,368.08,261.24z"/>
	<path class="st10" d="M629.14,368.82c6.63,0.89,13.27,1.78,19.9,2.67c0.64,1.12,1.08,2.44,1.95,3.33
		c8.17,8.26,16.25,16.61,24.71,24.56c3.38,3.18,7.62,5.44,11.47,8.12c-0.43,3.82-3.13,5.88-6.4,5.64
		c-6.13-0.45-13.09,0.48-16.57-6.93c-0.52-1.11-2.69-1.44-4.09-2.13c-0.83-3.85-1.78-7.67-2.47-11.54
		c-0.58-3.25-2.44-4.04-5.54-4.25c-9.02-0.6-18.02-1.58-27.02-2.41c-1.02-0.69-2.04-1.37-3.05-2.06
		C624.4,378.81,626.77,373.82,629.14,368.82z"/>
	<path class="st0" d="M664.99,416.49c0.38,2.74,0.75,5.49,1.17,8.54c-4.55,0.38-8.77,0.73-12.99,1.08
		c-9.4,1.98-14.65-2.67-18.14-10.86c-2.31-5.43-5.34-10.54-8.04-15.8c3.51-0.07,7.02-0.14,10.53-0.21c1.7,0.31,3.39,0.63,5.09,0.94
		c3.24,1.91,6.47,3.82,9.71,5.74c0.7,7.04,6.42,8.38,11.65,10.28c0.35,0.1,0.7,0.19,1.05,0.29L664.99,416.49z"/>
	<path class="st13" d="M629.14,368.82c-2.37,5-4.75,10-7.12,15c-8.74-3.88-14.59-10.8-19.53-18.65c-1.4-2.22-2.56-4.59-3.83-6.88
		c-1.24-3.7-2.48-7.39-3.71-11.09c-3.45-3.39-7.13-6.49-4.59-12.37c0.55-1.29-1.39-3.65-2.24-5.66c6.46,2.96,10.16,8.15,10.89,14.9
		c0.12,1.1,0.77,2.14,1.17,3.21c3.14,3.76,6.27,7.53,9.41,11.29C616.11,361.97,622.63,365.39,629.14,368.82z"/>
	<path class="st14" d="M652.33,405.92c-3.24-1.91-6.47-3.82-9.71-5.73c0.84-2.37,1.23-4.94-2.02-5.23
		c-0.89-0.08-2.04,2.78-3.07,4.29c-3.51,0.07-7.02,0.14-10.53,0.21c-2.09-3.84-4.18-7.69-6.49-11.93c1.91-0.7,3.23-1.18,4.56-1.66
		c9.01,0.83,18.01,1.82,27.03,2.41c3.1,0.2,4.96,0.99,5.54,4.25c0.68,3.87,1.63,7.7,2.47,11.54
		C657.51,404.69,654.92,405.3,652.33,405.92z M651.15,391.06c0.02-0.51,0.04-1.02,0.06-1.53c-7.5-0.36-15-0.72-22.5-1.08
		c-0.03,0.54-0.05,1.08-0.08,1.63C636.14,390.4,643.65,390.73,651.15,391.06z"/>
	<path class="st13" d="M652.33,405.92c2.59-0.62,5.18-1.23,7.78-1.85c1.41,0.69,3.58,1.02,4.1,2.13c3.49,7.41,10.44,6.48,16.57,6.93
		c3.27,0.24,5.97-1.82,6.4-5.64c1.63-1.73,3.27-3.45,4.9-5.18c3.33-0.67,6.67-1.33,10-2c3.22,10.83-3.68,20.4-15.99,22.16
		c-7.03-2-14.07-3.99-21.1-5.99c0,0,0.04,0,0.04,0c-0.35-0.1-0.7-0.19-1.05-0.29C658.75,414.31,653.03,412.96,652.33,405.92z"/>
	<path class="st3" d="M702.08,400.31c-3.33,0.67-6.67,1.33-10,2c-0.89-1.67-1.43-3.69-2.72-4.96c-6.1-6.03-12.47-11.78-18.57-17.8
		c-1.28-1.27-1.83-3.28-2.72-4.95c0.69-0.49,1.37-0.99,2.06-1.48c3.61,0.47,7.22,0.95,10.82,1.42c4.33,3.33,8.65,6.66,12.98,9.99
		c2.66,4.07,5.32,8.14,7.98,12.21C701.97,397.93,702.03,399.12,702.08,400.31z"/>
	<path class="st21" d="M711.04,397.43c0.36-1.35,0.72-2.7,1.08-4.05c0.03,24.64,0.05,49.27,0.08,73.91
		c-1.09-0.08-2.19-0.16-3.28-0.25C709.63,443.84,710.33,420.64,711.04,397.43z"/>
	<path class="st20" d="M686.08,435.35c0.02-1.65,0.03-3.3,0.05-4.95c1.47,0,2.98-0.21,4.39,0.08c1.21,0.25,2.3,1.08,3.45,1.65
		c-1,1.07-1.82,2.61-3.05,3.07C689.49,435.75,687.7,435.34,686.08,435.35z"/>
	<path class="st14" d="M259.06,500.57c2.37,0.18,4.74,0.36,7.11,0.53c-1.15,1.81-2.3,3.62-3.45,5.43c-0.53-0.03-1.06-0.06-1.59-0.09
		C260.45,504.48,259.75,502.52,259.06,500.57z"/>
	<path class="st14" d="M266.06,515.48c-2-0.03-3.99-0.06-5.99-0.09c0.1-0.47,0.03-1.1,0.32-1.39c1.16-1.18,2.42-2.25,3.65-3.37
		C264.71,512.25,265.38,513.87,266.06,515.48z"/>
	<path class="st28" d="M712.04,298.37c-3.58,8.38-2.2,17.02-1.37,25.63c0.08,0.81,0.14,1.63,0.22,2.44
		c-5.69-1.29-11.39-2.59-17.08-3.88c-11.25-0.06-22.49-0.13-33.74-0.19c0-0.95,0-1.9,0-2.85c5.32-0.09,10.63-0.19,15.95-0.28
		c3.99,0.06,7.99,0.16,11.98,0.16c6.35,0,6.85-0.71,5.31-8.03c-5.32,0-10.77,0-16.22,0c-6.01,0.02-12.02,0.03-18.02,0.05
		c-1.07-1.19-1.92-3.03-3.25-3.48c-28.68-9.81-57.39-19.55-86.15-29.12c-15.71-5.23-31.55-10.06-47.26-15.28
		c-1.68-0.56-2.91-2.48-4.35-3.77c13.01-0.2,26.02-0.39,39.04-0.58c23.38-0.26,46.77-0.51,70.15-0.8c0.61-0.01,1.21-0.43,1.82-0.66
		c9.35,1.49,18.69,2.97,28.04,4.46c20.06,2.62,39.1-0.43,56.91-10.27c-0.29,14.21-0.57,28.41-0.86,42.61
		C712.78,295.82,712.41,297.09,712.04,298.37z M676.99,281.76c-5.86,0-11.73,0-17.5,0c-1.29,10.78-1.29,10.78,8.62,10.73
		c1.98-0.01,3.96-0.05,5.94-0.08c3.81,0.02,7.61,0.07,11.42,0.07c9.27,0,9.27-0.01,8.48-9.27c-0.04-0.44-0.41-0.86-0.7-1.45
		C687.84,281.76,682.42,281.76,676.99,281.76z M676.7,301.54c0-0.02,0-0.04,0-0.06c-4.33,0-8.66-0.08-12.99,0.03
		c-1.94,0.05-5.1-0.89-4.44,2.65c0.23,1.27,2.84,2.97,4.37,2.98c9.13,0.02,18.27-0.32,27.4-0.76c1.02-0.05,1.98-1.5,2.97-2.3
		c-1.11-0.85-2.17-2.37-3.33-2.44C686.04,301.38,681.36,301.54,676.7,301.54z M676.32,299.43c0-0.02,0-0.04,0-0.07
		c4.8,0,9.61,0.12,14.4-0.09c1.1-0.05,2.14-1.28,3.21-1.97c-0.94-0.64-1.88-1.82-2.83-1.83c-9.77-0.16-19.54-0.19-29.3-0.08
		c-0.89,0.01-1.76,1.32-2.64,2.02c0.92,0.67,1.82,1.88,2.77,1.92C666.71,299.54,671.51,299.43,676.32,299.43z"/>
	<path class="st5" d="M629.06,257.74c-0.6,0.23-1.21,0.65-1.82,0.66c-23.38,0.29-46.77,0.54-70.15,0.8c-1.01-1.2-1.8-3.06-3.08-3.51
		c-10.57-3.72-21.23-7.19-31.87-10.72c-22.69-7.53-45.4-15.02-68.05-22.65c-0.87-0.29-1.34-1.8-1.99-2.74
		c35.01,0.3,70.02,0.6,105.04,0.89c4.81,0.04,9.63,0.03,14.45,0.05c15.3,16.96,33.78,28.96,55.57,35.85
		C627.86,256.6,628.43,257.27,629.06,257.74z"/>
	<path class="st21" d="M713.14,294.54c0.29-14.2,0.57-28.41,0.86-42.61c6.43-4.85,12.69-9.82,13.56-18.69
		c0.18,1.78,0.51,3.56,0.52,5.33c0.05,7.72,0,15.44-0.01,23.17c-0.92,2.8-1.55,5.73-2.81,8.37
		C721.35,278.31,717.2,286.4,713.14,294.54z"/>
	<path class="st4" d="M728.08,261.74c0.01-7.72,0.06-15.45,0.01-23.17c-0.01-1.78-0.34-3.55-0.52-5.33c0.01-0.31,0.14-0.56,0.4-0.75
		c1.73-0.34,3.45-0.69,5.18-1.03C731.45,241.54,729.76,251.64,728.08,261.74z"/>
	<path class="st4" d="M733.06,231.5c0.28-0.3,0.56-0.6,0.84-0.9C733.62,230.89,733.34,231.19,733.06,231.5z"/>
	<path class="st16" d="M198.06,382.55c0.02-22.99,0.03-45.98,0.06-68.97c0.01-8.83,3.26-12.05,11.91-12.19
		c18.46-0.3,36.92-0.66,55.37-1.03c14.79-0.3,29.59-0.62,44.38-1.02c6.8-0.19,13.59-0.78,20.39-0.86c6.85-0.08,11.02,4,10.85,10.82
		c-0.56,21.93-1.28,43.85-2.03,65.77c-0.57,16.58-1.28,33.16-1.95,49.74c-0.07,1.82-0.04,3.69-0.45,5.44
		c-1.49,6.3-4.01,8.25-10.53,8.24c-38.82-0.02-77.63-0.06-116.45-0.11c-7.21-0.01-11.38-4.12-11.47-11.49
		c-0.12-10.16-0.05-20.32-0.07-30.49c0,0,0.07,0.04,0.07,0.04 M267.92,421.52c0,0.01,0,0.02,0,0.02c7.66,0,15.34-0.29,22.98,0.06
		c18.63,0.85,20.77-3.55,25.61-18.99c3.47-11.08-2.56-18.32-10.33-20.9c-25.42-8.44-50.71-7.04-75.76,1.62
		c-6.36,2.2-10.81,8.11-9.96,14.06c0.83,5.84,2.46,11.77,4.94,17.11c2.11,4.53,6.26,7.29,12.04,7.11
		C247.6,421.29,257.76,421.52,267.92,421.52z M269.14,315.27c-14.67,0.01-25.15,9.95-25.11,23.84c0.04,14.75,12.17,28.9,24.92,29.07
		c12.96,0.17,25.24-13.97,25.26-29.09C294.25,324.91,284.08,315.26,269.14,315.27z"/>
	<path class="st19" d="M171.34,412.32c-2.4,1.77-4.84,2.81-7.49,0.45c-0.32-5.46-0.64-10.92-0.97-16.38c2-2.03,4-4.07,5.99-6.1
		C169.7,397.63,170.52,404.97,171.34,412.32z"/>
	<path class="st1" d="M452.09,219.58c0.66,0.94,1.12,2.44,1.99,2.74c22.66,7.63,45.36,15.12,68.05,22.65
		c10.64,3.53,21.3,7,31.87,10.72c1.28,0.45,2.06,2.31,3.08,3.51c-13.01,0.19-26.02,0.38-39.04,0.58
		c-8.28,0.18-16.57,0.48-24.85,0.52c-26.44,0.13-52.87,0.11-79.31,0.28c-15.27,0.1-30.54,0.44-45.81,0.68
		c-1.13-1.02-2.09-2.52-3.41-2.97c-9.92-3.41-19.95-6.48-29.86-9.9c-12.68-4.38-25.25-9.06-37.93-13.44
		c-5.1-1.76-10.38-2.98-15.53-4.62c-8.26-2.64-16.45-5.5-24.72-8.12c-2.97-0.94-2-2.83-1.57-4.71c20.93,0.03,41.85-0.03,62.78,0.12
		c20.4,0.15,40.81,0.51,61.21,0.78C403.41,218.78,427.75,219.18,452.09,219.58z"/>
	<path class="st9" d="M668.07,374.6c0.89,1.67,1.43,3.68,2.72,4.95c6.1,6.02,12.47,11.77,18.57,17.8c1.28,1.27,1.83,3.29,2.72,4.96
		c-1.63,1.73-3.27,3.45-4.9,5.18c-3.85-2.68-8.09-4.94-11.47-8.12c-8.46-7.95-16.54-16.3-24.71-24.56
		c-0.88-0.89-1.31-2.21-1.95-3.33c1.95-0.1,3.9-0.2,5.85-0.3C658.5,375.36,663.05,375.9,668.07,374.6z"/>
	<path class="st13" d="M668.07,374.6c-5.03,1.3-9.57,0.75-13.18-3.42c-0.28-2.13-0.3-4.34-0.94-6.35c-0.41-1.27-1.6-3-2.69-3.21
		c-4.39-0.84-4.8-3.82-3.95-7.08c0.96-3.65,2.59-7.12,3.93-10.67c3.83,1.35,7.67,2.7,11.5,4.04c-0.34,0.3-0.68,0.6-1.02,0.9
		c1,1.69,2.01,3.37,3.06,5.14c-1.11,1.27-2.53,2.87-3.94,4.48c0.26,0.25,0.51,0.49,0.77,0.74c1.1-0.25,2.2-0.5,3.3-0.75
		c0.14,0.35,0.29,0.69,0.43,1.04c0.48,1.08,0.96,2.17,1.43,3.25c0.43,1.22,0.85,2.44,1.28,3.66c0.44,1.36,0.88,2.72,1.31,4.07
		c0.26,0.89,0.51,1.78,0.77,2.67C669.45,373.61,668.76,374.11,668.07,374.6z"/>
	<path class="st8" d="M664.91,358.41c-1.1,0.25-2.2,0.5-3.3,0.75c-0.26-0.25-0.51-0.49-0.77-0.74c1.41-1.61,2.83-3.21,3.94-4.48
		c-1.05-1.77-2.06-3.46-3.06-5.14c0.34-0.3,0.68-0.6,1.02-0.9c-3.83-1.35-7.67-2.7-11.5-4.04c-0.55-2.49-1.43-4.99-1.41-7.48
		c0.01-0.64,3.54-2.23,4.27-1.71c2.45,1.74,3.8,0.88,5.22-1.05c1.54,0.27,3.07,0.54,4.61,0.81c0.61,0.78,1.21,1.57,1.82,2.35
		c2.46,1.89,4.91,3.79,7.37,5.68c0.09,1.26,0.19,2.52,0.28,3.78c2.18,4.75,1.03,7.8-4.35,8.94c-0.84,0.18-1.5,1.22-2.24,1.87
		C666.18,357.51,665.54,357.96,664.91,358.41z"/>
	<path class="st20" d="M666.81,357.06c0.74-0.64,1.4-1.69,2.24-1.87c5.38-1.15,6.53-4.2,4.35-8.94c6.61,0,13.23,0,20.01,0
		c0.28,1.37,0.61,2.3,0.65,3.23c0.32,7.8,0.29,7.86-7.36,7.83C680.07,357.27,673.44,357.14,666.81,357.06z"/>
	<path class="st1" d="M660.06,322.36c11.25,0.06,22.49,0.13,33.74,0.19c0,1.44,0,2.88,0,4.66c-11.51,0-22.69,0-34.77,0
		C659.4,325.48,659.73,323.92,660.06,322.36z"/>
	<path class="st20" d="M673.12,342.46c-2.46-1.89-4.91-3.79-7.37-5.68c9.13,0,18.26,0,27.64,0c1.47,3.81,0.4,5.59-3.8,5.56
		C684.11,342.29,678.61,342.41,673.12,342.46z"/>
	<path class="st5" d="M659.06,311.42c6.01-0.02,12.02-0.03,18.02-0.05c-0.36,2.62-0.72,5.24-1.07,7.86
		c-5.32,0.09-10.63,0.19-15.95,0.28C659.73,316.82,659.4,314.12,659.06,311.42z"/>
	<path class="st20" d="M669.37,370.45c-0.44-1.36-0.88-2.72-1.31-4.07c7.32-0.01,14.64-0.1,21.95,0.07
		c1.33,0.03,2.63,1.14,3.94,1.75c-1.37,0.73-2.73,2.05-4.13,2.09C683.01,370.53,676.19,370.43,669.37,370.45z"/>
	<path class="st20" d="M666.78,362.71c-0.48-1.09-0.96-2.17-1.43-3.25c9.53,0.03,19.05,0.06,28.58,0.1c0,0.9,0,1.81,0,2.71
		C684.88,362.41,675.83,362.56,666.78,362.71z"/>
	<path class="st20" d="M675.07,330.42c5.31-0.02,10.62-0.13,15.92,0.03c1.01,0.03,1.98,1.12,2.98,1.72c-1.01,0.75-2,2.1-3.03,2.14
		c-5.3,0.17-10.61,0-15.91-0.05C675.04,332.98,675.05,331.7,675.07,330.42z"/>
	<path class="st5" d="M675.07,330.42c-0.02,1.28-0.03,2.56-0.05,3.83c-3.69,0.06-7.39,0.12-11.08,0.18
		c-1.54-0.27-3.07-0.54-4.61-0.81c-0.64-2.4,0.3-3.38,2.76-3.32C666.41,330.41,670.74,330.39,675.07,330.42z"/>
	<path class="st20" d="M693.94,384.53c-4.33-3.33-8.65-6.66-12.98-9.99c1.15-0.04,2.3-0.13,3.45-0.13
		C694.35,374.45,694.35,374.45,693.94,384.53z"/>
	<path class="st7" d="M162.89,396.38c0.32,5.46,0.64,10.92,0.97,16.38C157.33,408.88,157.01,403.46,162.89,396.38z"/>
	<path class="st16" d="M637.53,399.24c1.03-1.51,2.18-4.37,3.07-4.29c3.25,0.29,2.86,2.86,2.02,5.23
		C640.92,399.87,639.22,399.56,637.53,399.24z"/>
	<path class="st10" d="M663.98,416.2c0.35,0.1,0.7,0.19,1.05,0.29C664.69,416.39,664.33,416.29,663.98,416.2z"/>
	<path class="st23" d="M651.15,391.06c-7.51-0.33-15.01-0.66-22.52-0.99c0.03-0.54,0.05-1.08,0.08-1.63c7.5,0.36,15,0.72,22.5,1.08
		C651.19,390.04,651.17,390.55,651.15,391.06z"/>
	<path class="st20" d="M676.99,281.76c5.43,0,10.85,0,16.27,0c0.29,0.59,0.66,1.01,0.7,1.45c0.79,9.26,0.78,9.27-8.48,9.27
		c-3.81,0-7.61-0.04-11.42-0.07C675.04,288.87,676.01,285.32,676.99,281.76z"/>
	<path class="st1" d="M676.7,301.54c4.66,0,9.34-0.16,13.98,0.12c1.15,0.07,2.22,1.58,3.33,2.44c-0.99,0.8-1.94,2.25-2.97,2.3
		c-9.13,0.44-18.27,0.78-27.4,0.76c-1.53,0-4.14-1.71-4.37-2.98c-0.66-3.55,2.5-2.6,4.44-2.65c4.33-0.11,8.66-0.03,12.99-0.03
		C676.7,301.5,676.7,301.52,676.7,301.54z"/>
	<path class="st5" d="M676.99,281.76c-0.98,3.55-1.95,7.1-2.93,10.66c-1.98,0.03-3.96,0.07-5.94,0.08
		c-9.91,0.05-9.91,0.04-8.62-10.73C665.26,281.76,671.13,281.76,676.99,281.76z"/>
	<path class="st1" d="M676.32,299.43c-4.8,0-9.61,0.11-14.4-0.09c-0.95-0.04-1.85-1.25-2.77-1.92c0.88-0.7,1.75-2.01,2.64-2.02
		c9.77-0.12,19.54-0.09,29.3,0.08c0.95,0.02,1.89,1.19,2.83,1.83c-1.07,0.69-2.11,1.92-3.21,1.97c-4.79,0.22-9.6,0.09-14.4,0.09
		C676.32,299.38,676.32,299.41,676.32,299.43z"/>
	<path class="st20" d="M676.01,319.23c0.36-2.62,0.72-5.24,1.07-7.86c5.45,0,10.9,0,16.22,0c1.54,7.32,1.04,8.03-5.31,8.03
		C684,319.4,680.01,319.29,676.01,319.23z"/>
	<path class="st30" d="M267.92,421.52c-10.16,0-20.33-0.23-30.48,0.09c-5.78,0.18-9.92-2.57-12.04-7.11
		c-2.48-5.33-4.12-11.27-4.94-17.11c-0.85-5.96,3.61-11.87,9.96-14.06c25.05-8.65,50.33-10.06,75.76-1.62
		c7.77,2.58,13.8,9.82,10.33,20.9c-4.84,15.44-6.98,19.84-25.61,18.99c-7.65-0.35-15.32-0.06-22.98-0.06
		C267.92,421.53,267.92,421.52,267.92,421.52z"/>
	<path class="st30" d="M269.14,315.27c14.94-0.01,25.1,9.65,25.08,23.82c-0.03,15.13-12.31,29.27-25.26,29.09
		c-12.75-0.17-24.88-14.32-24.92-29.07C244,325.22,254.47,315.28,269.14,315.27z"/>
	<polyline class="st0" points="181.18,512.47 171.86,512.33 169.88,497.15 188.62,498.15 	"/>
</g>
<polygon class="st19" points="163.86,412.76 167.12,467.44 201,467.35 192.98,437.27 192.98,324.47 162.54,325.93 "/>
<polygon class="st7" points="149.11,372.4 150.08,349.65 162.48,330.76 167.12,467.44 151.1,467.34 "/>
<polygon class="st13" points="144.84,362.25 149.9,362.02 149.11,372.4 148.11,371.5 "/>
<polygon class="st22" points="145.36,357.49 144.84,362.25 149.55,362.03 149.71,358.19 "/>
<polygon class="st12" points="145.36,357.49 149.71,358.19 150.08,349.37 "/>
<polygon class="st1" points="198.06,381.53 198.08,396.4 193.03,406.37 192.98,378.57 "/>
<line class="st16" x1="198.06" y1="382.55" x2="198.08" y2="396.4"/>
<g>
	<g>
		<path class="st30" d="M232.74,231.71h4.68c3.2,0,5.42,1.09,5.42,3.86c0,1.56-0.83,2.94-2.3,3.42v0.1c1.88,0.37,3.2,1.61,3.2,3.77
			c0,3.09-2.45,4.61-5.96,4.61h-5.03V231.71z M237.07,238.42c2.68,0,3.79-0.99,3.79-2.59c0-1.84-1.26-2.53-3.7-2.53h-2.42v5.11
			H237.07z M237.48,245.87c2.69,0,4.28-0.97,4.28-3.09c0-1.94-1.53-2.83-4.28-2.83h-2.74v5.92H237.48z"/>
		<path class="st30" d="M245.94,244.44c0-2.54,2.19-3.81,7.17-4.35c0-1.5-0.5-2.95-2.41-2.95c-1.35,0-2.56,0.64-3.48,1.25
			l-0.77-1.35c1.07-0.71,2.71-1.52,4.58-1.52c2.85,0,4.05,1.89,4.05,4.8v7.16h-1.63l-0.17-1.4h-0.07c-1.11,0.92-2.41,1.68-3.86,1.68
			C247.41,247.75,245.94,246.54,245.94,244.44z M253.11,244.62v-3.24c-3.91,0.47-5.23,1.43-5.23,2.92c0,1.33,0.9,1.87,2.04,1.87
			C251.05,246.16,251.98,245.61,253.11,244.62z"/>
		<path class="st30" d="M258.76,230.37h1.97v4.68l-0.07,2.4c1.09-1.05,2.27-1.93,3.87-1.93c2.46,0,3.56,1.59,3.56,4.56v7.39h-1.97
			v-7.14c0-2.17-0.66-3.1-2.2-3.1c-1.19,0-2.02,0.61-3.19,1.79v8.45h-1.97V230.37z"/>
		<path class="st30" d="M271.82,235.8h1.63l0.17,2.13h0.07c0.81-1.48,2-2.41,3.32-2.41c0.52,0,0.88,0.07,1.25,0.24l-0.37,1.73
			c-0.4-0.13-0.66-0.19-1.13-0.19c-0.99,0-2.16,0.71-2.95,2.68v7.49h-1.97V235.8z"/>
		<path class="st30" d="M285.13,231.71h2v15.75h-2V231.71z"/>
		<path class="st30" d="M291.25,235.8h1.63l0.17,1.68h0.07c1.11-1.09,2.31-1.97,3.91-1.97c2.46,0,3.56,1.59,3.56,4.56v7.39h-1.97
			v-7.14c0-2.17-0.66-3.1-2.2-3.1c-1.19,0-2.02,0.61-3.19,1.79v8.45h-1.97V235.8z"/>
		<path class="st30" d="M303.09,246.13l0.97-1.3c1.01,0.82,2.04,1.38,3.44,1.38c1.53,0,2.29-0.82,2.29-1.81
			c0-1.2-1.38-1.73-2.67-2.21c-1.63-0.6-3.48-1.4-3.48-3.37c0-1.87,1.5-3.31,4.02-3.31c1.45,0,2.72,0.6,3.63,1.31l-0.94,1.26
			c-0.8-0.59-1.63-1.04-2.66-1.04c-1.47,0-2.15,0.78-2.15,1.67c0,1.11,1.27,1.53,2.59,2.02c1.68,0.63,3.56,1.32,3.56,3.54
			c0,1.89-1.5,3.47-4.26,3.47C305.78,247.75,304.18,247.05,303.09,246.13z"/>
		<path class="st30" d="M314.78,243.86v-6.45h-1.74v-1.49l1.82-0.11l0.24-3.27h1.65v3.27h3.16v1.61h-3.16v6.49
			c0,1.43,0.46,2.25,1.8,2.25c0.41,0,0.95-0.16,1.33-0.31l0.38,1.49c-0.65,0.22-1.44,0.43-2.17,0.43
			C315.63,247.75,314.78,246.18,314.78,243.86z"/>
		<path class="st30" d="M322.19,232.12c0-0.78,0.6-1.28,1.36-1.28c0.77,0,1.36,0.5,1.36,1.28c0,0.74-0.6,1.28-1.36,1.28
			C322.78,233.4,322.19,232.87,322.19,232.12z M322.55,235.8h1.97v11.67h-1.97V235.8z"/>
		<path class="st30" d="M328.8,243.86v-6.45h-1.74v-1.49l1.82-0.11l0.24-3.27h1.65v3.27h3.16v1.61h-3.16v6.49
			c0,1.43,0.46,2.25,1.8,2.25c0.41,0,0.95-0.16,1.33-0.31l0.38,1.49c-0.65,0.22-1.44,0.43-2.17,0.43
			C329.64,247.75,328.8,246.18,328.8,243.86z"/>
		<path class="st30" d="M336.41,243.19v-7.39h1.97v7.14c0,2.17,0.66,3.1,2.2,3.1c1.19,0,2.02-0.59,3.12-1.97v-8.27h1.97v11.67h-1.63
			l-0.17-1.83h-0.07c-1.08,1.27-2.25,2.11-3.85,2.11C337.51,247.75,336.41,246.17,336.41,243.19z"/>
		<path class="st30" d="M349.97,243.86v-6.45h-1.74v-1.49l1.82-0.11l0.24-3.27h1.65v3.27h3.16v1.61h-3.16v6.49
			c0,1.43,0.46,2.25,1.8,2.25c0.41,0,0.95-0.16,1.33-0.31l0.38,1.49c-0.65,0.22-1.44,0.43-2.17,0.43
			C350.81,247.75,349.97,246.18,349.97,243.86z"/>
		<path class="st30" d="M357.37,232.12c0-0.78,0.6-1.28,1.36-1.28c0.77,0,1.36,0.5,1.36,1.28c0,0.74-0.6,1.28-1.36,1.28
			C357.97,233.4,357.37,232.87,357.37,232.12z M357.73,235.8h1.97v11.67h-1.97V235.8z"/>
		<path class="st30" d="M362.77,241.65c0-3.89,2.55-6.14,5.41-6.14s5.41,2.24,5.41,6.14c0,3.86-2.55,6.11-5.41,6.11
			S362.77,245.51,362.77,241.65z M371.54,241.65c0-2.67-1.36-4.49-3.37-4.49c-2.01,0-3.37,1.82-3.37,4.49
			c0,2.67,1.36,4.46,3.37,4.46C370.18,246.11,371.54,244.32,371.54,241.65z"/>
		<path class="st30" d="M376.64,235.8h1.63l0.17,1.68h0.07c1.11-1.09,2.31-1.97,3.91-1.97c2.46,0,3.56,1.59,3.56,4.56v7.39h-1.97
			v-7.14c0-2.17-0.66-3.1-2.2-3.1c-1.19,0-2.02,0.61-3.19,1.79v8.45h-1.97V235.8z"/>
	</g>
</g>
</svg>
