<?xml version="1.0" encoding="utf-8"?>
<!-- Generator: Adobe Illustrator 23.0.3, SVG Export Plug-In . SVG Version: 6.00 Build 0)  -->
<svg version="1.1" id="Layer_1" xmlns="http://www.w3.org/2000/svg" xmlns:xlink="http://www.w3.org/1999/xlink" x="0px" y="0px"
	 viewBox="0 0 377.06 376.92" style="enable-background:new 0 0 377.06 376.92;" xml:space="preserve">
<style type="text/css">
	.st0{fill:#B66FFF;}
</style>
<g>
	<g>
		<path class="st0" d="M147.1,0.65c3.15,1.8,6.82,3.05,9.34,5.49c9.75,9.42,5.44,25.98-7.64,29.67c-2.57,0.72-3.15,1.75-3.14,4.22
			c0.08,37.59,0.04,75.18,0.1,112.77c0,2.02,0.48,4.12,1.14,6.05c18.72,54.3,37.47,108.6,56.28,162.87
			c3.63,10.47,5.15,21.03,0.84,31.55c-6.39,15.59-19.05,22.41-35.15,23.35c-9.28,0.54-18.6,0.18-27.91,0.19
			c-32.69,0.01-65.38-0.01-98.08,0.01c-10.83,0.01-21.05-2.19-29.36-9.5c-12.49-11-15.51-25.12-10.63-40.43
			c7.72-24.21,16.31-48.15,24.6-72.18c11.16-32.35,22.39-64.67,33.59-97.01c2.03-5.86,4.79-7.9,8.71-6.45
			c3.72,1.38,4.57,4.67,2.63,10.28c-18.85,54.52-37.76,109.02-56.48,163.58c-1.61,4.68-2.82,9.75-2.88,14.65
			c-0.14,13.2,9.08,22.91,22.54,24.54c2.91,0.35,5.86,0.55,8.79,0.55c39.67,0.04,79.34,0.04,119.01-0.01c3.41,0,6.9-0.16,10.22-0.84
			c15.9-3.27,24.25-16.19,19.85-32.13c-3.64-13.17-8.53-26-13-38.93c-15.19-44.02-30.45-88.01-45.6-132.04
			c-0.77-2.25-1.03-4.78-1.04-7.19c-0.06-37.47-0.04-74.93-0.04-112.4c0-1.45,0-2.89,0-4.42c-1.17-0.14-2.02-0.17-2.84-0.34
			c-3.18-0.65-5.3-3.24-5.13-6.2c0.19-3.07,2.41-5.34,5.79-5.52c3.54-0.19,7.1-0.03,10.65-0.11c4.64-0.11,7.34-2.3,7.42-5.92
			c0.09-3.72-2.73-6.16-7.54-6.17c-25.59-0.04-51.18-0.04-76.77,0c-5,0.01-7.83,2.58-7.51,6.5c0.29,3.62,2.87,5.58,7.69,5.59
			c12.86,0.04,25.71,0.01,38.57,0.02c1.22,0,2.45-0.04,3.67,0.07c3.51,0.3,5.83,2.65,5.85,5.85c0.01,3.2-2.3,5.82-5.78,5.93
			c-5.75,0.19-11.51,0.08-17.26,0.09c-5.49,0.01-10.97,0-16.91,0c0,1.73,0,3.15,0,4.58c0,29.39,0,58.77,0,88.16
			c0,1.22,0.05,2.46-0.07,3.67c-0.32,3.22-2.74,5.55-5.74,5.63c-3.12,0.08-5.7-2.33-6.02-5.72c-0.12-1.21-0.07-2.45-0.07-3.67
			c0-29.26,0-58.53,0-87.79c0-1.46,0-2.93,0-4.55c-0.72-0.3-1.35-0.65-2.02-0.84C51.27,33.73,45.9,27.17,45.76,19
			c-0.14-8.06,4.86-14.8,13.02-17.58c0.56-0.19,1.08-0.5,1.63-0.76C89.31,0.65,118.2,0.65,147.1,0.65z"/>
		<path class="st0" d="M377.06,268.08c-1.45,7.9-2.33,15.97-4.46,23.68c-7.85,28.43-24.45,50.65-49.19,66.62
			c-22.13,14.29-46.5,20.04-72.74,17.85c-11.04-0.92-21.7-3.49-32.02-7.5c-4.07-1.58-5.72-4.43-4.6-7.92c1.05-3.3,4.34-4.5,8.49-3.4
			c8.37,2.21,16.67,5.01,25.19,6.25c22.63,3.29,44.17-0.91,64.01-12.23c26.05-14.86,43.24-36.92,50.17-66.17
			c8.09-34.15,0.51-65.01-21.87-92.03c-11.39-13.75-25.75-23.52-42.47-29.84c-5.87-2.22-6.5-3.25-6.5-9.47c0-29.51,0-59.01,0-88.52
			c0-1.34,0-2.68,0-4.24c-1.23-0.29-2.37-0.55-3.5-0.84c-2.87-0.76-4.42-2.78-4.42-5.59c0-2.98,1.57-5.28,4.68-5.69
			c3.01-0.4,6.09-0.31,9.14-0.42c1.59-0.06,3.19,0.02,4.76-0.17c3.31-0.39,5.07-2.56,5.17-5.67c0.1-2.98-1.6-5.12-4.6-5.83
			c-1.29-0.31-2.67-0.28-4.01-0.28c-24.85-0.01-49.71-0.02-74.56,0c-1.34,0-2.73-0.03-4.01,0.29c-3.14,0.8-4.78,2.97-4.52,6.2
			c0.24,3.04,2.04,4.91,5.13,5.3c1.33,0.17,2.69,0.15,4.03,0.15c12.49,0.01,24.98-0.01,37.46,0.02c1.46,0,2.94,0.1,4.37,0.36
			c3.12,0.56,4.69,2.74,4.69,5.7c0,2.97-1.61,5.11-4.71,5.7c-1.31,0.25-2.67,0.34-4,0.35c-8.94,0.03-17.87,0.02-26.81,0.02
			c-1.32,0-2.64,0-4.4,0c0,1.8,0,3.23,0,4.66c0,29.63,0,59.26,0,88.88c0,5.85-0.65,6.83-6.16,8.92
			c-16.2,6.16-30.11,15.64-41.62,28.61c-0.49,0.55-0.97,1.11-1.49,1.62c-3.02,2.98-6.14,3.37-8.79,1.09
			c-2.81-2.41-3.06-5.95-0.06-9.05c5.09-5.27,10.24-10.54,15.81-15.28c8.24-7.02,17.58-12.42,27.64-16.43
			c2.25-0.9,2.81-2.08,2.8-4.32c-0.06-28.53-0.06-57.05-0.01-85.58c0-2.22-0.33-3.32-2.91-4c-8.62-2.27-14.12-10.71-13.02-19.24
			c1.16-9.02,8.15-15.74,17.38-15.81c26.93-0.18,53.87-0.18,80.8-0.01c9.26,0.06,16.39,6.76,17.54,15.65
			c1.13,8.77-4.32,17.08-13.2,19.46c-2.42,0.65-2.72,1.73-2.72,3.79c0.04,28.65,0.07,57.3-0.03,85.95
			c-0.01,2.45,1.05,3.31,3.04,4.19c35.16,15.51,57.74,41.87,67.55,79.02c1.64,6.22,2.39,12.68,3.56,19.03
			C377.06,257.31,377.06,262.69,377.06,268.08z"/>
		<path class="st0" d="M332.09,224.17c-4.05,2.71-8.07,4.84-11.42,7.75c-11.55,10.02-31.44,11.16-44.31-1.05
			c-4.03-3.83-8.48-6.94-14.48-7.03c-4.74-0.07-8.94,1.1-12.63,4.04c-1.91,1.53-3.77,3.12-5.69,4.65
			c-12.09,9.6-28.44,9.73-40.78,0.37c-5.44-4.13-10.71-8.47-17.97-9.28c-3.07-0.34-4.84-3.77-4.25-6.72
			c0.68-3.41,3.4-5.54,6.97-5.02c7.33,1.07,13.65,4.47,19.37,9.04c3.75,2.99,7.53,5.84,12.51,6.53c6.97,0.96,13.01-0.76,18.29-5.55
			c5.49-4.99,11.5-9.05,19.23-9.89c8.86-0.97,16.73,1.14,23.65,6.75c1.71,1.39,3.39,2.82,5.11,4.19c7.97,6.33,18.34,6.51,26.4,0.25
			c5.64-4.37,11.4-8.39,18.34-10.5c6.15-1.87,8.66-0.99,11.67,4.59c28.61,52.97-0.6,117.99-59.95,132.9
			c-20.24,5.08-40.07,2.79-59.15-5.68c-3.73-1.65-5.17-4.66-3.93-7.92c1.26-3.32,4.6-4.71,8.54-3.06c8.64,3.62,17.5,6.1,26.87,6.91
			c48.88,4.25,90.41-37.3,86.16-86.22C339.76,243.99,337.13,234.3,332.09,224.17z"/>
		<path class="st0" d="M103.68,352.74c-19.58,0-39.16,0.01-58.74-0.01c-2.08,0-4.16-0.04-6.24-0.18c-10.38-0.73-15.95-7.94-13-17.9
			c3.65-12.29,8.06-24.34,12.16-36.49c1.6-4.74,3.23-9.48,4.94-14.19c1.99-5.48,5.71-6.71,10.6-3.62
			c9.23,5.84,18.22,5.31,26.67-1.72c5.59-4.65,11.25-8.95,18.82-9.99c8.98-1.23,16.98,0.81,24.1,6.38c1.83,1.43,3.58,2.96,5.4,4.41
			c7.55,6.02,17.1,6.48,25.23,1.24c5.53-3.57,9.06-2.41,11.22,3.79c5.32,15.22,10.67,30.43,15.84,45.7
			c5.02,14.8-0.43,22.46-16.06,22.54C144.31,352.81,124,352.74,103.68,352.74z M51.98,294.09c-5.14,14.96-10.35,30.13-15.53,45.22
			c4.44,2.06,130.45,2.01,134.61-0.04c-5.18-15.09-10.39-30.26-15.63-45.55c-1.46,0.44-2.48,0.79-3.53,1.06
			c-10.43,2.63-20.38,2.07-29.32-4.66c-2.34-1.76-4.37-4.03-6.89-5.46c-3-1.71-6.26-3.33-9.61-4c-6.66-1.34-12.13,1.59-16.92,6.04
			c-7.34,6.83-15.85,10.52-26.04,9.33C59.53,295.62,55.98,294.8,51.98,294.09z"/>
		<path class="st0" d="M287.6,305.81c0.03,3.2-2.45,5.84-5.63,5.97c-3.24,0.13-6.17-2.63-6.2-5.85c-0.04-3.19,2.89-6.08,6.09-6.01
			C285.01,299.99,287.57,302.62,287.6,305.81z"/>
		<path class="st0" d="M311.66,281.7c0.09,3.12-2.52,5.95-5.65,6.12c-3.13,0.17-5.95-2.4-6.12-5.59c-0.19-3.43,2.36-6.17,5.78-6.2
			C308.94,275.99,311.57,278.48,311.66,281.7z"/>
	</g>
</g>
</svg>
