<?xml version="1.0" encoding="utf-8"?>
<!-- Generator: Adobe Illustrator 23.0.3, SVG Export Plug-In . SVG Version: 6.00 Build 0)  -->
<svg version="1.1" id="Layer_1" xmlns="http://www.w3.org/2000/svg" xmlns:xlink="http://www.w3.org/1999/xlink" x="0px" y="0px"
	 viewBox="0 0 278.37 270.09" style="enable-background:new 0 0 278.37 270.09;" xml:space="preserve">
<style type="text/css">
	.st0{fill:#FF694C;}
</style>
<g>
	<path class="st0" d="M177.04,199.23c0.67,6.36,1.22,12.39,1.96,18.4c0.8,6.52-1.37,9.11-7.9,9.12c-19.7,0.01-39.39,0.01-59.09,0
		c-6.51,0-8.62-2.42-7.9-8.79c0.69-6.12,1.27-12.26,1.93-18.73c-1.41,0-2.6,0-3.8,0c-26.19,0-52.39,0.02-78.58-0.01
		c-11.62-0.02-20.23-6.41-22.95-17.09c-0.57-2.23-0.67-4.62-0.67-6.94C0,124.83-0.01,74.47,0.01,24.11
		C0.02,9.23,9.28,0.01,24.17,0.01C100.82,0,177.47,0,254.12,0.01c12.06,0,20.48,6.02,23.38,16.89c0.64,2.41,0.83,5.01,0.83,7.52
		c0.05,50.15,0.06,100.31,0.02,150.46c-0.01,15.01-9.38,24.33-24.33,24.34c-24.47,0.02-48.94,0-73.4,0
		C179.53,199.23,178.43,199.23,177.04,199.23z M11.92,158.16c85.05,0,169.67,0,254.33,0c0.04-0.74,0.1-1.25,0.1-1.75
		c0-44.37,0.01-88.75-0.01-133.12c0-1.01-0.05-2.04-0.27-3.02c-1.18-5.41-5.21-8.21-11.82-8.22c-76.77-0.01-153.53,0-230.3,0
		c-0.81,0-1.73-0.2-2.42,0.11c-2.42,1.09-5.08,1.98-7.06,3.65c-2.58,2.17-2.57,5.57-2.57,8.77c0.01,43.46,0,86.92,0,130.38
		C11.92,155.96,11.92,156.96,11.92,158.16z M266.3,170.68c-84.93,0-169.51,0-255.03,0c0.78,4.09,0.88,8.06,2.35,11.43
		c1.86,4.25,6.09,5.07,10.55,5.06c76.64-0.05,153.28-0.04,229.93-0.04c0.71,0,1.42,0.01,2.13-0.02c5.47-0.24,9.58-4.06,10.04-9.52
		C266.45,175.39,266.3,173.15,266.3,170.68z M166.57,214.63c-0.57-5.31-1.11-10.29-1.65-15.26c-15.75,0-31.14,0-46.77,0
		c-0.54,5.1-1.06,10.08-1.61,15.26C133.28,214.63,149.67,214.63,166.57,214.63z"/>
	<path class="st0" d="M139.22,269.96c-36.24,0-72.47,0-108.71,0c-0.91,0-1.83,0.03-2.74-0.01c-4.83-0.22-7.61-4.4-5.48-8.73
		c3.76-7.64,7.8-15.13,11.77-22.67c1.19-2.27,3.17-3.34,5.73-3.34c0.81,0,1.62-0.01,2.44-0.01c64.66,0,129.31,0.04,193.97-0.08
		c4.57-0.01,7.37,1.51,9.32,5.65c2.89,6.14,5.89,12.27,9.41,18.06c4.01,6.6,0.32,11.32-6.68,11.26
		C211.89,269.81,175.56,269.96,139.22,269.96z M37.58,257.74c67.88,0,135.28,0,203.08,0c-1.34-2.64-2.7-4.89-3.66-7.31
		c-1.01-2.55-2.57-3.26-5.31-3.26c-61.71,0.09-123.42,0.07-185.12,0.07c-0.71,0-1.46-0.13-2.12,0.04c-0.7,0.19-1.62,0.51-1.93,1.06
		C40.84,251.3,39.32,254.36,37.58,257.74z"/>
</g>
</svg>
