<?xml version="1.0" encoding="utf-8"?>
<!-- Generator: Adobe Illustrator 23.0.3, SVG Export Plug-In . SVG Version: 6.00 Build 0)  -->
<svg version="1.1" id="Layer_1" xmlns="http://www.w3.org/2000/svg" xmlns:xlink="http://www.w3.org/1999/xlink" x="0px" y="0px"
	 viewBox="0 0 261.26 174.42" style="enable-background:new 0 0 261.26 174.42;" xml:space="preserve">
<style type="text/css">
	.st0{fill:#FF5ABB;}
</style>
<g>
	<g>
		<path class="st0" d="M0,139.8c1.39-3.56,4.04-4.94,7.79-4.74c3.13,0.16,6.28,0.03,9.92,0.03c0-1.2,0-2.25,0-3.31
			c0-35.04,0.04-70.09-0.03-105.13c-0.02-8.84,3.07-16.08,10.09-21.51c4.15-3.21,8.95-4.83,14.17-5.05
			c3.66-0.15,6.29,2.08,6.61,5.32c0.33,3.42-1.58,5.79-5.33,6.53c-1.16,0.23-2.37,0.25-3.52,0.53c-6.1,1.51-10.03,6.47-10.04,13.09
			c-0.05,35.98-0.03,71.96-0.02,107.93c0,0.41,0.08,0.82,0.13,1.41c2.5,0,4.92,0,7.83,0c0-1.03,0-2.09,0-3.15
			c0-34.02,0-68.04,0.01-102.07c0-1.1,0-2.22,0.14-3.31c0.33-2.67,2.04-4.54,4.65-5.03c1.24-0.23,2.53-0.31,3.79-0.32
			c56.31-0.01,112.61-0.02,168.92,0c1.35,0,2.73,0.08,4.04,0.36c2.38,0.52,3.83,2.12,4.32,4.49c0.21,0.99,0.21,2.03,0.21,3.05
			c0.01,22.79,0.01,45.59,0,68.38c0,0.93-0.02,1.88-0.16,2.8c-0.42,2.8-2.56,4.77-5.33,4.98c-2.87,0.22-5.42-1.49-6.13-4.3
			c-0.29-1.13-0.31-2.36-0.31-3.54c-0.02-20.24-0.01-40.49-0.01-60.73c0-1.01,0-2.02,0-3.23c-54.03,0-107.91,0-161.99,0
			c0,33.78,0,67.64,0,101.64c60.6,0,121.11,0,181.91,0c0-1.05,0-1.96,0-2.87c0-35.04,0-70.09,0-105.13
			c0-9.63-5.18-14.83-14.79-14.83c-43.04-0.01-86.08,0-129.11-0.02c-1.43,0-2.9-0.09-4.29-0.41c-2.56-0.57-4.34-2.99-4.36-5.6
			c-0.01-2.6,1.76-5.01,4.31-5.64c1.14-0.28,2.35-0.4,3.52-0.4C130.4,0,173.87-0.01,217.33,0.01c15.48,0.01,26.24,10.81,26.25,26.38
			c0.03,35.04,0.01,70.09,0.01,105.13c0,1.08,0,2.16,0,3.55c3.61,0,6.9-0.02,10.19,0c5.47,0.03,7.72,2.42,7.46,7.89
			c-0.79,16.62-14.11,29.96-31.31,31.33c-1.1,0.09-2.21,0.12-3.31,0.12c-63.96,0.01-127.92,0.01-191.88,0
			c-15.61,0-28.03-8.57-32.92-22.68c-0.77-2.22-1.22-4.56-1.82-6.84C0,143.2,0,141.5,0,139.8z M248.29,147.1
			c-78.52,0-156.75,0-235.16,0c0.17,0.68,0.26,1.26,0.45,1.79c2.97,8.17,10.91,13.44,20.61,13.44
			c64.31,0.03,128.61,0.05,192.92-0.08c3.38-0.01,6.97-0.82,10.08-2.16C242.81,157.7,246.48,153.24,248.29,147.1z"/>
		<path class="st0" d="M130.53,42.47c22.75-0.19,41.48,18.46,41.63,41.47c0.15,22.76-18.23,41.36-41.13,41.63
			c-22.98,0.27-41.77-18.3-41.88-41.39C89.03,61.32,107.54,42.67,130.53,42.47z M130.8,54.53c-16.28-0.07-29.61,13.07-29.73,29.32
			c-0.12,16.3,13.26,29.79,29.55,29.82c16.17,0.03,29.56-13.33,29.6-29.51C160.27,67.91,147.05,54.6,130.8,54.53z"/>
		<path class="st0" d="M131.03,106.18c-2.05-0.09-3.59-1.01-3.92-3c-0.27-1.64-1.29-2.02-2.53-2.7c-2.12-1.16-4.21-2.53-5.92-4.22
			c-1.98-1.96-1.79-4.7-0.05-6.37c1.69-1.61,4.05-1.6,6.17,0.23c2.14,1.85,4.39,3.32,7.33,2.72c0.95-0.19,1.78-0.95,2.67-1.45
			c-0.7-0.83-1.25-1.99-2.14-2.42c-2.2-1.07-4.6-1.72-6.87-2.68c-5.65-2.4-7.8-6.15-6.87-11.8c0.58-3.53,2.87-5.59,5.94-7.09
			c0.89-0.43,1.79-1.4,2.11-2.32c0.67-1.96,1.94-3.08,3.87-3.1c2.04-0.01,3.37,1.12,4.04,3.22c0.29,0.9,1.32,1.64,2.15,2.26
			c1.68,1.25,3.67,2.15,5.16,3.58c1.8,1.73,1.63,4.3,0.06,5.96c-1.5,1.58-3.79,1.83-5.75,0.36c-1.99-1.48-4.08-2.49-6.57-2.13
			c-0.69,0.1-1.28,0.84-1.92,1.28c0.5,0.51,0.9,1.25,1.51,1.5c2.42,1.02,4.96,1.77,7.36,2.83c4.37,1.92,7.19,5.01,7.18,10.11
			c0,4.79-2.48,8.16-7.22,10.01c-0.83,0.32-1.69,1.25-1.99,2.09C134.17,104.95,132.97,105.97,131.03,106.18z"/>
	</g>
</g>
</svg>
