<?xml version="1.0" encoding="utf-8"?>
<!-- Generator: Adobe Illustrator 23.0.3, SVG Export Plug-In . SVG Version: 6.00 Build 0)  -->
<svg version="1.1" id="Layer_1" xmlns="http://www.w3.org/2000/svg" xmlns:xlink="http://www.w3.org/1999/xlink" x="0px" y="0px"
	 viewBox="0 0 479 480" style="enable-background:new 0 0 479 480;" xml:space="preserve">
<style type="text/css">
	.st0{fill:#FAAF3B;}
	.st1{fill:#FAB03C;}
	.st2{fill:#FAB03D;}
	.st3{fill:#FAB13E;}
</style>
<g>
	<path class="st0" d="M241.26,2.76c132.03,0.42,238.23,107.08,237.79,238.83c-0.44,131.63-107.15,237.83-238.66,237.51
		C108.63,478.78,2.41,372.27,2.67,240.73C2.94,108.63,109.49,2.34,241.26,2.76z M376.77,128.8c-19.8-36.33-67.7-42.13-97.88-12.16
		c-42.58,42.27-84.91,84.78-127.25,127.29c-2.26,2.27-4.16,5.29-5.19,8.32c-11.27,33.25-22.31,66.58-33.48,99.86
		c-1.79,5.34-2.47,10.5,1.9,14.9c4.42,4.46,9.64,3.56,14.92,1.81c33.15-11.03,66.34-21.96,99.43-33.17
		c3.47-1.18,6.89-3.43,9.52-6.01c16.65-16.35,33.06-32.93,49.56-49.43c25.56-25.58,51.09-51.2,76.7-76.73
		c12.65-12.61,19.22-27.74,19.48-45.62C385.18,144.55,376.77,128.8,376.77,128.8z"/>
	<path class="st1" d="M287.55,141.41c17.46,17.53,35.27,35.42,52.79,53.01c-37.2,37.18-74.74,74.69-111.89,111.82
		c-17.54-17.54-35.38-35.38-52.95-52.95C212.71,216.15,250.25,178.66,287.55,141.41z"/>
	<path class="st2" d="M205.49,319.27c-12.53,4.18-26.04,8.8-39.62,13.16c-3.04,0.98-17.42-14.13-16.44-17.14
		c4.33-13.26,8.81-26.47,13.07-39.2C176.88,290.53,191.22,304.93,205.49,319.27z"/>
	<path class="st3" d="M306.53,124.57c11.58-7.75,31.07-5.45,43.2,5.93C362,142,365,161.7,356.97,175.29
		C340.18,158.41,323.27,141.41,306.53,124.57z"/>
</g>
</svg>
