<?xml version="1.0" encoding="utf-8"?>
<!-- Generator: Adobe Illustrator 23.0.3, SVG Export Plug-In . SVG Version: 6.00 Build 0)  -->
<svg version="1.1" id="Layer_1" xmlns="http://www.w3.org/2000/svg" xmlns:xlink="http://www.w3.org/1999/xlink" x="0px" y="0px"
	 viewBox="0 0 354.59 354.38" style="enable-background:new 0 0 354.59 354.38;" xml:space="preserve">
<style type="text/css">
	.st0{fill:#FF487C;}
</style>
<g>
	<g>
		<path class="st0" d="M7.16,354.38c-4.59-1.93-6.27-5.43-6.26-10.34c0.07-76.43,0.04-152.86,0.05-229.29
			c0-8.75,5.76-12.21,13.54-8.13c22.39,11.76,44.76,23.55,67.15,35.32c1,0.53,2.03,1.02,3.4,1.7c0.1-1.2,0.25-2.15,0.26-3.1
			c0.02-8.75-0.04-17.5,0.03-26.24c0.06-8.11,5.88-11.68,13.06-7.93c22.51,11.78,44.98,23.64,67.46,35.46
			c1.09,0.57,2.22,1.09,3.87,1.9c0-1.68,0-2.89,0-4.1c0-8.4-0.07-16.81,0.02-25.21c0.09-8.34,5.89-11.83,13.27-7.95
			c55.25,29.04,110.51,58.08,165.68,87.27c2.35,1.25,3.95,3.92,5.9,5.92c0,49.5,0,99,0,148.5c-2.07,2.07-4.14,4.14-6.22,6.22
			C234.64,354.38,120.9,354.38,7.16,354.38z M236.66,338.28c0-1.74,0-3.11,0-4.49c0-32.34,0-64.69,0-97.03
			c0-8.51,2.65-11.19,11.07-11.2c21.29-0.01,42.59-0.01,63.88,0.01c1.49,0,3,0.07,4.46,0.33c3.25,0.58,5.37,2.54,6.06,5.78
			c0.36,1.67,0.48,3.42,0.48,5.13c0.03,32.46,0.02,64.92,0.02,97.38c0,1.33,0,2.65,0,3.95c5.64,0,10.74,0,15.86,0
			c0.06-0.86,0.13-1.43,0.13-2c0.01-42.36-0.01-84.71,0.06-127.07c0-2.27-0.99-3.17-2.78-4.11c-48.95-25.7-97.88-51.46-146.81-77.2
			c-0.93-0.49-1.89-0.91-3.27-1.56c0,1.93,0,3.18,0,4.44c0,8.4,0.05,16.81-0.02,25.21c-0.05,5-2.34,8.57-6.35,8.96
			c-2.33,0.22-5.04-0.49-7.16-1.59c-22.34-11.6-44.59-23.37-66.87-35.09c-1.17-0.62-2.37-1.18-4.11-2.05c0,1.86,0,3.09,0,4.32
			c-0.01,8.86,0.12,17.73-0.07,26.59c-0.14,6.48-5.74,9.83-11.65,7.22c-0.94-0.42-1.84-0.94-2.76-1.42
			c-21.97-11.56-43.94-23.13-65.92-34.69c-1.17-0.62-2.38-1.16-3.78-1.83c0,70.95,0,141.42,0,212.03
			C90.31,338.28,163.23,338.28,236.66,338.28z M306.35,241.92c-17.96,0-35.69,0-53.42,0c0,32.25,0,64.19,0,96.32
			c17.88,0,35.53,0,53.42,0C306.35,306.12,306.35,274.18,306.35,241.92z"/>
		<path class="st0" d="M322.94,16.82c-11.1,0-21.65,0-32.69,0c-0.43,8.43-0.86,16.77-1.27,25.11c-1.54,31.49-3.06,62.98-4.64,94.46
			c-0.26,5.12-2.45,7.98-6.25,8.74c-5.77,1.15-9.95-2.79-9.69-9.36c0.42-10.35,0.99-20.69,1.5-31.03
			c1.29-26.43,2.59-52.86,3.88-79.29c0.26-5.29,0.44-10.58,0.75-15.86c0.34-5.81,3.43-8.81,9.28-8.83c15.19-0.05,30.38-0.05,45.57,0
			c5.84,0.02,9,3.02,9.28,8.83c1.43,29.65,2.8,59.3,4.21,88.95c1.06,22.3,2.14,44.59,3.2,66.88c0.07,1.49,0.23,3,0.13,4.48
			c-0.33,4.61-3.7,8.07-7.83,8.14c-4.19,0.07-7.7-3.21-8.01-7.89c-0.54-8.03-0.89-16.08-1.27-24.13
			c-1.78-37.23-3.56-74.47-5.33-111.71C323.46,28.58,323.21,22.84,322.94,16.82z"/>
		<path class="st0" d="M126.97,225.56c27.51,0,55.02,0,82.54,0c8.64,0,11.14,2.5,11.14,11.06c0,18.19,0.01,36.38,0,54.56
			c0,7.56-2.84,10.42-10.42,10.43c-55.6,0.02-111.2,0.01-166.8,0c-7.52,0-10.51-2.96-10.52-10.4c-0.03-18.42-0.03-36.84,0-55.25
			c0.01-7.46,2.96-10.38,10.49-10.39C71.26,225.55,99.12,225.56,126.97,225.56z M49.2,241.78c0,14.72,0,29.05,0,43.54
			c0.78,0.08,1.33,0.18,1.88,0.18c22.91,0.01,45.81,0.05,68.72-0.07c1.37-0.01,3.03-0.96,4.06-1.98c13.09-12.96,26.09-26,39.1-39.03
			c0.7-0.7,1.33-1.45,2.36-2.57c-1.52-0.1-2.5-0.22-3.48-0.22c-8.98-0.01-17.96-0.13-26.93,0.09c-1.81,0.05-4.01,0.98-5.31,2.25
			c-10.05,9.81-19.92,19.79-29.84,29.73c-2.25,2.26-4.68,4.17-8.12,3.69c-3.22-0.45-5.47-2.23-6.56-5.36
			c-1.22-3.5,0.09-6.34,2.48-8.76c6.31-6.39,12.69-12.71,19.02-19.07c0.65-0.66,1.21-1.41,2.07-2.42
			C88.54,241.78,69,241.78,49.2,241.78z M204.55,241.62c-4.66,0-9.03-0.18-13.36,0.09c-1.63,0.1-3.6,0.84-4.74,1.97
			c-13.18,12.99-26.23,26.1-39.3,39.19c-0.66,0.66-1.21,1.44-2.04,2.43c20.12,0,39.71,0,59.45,0
			C204.55,270.76,204.55,256.44,204.55,241.62z"/>
	</g>
</g>
</svg>
