<?xml version="1.0" encoding="utf-8"?>
<!-- Generator: Adobe Illustrator 23.0.3, SVG Export Plug-In . SVG Version: 6.00 Build 0)  -->
<svg version="1.1" id="Layer_1" xmlns="http://www.w3.org/2000/svg" xmlns:xlink="http://www.w3.org/1999/xlink" x="0px" y="0px"
	 viewBox="0 0 415.8 324.1" style="enable-background:new 0 0 415.8 324.1;" xml:space="preserve">
<style type="text/css">
	.st0{fill:url(#SVGID_1_);}
</style>
<g transform="translate(300,300)">
	<linearGradient id="SVGID_1_" gradientUnits="userSpaceOnUse" x1="-264.7352" y1="-228.6832" x2="73.1848" y2="57.8768">
		<stop  offset="0" style="stop-color:#7D9FE8"/>
		<stop  offset="1" style="stop-color:#8E69B1"/>
	</linearGradient>
	<path class="st0" d="M-27-30.1c-32.6,14.6-44.8,46.7-61.7,53c-17,6.4-39-12.8-86.6-21.3c-47.5-8.4-120.7-6-124.5-25.3
		c-3.9-19.4,61.7-60.6,84.9-108.6s4.1-102.6,17.9-134.6c13.7-32.1,60.1-41.8,94.2-24.7c34.1,17,55.9,60.8,92.9,84.7
		s89.4,28.1,112.2,52.7c22.8,24.7,16,69.9-13.9,91.1S5.6-44.7-27-30.1z"/>
</g>
</svg>
