<?xml version="1.0" encoding="utf-8"?>
<!-- Generator: Adobe Illustrator 23.0.3, SVG Export Plug-In . SVG Version: 6.00 Build 0)  -->
<svg version="1.1" xmlns="http://www.w3.org/2000/svg" xmlns:xlink="http://www.w3.org/1999/xlink" x="0px" y="0px"
	 viewBox="0 0 831.54 529.94" style="enable-background:new 0 0 831.54 529.94;" xml:space="preserve">
<style type="text/css">
	.st0{fill:#FFFFFF;}
	.st1{fill:#272E76;}
	.st2{fill:#DB79BF;}
	.st3{fill:#F4C3DA;}
	.st4{fill:#1B1751;}
	.st5{fill:#8B256E;}
	.st6{fill:#5E3C88;}
	.st7{fill:#9AFAF8;}
	.st8{fill:#E6C0EC;}
	.st9{fill:#212261;}
	.st10{fill:#F2C24E;}
	.st11{fill:#2C3581;}
	.st12{fill:#F5A670;}
	.st13{fill:#4AA2FA;}
	.st14{fill:#4786F9;}
	.st15{fill:#8CC3FC;}
	.st16{fill:#C473DA;}
	.st17{fill:#E57CB2;}
	.st18{fill:#9195E1;}
	.st19{fill:#E0468C;}
	.st20{fill:#3C58F6;}
	.st21{fill:#69246D;}
	.st22{fill:#E16B5C;}
	.st23{fill:#87A7FB;}
	.st24{fill:#89AFFB;}
	.st25{fill:#E99256;}
	.st26{fill:#8ABBFC;}
	.st27{fill:#8494FA;}
	.st28{fill:#AA39D0;}
	.st29{fill:#B93CBD;}
</style>
<g id="Layer_2">
	<rect x="547.47" y="14.98" class="st0" width="132" height="125.28"/>
	<rect x="378.27" y="136.66" class="st0" width="64.08" height="22.8"/>
	<polygon class="st0" points="66.51,249.46 76.59,257.62 101.07,255.7 114.03,278.26 138.99,318.1 127.95,368.02 129.39,404.5 
		81.87,356.02 59.31,316.66 47.79,294.58 47.79,276.34 47.79,238.42 53.07,235.06 	"/>
	<path class="st0" d="M8.91,330.1l5.28,11.52l9.6,12l9.12,8.16h-12v6.72l5.28,6.72l12,12.48l6.72,12.96l7.68,9.12l17.28,12
		l15.84,16.8l14.4,14.88l42.24,5.76c0,0,11.52-16.8,12-18.24c0.48-1.44-23.04-25.44-23.04-25.44l-33.6-48l-21.12-9.12l-14.4-11.52
		l-12.48-12.48l-11.52-4.32l-22.08-6.24l-13.92-4.08L8.91,330.1z"/>
	<polygon class="st0" points="162.03,184.18 164.91,336.82 145.23,333.94 142.83,177.46 159.63,184.18 	"/>
	<polygon class="st0" points="690.75,445.78 764.19,404.74 785.07,384.58 803.79,347.86 821.07,315.46 810.99,308.98 766.35,328.42 
		723.15,368.02 695.07,397.54 671.31,437.86 	"/>
</g>
<g id="Layer_1">
	<g>
		<g>
			<path class="st1" d="M78.81,193.03c-4.65,1.19-7.31-0.73-9.03-5.11c-1.57-3.99-5.65-7.92-5.24-11.49
				c0.41-3.52,5.22-6.43,7.75-9.87c1.02-1.38,1.53-3.46,1.51-5.21c-0.04-3.14-1.31-6.36-0.91-9.39c0.95-7.12-2.13-11.51-8.06-14.72
				c-1.84-1-3.31-2.67-4.93-4.01c1.63-5.1,3.44-9.86,4.61-14.77c0.65-2.75,1.91-3.7,4.42-3.29c8.43,1.38,13.58-2.27,18.96-8.93
				c5.31-6.57,8.81-12.26,5.94-20.59c-0.99-2.88,0.2-4.78,3.06-5.72c0.62-0.2,1.17-0.62,1.77-0.91c4.01-1.97,8.2-5.72,12-5.36
				c3.47,0.33,6.38,5.3,9.82,7.85c1.37,1.02,3.53,1.43,5.3,1.36c3.48-0.13,6.99-1.43,10.38-1.1c5.84,0.57,10.12-1.14,12.4-6.53
				c3.12-7.35,8.35-5.69,13.81-3.65c8.86,0.99,11.55,6.37,10.36,14.53c-0.04,0.31,0.12,0.64,0.18,0.97
				c0.74,1.79,1.04,4.05,2.32,5.29c3.55,3.46,7.38,6.67,11.37,9.6c1.66,1.22,4.02,2.06,6.07,2.06c4.05,0.01,9.08-2.32,11.9-0.65
				c3.17,1.89,4.34,7.13,6.38,10.91c0.24,0.44,0.42,0.92,0.72,1.3c2.6,3.26,1.88,5.92-1.28,8.36c-5.45,4.21-8.9,9.18-5.68,16.43
				c-7.25,0.27-14.51,0.54-21.76,0.81c-1.06-11.59-6.94-20.53-15.56-27.85c-16-13.58-42.05-13.43-56.11,0.23
				c-1.89,1.79-3.79,3.58-5.69,5.36c-1.63,2.02-3.27,4.04-4.9,6.06c0.52,0.36,1.05,0.72,1.57,1.08c1.4-2.14,2.8-4.27,4.19-6.41
				c1.82-1.8,3.65-3.59,5.48-5.39c0.87-0.45,1.78-0.84,2.6-1.37c27.01-17.5,61.22-3.13,66.66,28.01
				c-8.91,0.34-17.82,0.68-26.73,1.02c-3.09-8.11-9.53-11.89-18.46-10.83c-6.88,0.82-13.05,7.04-14.11,14.24
				c-1.14,7.7,2.82,14.79,9.81,17.6c0.03,9.07,0.07,18.13,0.1,27.2c-17.56-3.56-28.61-14.58-34.77-31.18
				c0.39,12.35,15.47,30.79,34.74,33.16c0.43,3.58,0.86,7.16,1.28,10.75c0.28,2.32-0.21,6.08,0.97,6.7
				c3.5,1.84,7.64,2.45,11.53,3.54c0.19,12.95,0.39,25.91,0.58,38.86c0.48,33.05,0.96,66.1,1.44,99.15
				c-4.25-0.66-8.5-1.32-12.75-1.98c-0.31-4.77-0.82-9.54-0.89-14.32c-0.18-12.6-0.17-25.2-0.23-37.81
				c-0.47-26.42-0.94-52.84-1.41-79.27c-4.85,10.07-11.97,8.65-20.41,5.49c-5.02-1.88-7.72-4.01-6.85-9.42
				c1.1-6.8-1.6-11.42-7.88-14.05C92.14,194.59,87.41,188.56,78.81,193.03z"/>
			<path class="st2" d="M477.8,54.97c1.3-0.65,2.6-1.31,3.9-1.96c1.69-0.61,3.44-1.09,5.06-1.86c8.42-3.98,16.73-8.22,25.23-12.01
				c29.53-13.19,60.3-20.43,92.83-18.92c-0.07,0.84-0.13,1.67-0.19,2.5c-3.4,1.8-7.4,2.97-10.09,5.52
				C578,43.96,565.73,62.94,554.2,82.45c-2.11,3.56-1.72,6.81,1.11,9.5c7.2,6.86,14.31,13.85,21.96,20.18
				c7.65,6.33,15.91,11.94,23.9,17.86c-1.15,0.13-2.3,0.35-3.46,0.38c-49.3,1.32-98.59,2.61-147.89,3.91
				c-2.38-5.97-4.76-11.93-7.14-17.9c3.83-0.06,7.65-0.18,11.48-0.16c3.03,0.01,5.22-0.9,5.66-4.26c0.45-3.41-1.3-6.1-4.33-6.22
				c-7.88-0.3-15.79,0.18-23.68,0.35c-5.34-3.31-10.67-6.62-16.01-9.93c1.58-0.31,3.15-0.85,4.73-0.88
				c6.82-0.1,13.64-0.04,20.46-0.04c22.12,0,44.25,0.01,66.37-0.02c5.02-0.01,7-1.85,6.5-5.85c-0.5-4.06-3.41-4.28-6.62-4.28
				c-28.11,0.03-56.22,0.03-84.33,0.03c1.12-1.04,2.08-2.36,3.38-3.07c4.46-2.42,9.04-4.63,13.57-6.92
				c0.66-0.09,1.33-0.18,1.99-0.27c16.77,0.08,33.55,0.23,50.33,0.19c3.58-0.01,6.78-1.42,6.59-5.77c-0.19-4.34-3.31-5.17-7.04-5.16
				c-9.64,0.03-19.27-0.07-28.91-0.12C467.8,61,472.8,57.98,477.8,54.97z"/>
			<path class="st3" d="M604.83,20.21c-32.54-1.51-63.31,5.73-92.83,18.92c-8.5,3.8-16.81,8.04-25.23,12.01
				c-1.62,0.76-3.37,1.25-5.06,1.86c1.34-6.87,1-7.56-6.18-10.73c16.5-8.05,32.16-16.05,48.14-23.38
				c16.5-7.57,33.83-12.64,51.74-15.88c18.78-3.39,37.59-3.77,56.52-1.91c26.85,2.64,51.31,11.82,73.58,26.93
				c13.15,8.93,24.64,19.73,34.58,32.1c10.4,12.94,12.3,27.73,9.5,43.76c-1.57,8.93-1.8,18.1-2.63,27.16
				c-6.98,2.42-13.96,4.85-20.93,7.27c1.22-10.51,2.59-21,3.62-31.53c1.5-15.32-5.61-27.2-15.58-37.86
				c-14.25-15.23-30.79-27.26-49.92-35.64C645.23,25.02,625.5,20.47,604.83,20.21z"/>
			<path class="st4" d="M329.82,497.98c-1.66,0.06-3.32,0.17-4.99,0.17c-68.98,0.02-137.96,0.03-206.94,0.04
				c-10.42,0-13.65-3.01-14.39-13.41c0.69-10.59,3.92-13.55,14.69-13.58c4.48-0.01,8.97-0.14,13.45-0.22c2.66,0,5.31-0.01,7.97-0.01
				c2.33,0.07,4.65,0.2,6.98,0.2c57.74,0.03,115.47,0.05,173.21,0.07C325.05,479.43,328.39,488.35,329.82,497.98z"/>
			<path class="st5" d="M415.8,96.17c5.34,3.31,10.67,6.62,16.01,9.93c3.62,3.43,7.25,6.86,10.87,10.28
				c2.38,5.97,4.76,11.93,7.14,17.9c-0.65,3.95-1.29,7.9-1.94,11.86c-0.71,1.35-1.42,2.7-2.13,4.05c-3.57-0.35-7.15-0.7-10.72-1.04
				c-5.39-0.19-10.78-0.38-16.17-0.58c-0.84-0.79-1.59-2.12-2.54-2.28c-6.81-1.17-13.7-1.89-20.48-3.18
				c-4.72-0.89-9.31-2.45-13.96-3.72c-1.17-0.69-2.34-1.97-3.52-1.98c-11.46-0.11-22.91,0-34.37,0.05
				c-0.84-0.73-1.61-1.98-2.52-2.09c-6.84-0.85-13.72-1.47-20.58-2.16c0.9-3.93,1.8-7.87,2.7-11.8c4.12-6.11,8.24-12.23,12.36-18.34
				c3.64-2.09,7.28-4.17,10.92-6.26c0.29-0.22,0.59-0.44,0.88-0.66c6.37-1.93,12.74-3.87,19.11-5.8
				c13.12-2.09,26.09-1.16,38.94,1.99C409.14,93.61,412.47,94.89,415.8,96.17z M431.18,127.8c-0.01-0.32-0.02-0.65-0.03-0.97
				c-18.68,0-37.36,0-56.04,0c0.01,0.32,0.01,0.65,0.02,0.97C393.82,127.8,412.5,127.8,431.18,127.8z M411.3,137.68
				c0,0.35,0,0.7,0,1.05c7.1,0,14.2,0,21.3,0c0-0.35,0-0.7,0-1.05C425.51,137.68,418.41,137.68,411.3,137.68z M342.25,126.64
				c0.01,0.33,0.01,0.65,0.02,0.98c5.76,0,11.52,0,17.28,0c-0.02-0.33-0.03-0.65-0.05-0.98C353.75,126.64,348,126.64,342.25,126.64z
				"/>
			<path class="st6" d="M133.72,297.05c0.06,12.6,0.05,25.21,0.23,37.81c0.07,4.78,0.58,9.55,0.89,14.32
				c-0.06,14.07-0.11,28.14-0.17,42.21c-4.58-4.7-9.16-9.41-13.74-14.11c-0.38-0.39-0.75-0.77-1.13-1.16l0.09,0.08
				c-2.93-5.72-6-11.38-8.68-17.21c-0.69-1.49-0.81-3.96-0.03-5.29c5.31-9.07,7.88-18.98,9.45-29.2c0.56-3.63,0.44-7.37,0.63-11.06
				c-0.4-0.02-0.81-0.03-1.21-0.05c-1.43,13.99-3.2,27.89-11.68,41.2c-8.67-17.62-16.86-34.21-24.91-50.87
				c-0.51-1.05-0.08-2.78,0.38-4.02c1.73-4.63,4.19-9.05,5.39-13.79c1.79-7.1,2.74-14.41,4.05-21.63c-0.55-0.11-1.09-0.23-1.64-0.34
				c-2.2,12.05-2.82,24.58-10.34,36.33c-5.82-13.56-11.22-26.14-16.61-38.72c-0.07-3,0.31-6.09-0.29-8.98
				c-2.02-9.77-4.39-19.46-6.62-29.18c6.35,4.61,12.7,9.23,19.04,13.84c5.96,5.57,11.92,11.15,17.88,16.72
				c8.74,9.47,17.52,18.91,26.19,28.44C125.27,287.18,129.45,292.15,133.72,297.05z"/>
			<path class="st7" d="M667.9,498.05c-3.74,9.36-7.38,18.75-11.29,28.04c-0.64,1.52-2.42,2.56-3.68,3.82
				c-0.12-1.78-0.81-3.77-0.25-5.31c3.2-8.86,6.69-17.61,10.08-26.39c3.48-8.97,6.96-17.94,10.44-26.9
				c1.56-3.59,4.45-7.01,1.52-11.21c-4.26-10.7-8.53-21.41-12.79-32.11c-3.33-9.66-3.33-9.69-13.27-9.65
				c-4.28,0.02-8.56,0.15-12.84,0.23c-20.58-0.02-41.16-0.04-61.74-0.07c-20.8-0.09-41.6-0.22-62.4-0.16
				c-1.32,0-3.39,1.13-3.85,2.25c-3.55,8.75-6.8,17.63-10.14,26.47c-2.02,5.21-4.05,10.43-6.07,15.64c0.74,2.83,1.48,5.66,2.23,8.49
				c3.63,9.04,7.27,18.09,10.9,27.13c3.3,8.83,6.71,17.63,9.81,26.53c0.51,1.47-0.26,3.4-0.44,5.11c-1.18-1.13-2.89-2.04-3.46-3.42
				c-3.43-8.26-6.58-16.65-9.88-24.97c-0.48-1.21-1.25-2.29-1.89-3.44c-3.35-9.13-6.71-18.27-10.06-27.4
				c-0.4,0.02-0.8,0.05-1.21,0.07c-3.32,9.11-6.64,18.22-9.96,27.33c-3.88,9.31-7.69,18.66-11.73,27.9c-0.66,1.51-2.3,2.6-3.48,3.88
				c-0.15-1.9-0.93-4.02-0.34-5.65c2.65-7.32,5.71-14.49,8.56-21.74c0.54-1.37,0.8-2.84,1.19-4.26c3.61-9.02,7.22-18.04,10.84-27.06
				c0.84-2.83,1.68-5.66,2.52-8.49c-2.1-5.21-4.2-10.41-6.3-15.62c-1.7-4.65-3.28-9.35-5.13-13.94c-1.97-4.88-2.95-11.51-6.64-13.97
				c-3.72-2.49-10.26-1.19-15.52-0.86c-4.72,0.3-7.42-1.38-9.23-5.66c-1.53-3.63-0.99-5.16,2.96-5.43c2.81-0.19,5.64-0.1,8.47-0.13
				c26.3,0.02,52.6,0.04,78.91,0.06c14.69-0.05,29.38-0.11,44.07-0.16c5,0,10,0.01,15,0.01c1.02-0.01,2.03-0.02,3.05-0.04
				c7.64,0.01,15.29,0.01,22.93,0.02c4.01-0.01,8.02-0.01,12.03-0.02c10.25-0.03,20.5-0.07,30.74-0.1
				c5.81,0.03,11.62,0.06,17.42,0.09c3.6,0,7.21-0.01,10.81-0.01c4.3,0.09,8.59,0.24,12.89,0.26c8.03,0.04,8.01,0,6.34,7.65
				c-0.24,1.08-0.16,2.23-0.23,3.35c0,0,0.05-0.09,0.05-0.09c-6.84-1.29-10.9,1.43-12.11,8.34c-0.11,0.63-0.49,1.22-0.75,1.83
				c-0.37,1.65-0.75,3.3-1.12,4.95c0,0,0.03-0.07,0.03-0.07c-0.32,0.38-0.63,0.75-0.95,1.13c-0.35,0.91-0.69,1.83-1.04,2.74
				c-0.13,0.64-0.25,1.27-0.38,1.91c-1.62,3.78-3.25,7.57-4.87,11.35c-1.22,2.81-2.31,5.69-3.69,8.43
				c-1.92,3.82-2.04,7.4,0.76,10.83c0.25,0.57,0.5,1.14,0.74,1.71c3.46,8.98,6.93,17.95,10.39,26.93
				c3.31,8.64,6.74,17.24,9.85,25.95c0.61,1.69,0,3.82-0.04,5.75c-1.34-1.41-3.23-2.59-3.93-4.27c-3.84-9.15-7.38-18.42-11.03-27.64
				c-3.5-8.98-7-17.95-11.02-28.29C674.71,480.18,671.3,489.12,667.9,498.05z M676.77,452.03c0.5,1.45,1.01,2.9,1.51,4.35
				c0.42,0.03,0.84,0.05,1.26,0.08c2.55-7.22,5.11-14.44,7.66-21.67c2.36-5.21,4.73-10.42,7.38-16.28c-2.98,0-4.91,0-6.85,0
				c-3.29,0.01-6.58,0.02-9.87,0.03c-4.56,0-9.12,0-14.65,0C667.91,430.14,672.34,441.09,676.77,452.03z M484.5,447.22
				c1.08,3.19,2.17,6.39,3.25,9.58c0.36-0.01,0.71-0.02,1.07-0.02c1.07-3.19,2.14-6.38,3.2-9.57c3.81-9.35,7.62-18.69,11.62-28.52
				c-11.07,0-20.7,0-30.94,0C476.81,428.6,480.66,437.91,484.5,447.22z"/>
			<path class="st8" d="M131.64,470.98c-4.48,0.08-8.97,0.21-13.45,0.22c-10.77,0.03-14,2.99-14.69,13.58
				c-24.31,2.03-47.53-0.83-67.38-16.54C18.05,453.93,6.25,435.77,2.7,412.5c-2.95-19.36,1.9-37.11,9.47-54.51
				c4.26,8.04,8.53,16.07,12.79,24.11c0.27,5.45,0.03,10.98,0.89,16.34c4.65,28.93,21.33,48.62,47.53,60.72
				c14.51,6.7,29.97,6.48,45.46,5.82C123.11,466.98,127.37,468.98,131.64,470.98z"/>
			<path class="st9" d="M482.7,471.21c-3.61,9.02-7.23,18.04-10.84,27.06c-45.36-0.03-90.72-0.05-136.08-0.09
				c-1.99,0-3.98-0.13-5.96-0.2c-1.42-9.63-4.76-18.54-10.02-26.74C374.1,471.23,428.4,471.22,482.7,471.21z"/>
			<path class="st3" d="M754.6,159.84c7.06,13.36,18.17,23.2,29.05,33.19c11.09,10.18,23.34,19.13,32.24,31.59
				c8.69,12.16,13.46,25.53,15.14,40.43c1.69,14.99-1.03,29.31-4.32,43.67c-0.34,1.5-1.38,2.83-2.1,4.24
				c-0.91-8.25-4.5-10.72-12.4-8.47c-4.14,1.18-8.27,2.4-12.4,3.6c1.71-9.07,3.74-18.09,5.08-27.21
				c3.02-20.52-2.06-39.15-14.69-55.47c-3.95-5.11-9.34-9.11-14.07-13.61c-0.89-1.17-1.61-2.53-2.68-3.48
				c-9.51-8.44-19.08-16.81-28.63-25.21C748.08,175.36,751.34,167.6,754.6,159.84z"/>
			<path class="st10" d="M24.97,382.1c-4.27-8.04-8.53-16.08-12.8-24.11c-3.67-10.3-7.41-20.57-10.96-30.91
				c-1.24-3.62-2.35-7.5,1.14-10.65c3.33-3.01,7.09-2.11,10.81-0.85c7.54,2.54,15.09,5.08,22.63,7.62
				c3.96,1.73,7.92,3.46,11.89,5.18c2.74,1.33,5.49,2.67,8.23,4c5.51,3,11.03,6.01,16.54,9.01c1.78,1.28,3.56,2.56,5.34,3.84
				c-0.77,1.6-1.28,3.42-2.38,4.74c-2.92,3.54-6.26,6.74-9.13,10.32c-3.66,4.55-7.02,9.35-10.52,14.03
				c-1.84-2.5-4.91-4.84-5.27-7.54c-0.97-7.17-0.59-14.52-1.12-21.77c-0.21-2.92-1.39-5.76-2.13-8.64
				c-0.43,0.09-0.85,0.18-1.28,0.27c1.56,9.75,4.5,19.44,2.34,29.93c-10.2-9.61-19.83-18.68-29.46-27.76
				c-0.04,0.03-0.08,0.06-0.13,0.09c9.1,9.69,18.2,19.38,27.29,29.07c-0.19,0.51-0.39,1.02-0.58,1.54
				c-8.05-0.8-16.11-1.59-24.16-2.39c0.86,0.98,1.93,1.77,3.07,1.88c6.93,0.68,13.88,1.14,20.8,1.84c1.86,0.19,4.06,0.49,5.4,1.6
				c2.8,2.3,5.13,5.18,7.66,7.82c-1.54,2.12-2.88,4.44-4.67,6.32c-4.72,4.93-9.64,9.68-14.47,14.5
				C34.34,394.76,29.65,388.43,24.97,382.1z M17.21,337.11c0.39-0.39,0.79-0.78,1.18-1.16c-2.43-2.6-4.86-5.2-7.3-7.8
				c-0.36,0.34-0.72,0.67-1.08,1.01C12.41,331.8,14.81,334.45,17.21,337.11z"/>
			<path class="st1" d="M305.89,43.13c1.95-5.34,5.11-7.2,10.97-5.2c3.11,1.06,4.11,2.3,4.44,5.29c0.71,6.35,8.56,12.2,14.65,10.57
				c5.52-1.47,6.09,3.05,8.43,5.71c2.4,2.73,0.73,4.54-1.05,6.32c-2.21,2.2-2.93,4.41-1.8,7.56c0.88,2.44,0.76,5.23,1.09,7.86
				c-1.8,1.09-3.56,2.24-5.4,3.25c-2.29,1.26-4.65,2.39-6.98,3.58c2.94-15.83-6.1-30-20.35-31.87c-12.3-1.62-25.47,5.67-26.26,14.53
				c14.39-14.4,26.92-16.66,37.67-6.79c9.17,8.42,10.37,22.86,2.54,32.05c-5.97,7.01-13.48,9.98-22.7,8.34
				c-8.95-1.59-14.54-7.4-18.9-14.97c2.33,6.72,4.91,13.06,12.53,15.18c2.71,0.76,5.39,1.65,8.09,2.48
				c-0.71,8.01-8.02,10-12.94,14.16c-1.18-8.3-8.1-13.52-16.46-12.02c-4.61,0.83-4.84-3.11-6.64-5.33
				c-1.49-1.84-2.73-3.82-0.26-6.02c3-2.67,4.2-5.86,2.11-9.7c0.32-4.42-0.99-7.77-5.34-9.82c-1.19-0.56-1.65-2.68-2.44-4.08
				c0.32-0.92,0.84-1.83,0.92-2.78c0.37-4.27,2.19-6.52,6.89-6.37c1.54,0.05,3.52-1.37,4.63-2.69c2.11-2.49,3.73-5.39,5.55-8.11
				c5.96-0.15,11.93-0.3,17.89-0.45c3.99,0.02,7.98,0.03,11.96,0.05c2.14,0.08,4.59,0.85,6.35,0.07c2.21-0.98,3.85-3.24,5.73-4.95
				c-1.72-1.88-3.13-4.41-5.26-5.44c-1.85-0.89-4.52-0.08-6.83-0.02C307.78,43.38,306.83,43.26,305.89,43.13z M315.43,81.46
				c-0.02-5.51-4.77-10.28-10.17-10.22c-5.27,0.06-9.79,4.6-9.89,9.92c-0.1,5.59,4.45,10.14,10.09,10.08
				C310.79,91.19,315.44,86.62,315.43,81.46z"/>
			<path class="st10" d="M799.8,308.1c4.13-1.2,8.26-2.43,12.4-3.61c7.9-2.24,11.49,0.22,12.4,8.47c0,0,0.09,0.11,0.09,0.11
				c-0.31,1.03-0.62,2.05-0.94,3.08c0,0,0.03-0.04,0.03-0.04c-0.32,1.03-0.64,2.06-0.96,3.09c-0.13,0.21-0.19,0.44-0.17,0.69
				c-0.92,2.76-1.83,5.52-2.75,8.28c-4.4,10.25-8.8,20.49-13.19,30.74c-0.26,0.44-0.53,0.88-0.79,1.32c0,0,0,0.01,0,0.01
				c-0.34,0.66-0.69,1.31-1.03,1.97c0,0,0.01-0.01,0.01-0.01c-0.7,1.32-1.41,2.64-2.11,3.96c0,0,0.03-0.04,0.03-0.04
				c-1.05,1.98-2.1,3.95-3.15,5.93c0,0-0.02-0.05-0.02-0.05c-2.25,2.75-4.51,5.5-6.77,8.25c-3.09-3.6-6.28-7.13-9.24-10.84
				c-2.41-3.02-4.54-6.26-6.8-9.41c5.71,0,11.41,0,17.12,0c0-0.67-0.01-1.34-0.01-2c-4.97,0-9.93,0-16.35,0
				c4.78-5.08,8.59-9.14,12.4-13.19c-0.36-0.34-0.71-0.67-1.07-1.01c-4.14,4-8.29,8-12.43,12c-0.53-0.22-1.06-0.44-1.59-0.66
				c0.98-9.82,1.96-19.64,2.94-29.45c-0.51-0.05-1.02-0.11-1.53-0.16c-0.95,8.28-3.14,16.66-2.46,24.81
				c0.59,7.14-1.68,11.31-6.95,14.9c-4.89-5.73-9.89-11.36-14.62-17.22c-3-3.72-5.59-7.78-8.37-11.69c2.68-1.89,5.37-3.79,8.05-5.68
				c5.54-3.11,11.07-6.21,16.61-9.32C778.97,316.91,789.39,312.51,799.8,308.1z M814.32,318.6c-0.43-0.37-0.85-0.74-1.28-1.11
				c-6.76,7.36-13.52,14.71-20.27,22.07c0.41,0.37,0.82,0.74,1.22,1.11C800.77,333.31,807.54,325.95,814.32,318.6z"/>
			<path class="st3" d="M792.87,380.26c2.26-2.75,4.51-5.5,6.77-8.25c-3.11,6.38-5.96,12.89-9.36,19.11
				c-11.57,21.13-23.23,42.21-35.06,63.2c-5.45,9.67-12.11,18.34-22.71,23.02c-1.05,0.46-2.2,0.68-3.31,1.01
				c-2.71-5.36-7.11-7.31-13.02-7.19c-9.44,0.19-18.9-0.05-28.34-0.11c3.73-1.26,7.49-2.45,11.19-3.79
				c14.2-5.14,25.26-14.05,32.6-27.37c1.31-1.19,2.55-2.45,3.93-3.55c8.76-7.03,17.56-14.03,26.34-21.04
				C773.65,404.88,784.29,393.48,792.87,380.26z"/>
			<path class="st3" d="M260.87,74.2c0.79,1.4,1.25,3.52,2.44,4.08c4.35,2.05,5.67,5.41,5.34,9.82c-10.99-2.5-21.92-5.23-32.97-7.45
				c-21.55-4.32-42.57-2.73-62.78,6.43c-0.07-0.32-0.23-0.66-0.18-0.97c1.19-8.16-1.5-13.54-10.36-14.53
				c9.41-2.47,18.69-5.87,28.26-7.22C214.86,60.93,237.83,68.2,260.87,74.2z"/>
			<path class="st1" d="M72.44,341.39c-5.51-3-11.03-6.01-16.54-9.01c-1.06-3.43-2.12-6.86-3.18-10.29
				c-1.3-5.32-2.6-10.63-3.9-15.95c-1.42-11.2-3.55-22.37-4.07-33.61c-0.63-13.75,0.1-27.57,0.24-41.35
				c0.95,1.38,2.37,2.64,2.79,4.17c3.41,12.61,6.76,25.24,9.86,37.93c1.64,6.71,2.74,13.56,4.08,20.35
				c-3.52-1.91-7.03-3.81-10.55-5.72c-0.29,0.46-0.58,0.93-0.87,1.39c4.87,2.87,9.75,5.74,14.62,8.61c0.04,1.82-0.24,3.72,0.18,5.44
				c2.24,9.14,4.87,18.19,6.92,27.37C72.79,334.15,72.34,337.83,72.44,341.39z"/>
			<path class="st1" d="M504.74,498.3c-3.63-9.04-7.27-18.09-10.9-27.13c19.42,0.02,38.84,0.04,58.27,0.06
				c-3.01,9.02-6.01,18.05-9.02,27.07C530.3,498.3,517.52,498.3,504.74,498.3z"/>
			<path class="st11" d="M673.19,471.3c-3.48,8.97-6.96,17.94-10.44,26.9c-11.27-0.02-22.53-0.04-33.8-0.06
				c-0.1-6.98-0.19-13.96-0.29-20.94c0.11-2.01,0.21-4.02,0.32-6.04C643.72,471.21,658.46,471.25,673.19,471.3z"/>
			<path class="st12" d="M543.09,498.3c3.01-9.02,6.01-18.05,9.02-27.07c0.93-2.76,1.86-5.51,2.78-8.27
				c2.03-5.26,4.05-10.53,6.08-15.79c1.22-2.52,2.5-5.02,3.63-7.58c1.47-3.31,4.06-6.72,3.93-9.99c-0.2-5.11,1.86-7.74,5.91-9.72
				c1.23,0.98,2.46,1.96,3.69,2.94c-4.54,1.48-5.9,5.11-6.04,9.36c-0.06,1.76,0.68,3.54,0.7,5.32c0.13,10.01,0.14,20.01,0.2,30.02
				c-1.16,1.8-2.23,3.67-3.5,5.4c-6.21,8.4-12.47,16.76-18.71,25.13c0.32,2.42,0.65,4.83,0.97,7.25c-2.81,0.86-5.57,2.19-8.43,2.46
				c-5.17,0.49-10.4,0.35-15.6,0.47C532.84,504.92,537.96,501.61,543.09,498.3z"/>
			<path class="st11" d="M687.83,471.05c9.45,0.06,18.9,0.3,28.34,0.11c5.91-0.12,10.31,1.83,13.02,7.19
				c0.17,2.98,0.58,5.98,0.46,8.95c-0.28,6.49-4.73,10.75-11.29,10.85c-7.83,0.12-15.66,0.06-23.48,0.08
				c-3.46-8.98-6.93-17.95-10.39-26.93C685.6,471.21,686.72,471.13,687.83,471.05z"/>
			<path class="st8" d="M415.8,96.17c-3.33-1.28-6.66-2.56-9.99-3.85c1.7-1.23,3.33-2.61,5.13-3.66c2.21-1.29,4.57-2.31,6.87-3.45
				c1.7-0.03,3.39-0.06,5.09-0.08c28.11,0,56.22,0.01,84.33-0.03c3.21,0,6.12,0.22,6.62,4.28c0.5,4.01-1.47,5.85-6.5,5.85
				c-22.12,0.03-44.25,0.02-66.37,0.02c-6.82,0-13.64-0.06-20.46,0.04C418.95,95.32,417.38,95.87,415.8,96.17z"/>
			<path class="st8" d="M94.71,253.94c-5.96-5.57-11.92-11.15-17.88-16.72c0.08-1.69,0.16-3.39,0.24-5.11
				c0.55-1.66,1.62-3.44,1.65-5.22c0.16-11.28,0.09-22.57,0.09-33.85c8.6-4.47,13.33,1.56,18.36,6.77
				C96.35,217.85,95.53,235.9,94.71,253.94z"/>
			<path class="st11" d="M622.86,498.23c-6.94-0.06-13.87-0.12-20.81-0.18c0.34-1.27,0.66-2.54,1.04-3.8
				c1.97-6.54,1.56-7.13-5.08-7.35c-1.42-2.21-3.83-4.33-4.07-6.66c-0.59-5.71-0.17-11.52-0.16-17.29
				c9.99,0.12,19.98,0.23,29.96,0.35c0.04,4.63,0.08,9.26,0.12,13.89c-0.06,6.87-0.13,13.75-0.19,20.62
				C623.35,497.86,623.08,498,622.86,498.23z"/>
			<path class="st13" d="M754.6,159.84c-3.26,7.76-6.52,15.52-9.78,23.27c-3.45,6.22-4.6,6.48-11.45,3.38
				c-6.49-2.94-13.06-5.68-19.6-8.51c-1.68-0.93-3.35-1.87-5.03-2.8c9.05-7.66,18.09-15.32,27.14-22.97
				c6.27,1.98,12.54,3.96,18.8,5.95C754.66,158.72,754.63,159.28,754.6,159.84z"/>
			<path class="st11" d="M289.91,121.17c4.93-4.16,12.23-6.14,12.94-14.16c14.3-0.15,22.75-5.99,27.4-18.95
				c2.33-1.19,4.69-2.32,6.98-3.58c1.84-1.01,3.6-2.16,5.4-3.25c2.44,2.54,8.14,2.23,6.97,7.94c-0.61,2.32-1.23,4.63-1.84,6.95
				c-0.29,0.22-0.59,0.44-0.88,0.66c-4.38,0.8-9.93-0.45-10.92,6.26c-4.12,6.11-8.24,12.23-12.36,18.34
				c-3.41-2.4-6.17-5.01-11.44-3.83c-4.74,1.06-8.01,2.33-10.35,6.73C300.26,127.2,291.34,124.69,289.91,121.17z"/>
			<path class="st11" d="M61.71,293.63c-1.34-6.79-2.44-13.63-4.08-20.35c-3.1-12.69-6.45-25.32-9.86-37.93
				c-0.41-1.53-1.83-2.79-2.79-4.17c1.09-8,5.34-10.59,12.79-7.81c2.23,9.72,4.6,19.42,6.62,29.18c0.6,2.89,0.22,5.98,0.29,8.98
				c-3.27-7.33-6.54-14.65-9.81-21.98c-0.41,1.85,0.06,3.38,0.68,4.83c7.28,17.02,14.62,34.02,21.82,51.08
				c0.62,1.46,0.34,3.29,0.48,4.95C72.48,298.15,67.1,295.89,61.71,293.63z"/>
			<path class="st7" d="M409.85,75.14c-16.29-0.02-32.58-0.02-48.87-0.1c-1.95-0.01-4.43,0.16-5.73-0.9
				c-1.64-1.34-3.44-4.08-3.09-5.8c0.36-1.82,3.16-4.5,4.89-4.5c25.57-0.05,51.15,0.28,76.72,0.52
				c-6.93,3.47-13.87,6.95-20.81,10.42C411.93,74.9,410.89,75.02,409.85,75.14z"/>
			<path class="st12" d="M593.78,462.94c-0.01,5.77-0.42,11.58,0.16,17.29c0.24,2.34,2.65,4.45,4.07,6.67
				c-1.06,4.95-1.85,9.99-3.26,14.84c-1.88,6.51-4.05,7.47-11.02,5.76c1.31-3.09,2.61-6.17,3.92-9.26c0.12-3.21,1.22-6.79,0.18-9.57
				c-3.24-8.67-7.29-17.04-11.03-25.53c4.55-7.56,7.12-15.68,5.95-25.22c3.41,0.88,5.74,1.49,8.07,2.09c-0.95,0.34-1.89,0.67-3,1.07
				c1.42,2.29,2.6,4.19,3.77,6.09C592.33,452.43,593.06,457.69,593.78,462.94z"/>
			<path class="st14" d="M754.68,158.16c-6.27-1.98-12.54-3.96-18.81-5.95c7.66-6.61,15.31-13.21,22.97-19.82
				c-0.34-0.41-0.67-0.82-1.01-1.22c-1.63,1.08-3.23,2.2-4.89,3.23c-7.99,4.95-16,9.88-24,14.81c-4.78-2.05-9.56-4.11-14.34-6.16
				c3.8-1.57,7.6-3.15,11.4-4.72c6.98-2.42,13.95-4.85,20.93-7.27c7.07-2.31,14.14-4.63,22.6-7.4
				C764.29,135.85,759.49,147.01,754.68,158.16z M762.75,128.08c-0.8,0.44-1.6,0.88-2.39,1.32c0.29,0.32,0.59,0.64,0.88,0.96
				c0.57-0.7,1.13-1.4,1.7-2.1c0.12-0.18,0.24-0.36,0.37-0.54C763.12,127.84,762.93,127.96,762.75,128.08z"/>
			<path class="st1" d="M576.81,463.14c3.74,8.49,7.79,16.86,11.03,25.53c1.04,2.78-0.06,6.36-0.18,9.57
				c-12.29-0.06-24.59-0.13-36.88-0.19c6.24-8.37,12.5-16.73,18.71-25.13c1.27-1.72,2.34-3.59,3.5-5.4
				C574.26,466.06,575.54,464.6,576.81,463.14z"/>
			<path class="st1" d="M477.66,498.13c3.32-9.11,6.64-18.22,9.96-27.33c0.4-0.02,0.8-0.05,1.21-0.07
				c3.35,9.13,6.71,18.27,10.06,27.4C491.81,498.13,484.74,498.13,477.66,498.13z"/>
			<path class="st11" d="M667.9,498.05c3.4-8.93,6.81-17.86,10.8-28.33c4.03,10.33,7.53,19.31,11.02,28.29
				C682.45,498.02,675.17,498.03,667.9,498.05z"/>
			<path class="st3" d="M409.85,75.14c1.04-0.12,2.08-0.24,3.11-0.35c8.96,0.12,17.92,0.24,26.88,0.35
				c-4.53,2.29-9.11,4.5-13.57,6.92c-1.3,0.71-2.26,2.03-3.38,3.07c-1.7,0.03-3.39,0.06-5.09,0.08c-9.16-0.54-18.45,1.16-27.67-2.14
				C396.71,80.43,403.28,77.78,409.85,75.14z"/>
			<path class="st13" d="M296.76,53.8c-5.96,0.15-11.93,0.3-17.89,0.45c-1.49-0.07-2.97-0.2-4.46-0.2c-3.6,0.02-6.39-1.24-6.43-5.22
				c-0.05-3.9,2.58-5.49,6.22-5.51c7.55-0.03,15.1-1.72,22.64,0.11C296.81,46.89,296.78,50.34,296.76,53.8z"/>
			<path class="st15" d="M439.84,75.14c-8.96-0.12-17.92-0.23-26.88-0.35c6.94-3.48,13.87-6.95,20.81-10.43
				c0.99-0.11,1.98-0.22,2.97-0.33c8.01,0.1,16.01,0.2,24.01,0.3c-6.3,3.51-12.61,7.02-18.91,10.53
				C441.17,74.96,440.51,75.05,439.84,75.14z"/>
			<path class="st3" d="M460.75,64.33c-8-0.1-16.01-0.2-24.01-0.3c12.23-9.65,26.05-12.05,41.07-9.06c-5,3.01-10,6.03-15,9.04
				C462.12,64.12,461.44,64.22,460.75,64.33z"/>
			<path class="st15" d="M622.86,498.23c0.22-0.23,0.49-0.38,0.81-0.43c1.69,0.45,3.39,0.89,5.08,1.34
				c0.12,2.79,0.25,5.59,0.37,8.42c6.58,2.49,14.37-2.05,20.26,2.86c-0.07,0.48-0.14,0.96-0.21,1.43c-15.28,0-30.55,0-46.21,0
				c1.78-5.36,6.04-3.28,9.22-3.55c3.41-0.29,6.87-0.07,10.68-0.07C622.86,504.45,622.86,501.34,622.86,498.23z"/>
			<path class="st5" d="M583.74,507.5c6.97,1.71,9.13,0.75,11.02-5.76c1.4-4.85,2.19-9.89,3.26-14.84c6.64,0.23,7.04,0.82,5.08,7.35
				c-0.38,1.26-0.7,2.53-1.04,3.8c-1.36,2.82-3.03,5.54-4.02,8.49c-1.78,5.3-5.54,7.05-10.69,6.77c-3.23-0.17-6.46-0.43-9.69-0.65
				c-0.15-0.55-0.31-1.09-0.46-1.64C579.37,509.85,581.55,508.67,583.74,507.5z"/>
			<path class="st8" d="M48.82,306.14c1.3,5.32,2.6,10.63,3.9,15.95c-1.68,2.1-3.36,4.19-5.05,6.29c-3.96-1.73-7.92-3.46-11.89-5.18
				C40.13,317.51,44.47,311.83,48.82,306.14z"/>
			<path class="st5" d="M527.72,508.23c5.2-0.12,10.43,0.02,15.6-0.47c2.86-0.27,5.63-1.61,8.43-2.46c3.14,5.28,2.64,6.87-2.99,7.56
				c-9.63,1.19-19.31,2.04-28.96,3.03c-0.32-0.72-0.64-1.45-0.95-2.17C521.8,511.89,524.76,510.06,527.72,508.23z"/>
			<path class="st14" d="M296.76,53.8c0.02-3.46,0.05-6.92,0.07-10.37c3.02-0.1,6.04-0.2,9.06-0.3c0.95,0.12,1.89,0.25,2.84,0.37
				c0,3.45,0,6.9,0,10.35C304.74,53.83,300.75,53.82,296.76,53.8z"/>
			<path class="st13" d="M628.75,499.14c-1.69-0.45-3.39-0.89-5.08-1.34c0.06-6.87,0.13-13.75,0.19-20.62
				c1.6,0.01,3.2,0.01,4.8,0.02c0.1,6.98,0.19,13.96,0.29,20.94C628.89,498.47,628.82,498.81,628.75,499.14z"/>
			<path class="st3" d="M347.75,96.14c0.61-2.32,1.23-4.64,1.84-6.95c4.06-0.3,8.12-0.84,12.18-0.8c1.7,0.02,3.39,1.26,5.09,1.95
				C360.49,92.27,354.12,94.2,347.75,96.14z"/>
			<path class="st3" d="M819.9,328.17c0.92-2.76,1.83-5.52,2.75-8.28C821.74,322.65,820.82,325.41,819.9,328.17z"/>
			<path class="st3" d="M799.65,372.06c1.05-1.98,2.1-3.95,3.15-5.93C801.75,368.11,800.7,370.08,799.65,372.06z"/>
			<path class="st3" d="M802.78,366.17c0.7-1.32,1.41-2.64,2.11-3.96C804.18,363.53,803.48,364.85,802.78,366.17z"/>
			<path class="st3" d="M822.82,319.21c0.32-1.03,0.64-2.06,0.96-3.09C823.46,317.15,823.14,318.18,822.82,319.21z"/>
			<path class="st3" d="M823.76,316.16c0.31-1.03,0.63-2.05,0.94-3.08C824.38,314.1,824.07,315.13,823.76,316.16z"/>
			<path class="st3" d="M804.88,362.22c0.34-0.66,0.69-1.31,1.03-1.97C805.57,360.91,805.22,361.56,804.88,362.22z"/>
			<path class="st3" d="M805.92,360.24c0.26-0.44,0.53-0.88,0.79-1.32C806.45,359.35,806.18,359.8,805.92,360.24z"/>
			<path class="st13" d="M147.59,351.15c-0.48-33.05-0.96-66.1-1.44-99.15c-0.19-12.95-0.39-25.91-0.58-38.86
				c-0.18-11.32-0.4-22.63-0.53-33.95c-0.17-15.01,7.97-24.72,22.84-25.44c20.28-0.99,40.61-0.95,60.91-1.36
				c-0.63,1.81-1.27,3.63-1.9,5.45c-17.59,0.47-35.18,0.96-52.77,1.42c-7.62,0.2-14.4,2.2-19.33,8.51
				c-3.03,3.89-3.42,5.79-1.44,10.13c1.72-11.4,9-15.83,19.11-16.52c4.79-0.32,9.62-0.05,14.44-0.05c1.31,4.97,2.63,9.95,3.94,14.92
				c-0.56,0.32-1.08,0.76-1.68,0.95c-21.63,6.93-18.45,11.31-18.27,25.83c0.06,5.39,0.57,10.77,0.88,16.16
				c0.02,36.11,0.05,72.23,0.06,108.34c0.01,36.28-0.01,72.56-0.01,108.84c0,6.29,1.69,8.73,7.66,10.55c2.35,0.71,4.86,1.2,7.3,1.24
				c8.58,0.16,17.17,0.08,25.76,0.08c13.48,0,26.96-0.01,40.44-0.02c-1.67,4.56-3.35,9.12-5.02,13.68c-0.06,0.3-0.11,0.6-0.14,0.9
				c-29.46,0.08-58.93,0.22-88.39,0.19c-5.72,0-8.92-2.96-10-8.55c-0.37-1.94-0.39-3.96-0.42-5.95
				C148.52,416.05,148.06,383.6,147.59,351.15z M154.57,250.36c-0.31-19.9-0.62-39.81-0.93-59.71c-0.21,0.01-0.43,0.01-0.64,0.02
				c0,19.86,0,39.73,0,59.59c0,5.14,0,10.27,0,15.41c0.52-0.03,1.05-0.07,1.57-0.1C154.57,260.5,154.57,255.43,154.57,250.36z
				 M155.11,297.73c-0.27,0.01-0.54,0.02-0.81,0.03c0,7.61,0,15.22,0,22.83c0.27-0.01,0.54-0.02,0.81-0.03
				C155.11,312.94,155.11,305.33,155.11,297.73z M153.45,183.16c-0.49,0.02-0.98,0.05-1.47,0.07c0.13,1.34,0.26,2.68,0.38,4.02
				c0.36-0.04,0.72-0.08,1.08-0.11C153.45,185.81,153.45,184.49,153.45,183.16z"/>
			<path class="st16" d="M289.91,121.17c1.42,3.52,10.35,6.03,11.89,3.13c2.33-4.4,5.61-5.67,10.35-6.73
				c5.26-1.18,8.03,1.43,11.44,3.83c-0.9,3.94-1.8,7.87-2.71,11.8c-0.38,1.54-0.76,3.08-1.14,4.62
				c-38.34,0.86-76.67,1.72-115.01,2.57c-3.23-7.24,0.23-12.22,5.68-16.43c3.16-2.44,3.88-5.1,1.28-8.36
				c-0.31-0.38-0.49-0.87-0.72-1.3c-2.04-3.78-3.21-9.02-6.38-10.91c-2.82-1.68-7.85,0.65-11.9,0.65c-2.05,0-4.41-0.84-6.07-2.06
				c-3.99-2.93-7.82-6.15-11.37-9.6c-1.28-1.24-1.57-3.5-2.32-5.29c20.21-9.16,41.23-10.75,62.78-6.43
				c11.04,2.22,21.98,4.95,32.97,7.45c2.09,3.84,0.89,7.03-2.11,9.7c-2.47,2.2-1.23,4.18,0.26,6.02c1.8,2.22,2.03,6.16,6.64,5.33
				C281.81,107.65,288.73,112.88,289.91,121.17z"/>
			<path class="st11" d="M147.59,351.15c0.47,32.45,0.93,64.89,1.41,97.34c0.03,1.99,0.04,4.01,0.42,5.95
				c1.08,5.59,4.28,8.55,10,8.55c29.46,0.02,58.93-0.11,88.39-0.19c1.66,0.1,3.31,0.29,4.97,0.29
				c75.82-0.01,151.64-0.04,227.46-0.08c1.66,0,3.32-0.19,4.98-0.29c-0.84,2.83-1.68,5.66-2.52,8.49
				c-54.3,0.01-108.6,0.02-162.9,0.03c-57.74-0.02-115.47-0.04-173.21-0.07c-2.33,0-4.65-0.13-6.98-0.2
				c-1.26-3.62-2.92-7.17-3.66-10.9c-0.66-3.36-0.3-6.91-0.4-10.38c0.03-0.82,0.06-1.65,0.09-2.48c-0.05-0.95-0.1-1.89-0.15-2.84
				c-0.28-17.66-0.55-35.33-0.83-52.99c0.06-14.07,0.11-28.14,0.17-42.21C139.09,349.83,143.34,350.49,147.59,351.15z"/>
			<path class="st9" d="M204.73,140.4c38.34-0.86,76.67-1.72,115.01-2.57c0.66,3.91,1.32,7.82,1.99,11.72
				c-26.35,0.66-52.7,1.3-79.05,2c-4.63,0.12-9.25,0.55-13.88,0.84c-20.31,0.4-40.63,0.37-60.91,1.36
				c-14.88,0.73-23.01,10.43-22.84,25.44c0.12,11.32,0.35,22.63,0.53,33.95c-3.89-1.09-8.04-1.7-11.53-3.54
				c-1.17-0.62-0.69-4.38-0.97-6.7c-0.43-3.58-0.86-7.16-1.28-10.75c0.01-0.66,0.02-1.32,0.04-1.98c-0.03-9.07-0.07-18.13-0.1-27.2
				c0-0.54,0.01-1.07,0.01-1.61c0.45-3.22,0.2-6.75,1.47-9.61c3.77-8.5,11.17-10.46,19.73-9.64c0.52-0.05,1.04-0.1,1.56-0.15
				c8.91-0.34,17.82-0.68,26.73-1.02c0.58,0.09,1.17,0.18,1.75,0.26C190.22,140.94,197.47,140.67,204.73,140.4z"/>
			<path class="st16" d="M94.71,253.94c0.82-18.05,1.64-36.1,2.47-54.14c6.28,2.64,8.98,7.25,7.88,14.05
				c-0.87,5.42,1.83,7.55,6.85,9.42c8.44,3.16,15.56,4.58,20.41-5.49c0.47,26.42,0.94,52.85,1.41,79.27
				c-4.27-4.89-8.45-9.87-12.82-14.67C112.23,272.85,103.45,263.42,94.71,253.94z"/>
			<path class="st13" d="M182.96,141.21c-0.59-0.09-1.17-0.17-1.75-0.26c-5.44-31.14-39.65-45.51-66.66-28.01
				c-0.82,0.53-1.73,0.92-2.6,1.37c-0.2-0.26-0.41-0.49-0.65-0.71c14.07-13.66,40.12-13.82,56.12-0.23
				C176.03,120.68,181.9,129.63,182.96,141.21z"/>
			<path class="st13" d="M154.48,141.97c-0.52,0.05-1.04,0.1-1.56,0.15c-0.63-0.98-1.21-1.98-1.89-2.93
				c-3.82-5.33-9.19-7.06-15.36-5.92c-6.13,1.13-10.1,5.16-11.48,11.14c-1.69,7.33,1.26,12.97,7.53,16.96
				c0,0.54-0.01,1.07-0.01,1.61c-6.99-2.81-10.94-9.91-9.81-17.6c1.06-7.2,7.23-13.42,14.11-14.24
				C144.95,130.08,151.39,133.86,154.48,141.97z"/>
			<path class="st13" d="M131.82,190.18c-0.01,0.66-0.02,1.32-0.04,1.98c-19.27-2.37-34.35-20.81-34.74-33.16
				C103.21,175.61,114.26,186.62,131.82,190.18z"/>
			<path class="st13" d="M106.47,119.69c-1.4,2.14-2.8,4.27-4.2,6.41c-0.52-0.36-1.05-0.72-1.57-1.08c1.63-2.02,3.27-4.04,4.9-6.06
				C105.89,119.21,106.18,119.45,106.47,119.69z"/>
			<path class="st13" d="M105.6,118.96c1.9-1.79,3.8-3.58,5.69-5.36c0.24,0.21,0.45,0.45,0.65,0.71c-1.83,1.8-3.65,3.59-5.48,5.39
				C106.18,119.45,105.89,119.21,105.6,118.96z"/>
			<path class="st17" d="M726.01,138.33c-3.8,1.57-7.6,3.15-11.4,4.72c-6.94,2.19-13.88,4.37-20.82,6.56
				c-4.79-15.76-13.59-21.67-29.9-20.91c-11.43,0.53-22.9,0.33-34.36,0.45c4.35-4.8,8.92-9.42,12.99-14.44
				c8.37-10.32,16.45-20.86,24.68-31.29c3.33-4.22,2.53-7.95-1.24-11.3c-6.7-5.97-13.23-12.18-20.25-17.75
				c-13.54-10.75-27.37-21.12-41.08-31.65c0.07-0.84,0.13-1.67,0.2-2.51c20.67,0.26,40.4,4.81,59.3,13.09
				c19.13,8.38,35.67,20.41,49.92,35.64c9.97,10.66,17.08,22.54,15.58,37.86C728.6,117.33,727.23,127.82,726.01,138.33z"/>
			<path class="st4" d="M629.53,129.16c11.45-0.12,22.92,0.08,34.36-0.45c16.31-0.76,25.11,5.14,29.9,20.9
				c-3.54,1.09-7.09,2.18-10.63,3.27c-2.33-7.79-8.31-12.51-16.59-12.48c-8.65,0.03-17.3,0.5-25.95,0.75
				c-20.3,0.59-40.6,1.22-60.9,1.73c-43.94,1.12-87.88,2.17-131.83,3.25c0.65-3.95,1.29-7.9,1.94-11.86
				c49.3-1.3,98.59-2.6,147.89-3.91c1.16-0.03,2.31-0.25,3.46-0.38c1.72,0.66,3.44,1.31,5.17,1.97c0.1,0.23,0.28,0.32,0.52,0.26
				c1.82,1.06,3.59,2.2,5.46,3.15c3.7,1.87,7.4,3.05,10.45-1.17c0.28,0,0.47-0.13,0.57-0.39c0.33-0.3,0.67-0.6,1-0.91
				C626.07,131.65,627.8,130.41,629.53,129.16z"/>
			<path class="st18" d="M460.75,64.33c0.68-0.11,1.37-0.21,2.05-0.32c9.64,0.05,19.27,0.14,28.91,0.12
				c3.72-0.01,6.85,0.82,7.04,5.16c0.19,4.35-3.01,5.76-6.59,5.77c-16.78,0.04-33.55-0.11-50.33-0.19
				C448.14,71.35,454.45,67.84,460.75,64.33z"/>
			<path class="st18" d="M442.68,116.38c-3.62-3.43-7.25-6.85-10.87-10.28c7.9-0.17,15.8-0.65,23.68-0.35
				c3.03,0.11,4.78,2.81,4.33,6.22c-0.44,3.35-2.64,4.27-5.66,4.26C450.33,116.2,446.51,116.32,442.68,116.38z"/>
			<path class="st19" d="M135.56,449.69c0.09,3.47-0.27,7.02,0.4,10.38c0.73,3.73,2.4,7.27,3.66,10.9c-2.66,0-5.31,0.01-7.97,0.01
				c-4.27-2-8.53-4-12.8-6c-3.7-2.18-7.4-4.35-11.09-6.53c0.72-2.37,1.44-4.74,2.16-7.11C118.46,450.79,127.01,450.24,135.56,449.69
				z"/>
			<path class="st20" d="M447.88,146.14c43.94-1.08,87.89-2.14,131.83-3.25c20.3-0.52,40.6-1.14,60.9-1.73
				c8.65-0.25,17.3-0.73,25.95-0.75c8.28-0.02,14.26,4.69,16.59,12.48c-1.93,0.88-3.91,1.66-5.76,2.67
				c-0.93,0.51-2.21,1.39-2.28,2.19c-0.07,0.78,1.05,1.91,1.92,2.47c2.21,1.43,4.58,2.62,6.88,3.91
				c-0.28,15.61-0.51,31.22-0.85,46.83c-0.17,7.63-0.6,15.26-0.78,22.9c-0.35,15.43-0.61,30.86-0.9,46.29
				c-0.44,12.09-1,24.18-1.3,36.27c-0.76,30.19-1.4,60.38-2.09,90.56c-5.81-0.03-11.62-0.06-17.42-0.09
				c3.84-2.75,4.6-6.16,2.4-10.36c-0.68-1.3-0.95-2.81-1.4-4.23c0.36-15.01,0.73-30.01,1.09-45.02c0.05-4.33,0.1-8.65,0.14-12.98
				c0.34-7.96,0.78-15.92,0.99-23.89c0.43-16.29,0.74-32.57,1.12-48.86c0.02-0.99,0.28-1.98,0.29-2.97
				c0.14-16.79,0.85-33.61,0.16-50.37c-0.43-10.5-2.12-21.15-4.82-31.31c-2.8-10.54-7.24-16.59-20.19-15.65
				c-3.97,0.29-7.93,0.73-11.9,0.83c-27.08,0.71-54.16,1.36-81.24,2.01c-15.79,0.38-31.57,0.73-47.36,1.09
				c-21.3,0.33-42.6,0.66-63.9,0.98c0.83-1.37,1.65-2.75,2.49-4.12c2.43-3.95,4.88-7.9,7.31-11.85
				C446.46,148.84,447.17,147.49,447.88,146.14z"/>
			<path class="st21" d="M445.75,150.18c-2.44,3.95-4.88,7.89-7.31,11.85c-0.84,1.37-1.66,2.74-2.49,4.12
				c-7.24,6.83-13.95,14.35-21.84,20.32c-12.75,9.64-26.27,18.25-39.46,27.3c-4.61,2.36-9.22,4.71-13.83,7.07
				c1.39-3.24,3.49-5.34,5.24-7.7c1.77-2.38,3.43-4.91,4.73-7.57c4.04-8.22,2.27-15.89-5.37-20.87
				c-8.55-5.58-17.49-10.56-26.26-15.8c-4.41-3.95-8.83-7.9-13.24-11.85c-0.41-0.63-0.81-1.26-1.22-1.89
				c-0.99-1.87-1.98-3.73-2.98-5.6c-0.66-3.91-1.32-7.82-1.99-11.72c0.38-1.54,0.76-3.08,1.14-4.62c6.86,0.69,13.74,1.31,20.58,2.16
				c0.91,0.11,1.68,1.37,2.52,2.09c1.35,0.66,2.69,1.88,4.05,1.9c11.28,0.14,22.56,0.06,33.84,0.04c4.65,1.26,9.24,2.82,13.96,3.72
				c6.78,1.28,13.67,2.01,20.48,3.18c0.95,0.16,1.7,1.49,2.54,2.28c-13.18,0-26.37,0-39.55,0c0,0.49,0,0.98,0,1.47
				c0.46,0.12,0.92,0.35,1.38,0.35c17.16,0.03,34.31,0.06,51.47-0.01c0.96,0,1.91-0.8,2.87-1.23
				C438.6,149.49,442.17,149.84,445.75,150.18z"/>
			<path class="st8" d="M431.18,127.8c-18.68,0-37.36,0-56.05,0c-0.01-0.32-0.01-0.65-0.02-0.97c18.68,0,37.36,0,56.04,0
				C431.16,127.15,431.17,127.47,431.18,127.8z"/>
			<path class="st8" d="M381.87,139.39c-11.28,0.02-22.56,0.1-33.84-0.04c-1.36-0.02-2.7-1.24-4.05-1.9
				c11.46-0.05,22.92-0.15,34.37-0.05C379.53,137.42,380.7,138.7,381.87,139.39z"/>
			<path class="st8" d="M411.3,137.68c7.1,0,14.2,0,21.3,0c0,0.35,0,0.7,0,1.05c-7.1,0-14.2,0-21.3,0
				C411.3,138.38,411.3,138.03,411.3,137.68z"/>
			<path class="st3" d="M335.95,103.05c0.99-6.71,6.54-5.46,10.92-6.26C343.23,98.88,339.59,100.97,335.95,103.05z"/>
			<path class="st8" d="M342.25,126.64c5.75,0,11.5,0,17.25,0c0.02,0.33,0.03,0.65,0.05,0.98c-5.76,0-11.52,0-17.28,0
				C342.26,127.29,342.25,126.96,342.25,126.64z"/>
			<path class="st22" d="M134.67,391.38c0.28,17.66,0.55,35.33,0.83,52.99c-14.32-11.81-28.47-23.82-43.03-35.3
				c-4.98-3.93-7.1-7.91-4.71-13.89c1.57-0.72,3.51-1.08,4.64-2.23c2.4-2.44,4.24-5.44,6.57-7.96c4.44-4.79,9.06-9.41,13.61-14.11
				c0.85,0.43,1.7,0.86,2.55,1.29c1.59,1.34,3.18,2.68,4.76,4.02c0,0-0.09-0.08-0.09-0.08c0.38,0.39,0.75,0.77,1.13,1.16
				C125.52,381.98,130.09,386.68,134.67,391.38z"/>
			<path class="st23" d="M374.64,213.77c13.19-9.05,26.71-17.66,39.46-27.3c7.89-5.97,14.6-13.49,21.84-20.32
				c21.3-0.33,42.6-0.66,63.9-0.98c4.35,3.19,6.35,7.9,8.13,12.72c1.4,3.79,2.63,7.64,3.93,11.47
				c-9.99,10.71-18.14,22.33-18.67,37.72c-0.84,11.96,3.45,22.12,11.04,31.06c8.34,9.84,19.68,14.42,31.68,17.78
				c1.04,3.57,1.83,7.23,3.18,10.68c2.02,5.18,4.55,10.15,6.63,15.3c3.02,7.47,5.61,15.13,8.86,22.5c0.91,2.07,3.48,3.41,4.46,4.32
				c0.34,3.32,0.13,6.21,0.99,8.74c1.98,5.87,4.47,11.56,6.75,17.32c-2.99,0.12-5.99,0.25-8.98,0.37c-5.33,0-10.67,0.01-16,0.01
				c-5,0.01-10,0.02-15,0.02c-1.04-0.17-2.08-0.34-3.12-0.52c-0.91,0.06-1.81,0.12-2.72,0.18c-8.63,0.34-9.29,1.36-6.08,9.47
				c4.91,12.42,9.8,24.85,14.79,37.24c0.79,1.96,2.02,3.74,3.05,5.6c-26.3-0.02-52.6-0.04-78.91-0.05c-0.6-0.66-1.16-1.85-1.82-1.91
				c-5.12-0.49-7.02-3.81-8.28-8.25c-0.34-1.19-2.5-1.86-3.82-2.76c0.43-1.91,0.6-3.92,1.33-5.71c6.98-17.2,14.11-34.34,21.06-51.55
				c1.96-4.85-0.7-8.61-6.01-8.76c-3.81-0.1-7.64,0.11-11.45,0.19c-0.34-0.17-0.68-0.34-1.02-0.51c-1.72-5.34-3.15-10.8-5.22-16
				c-3.74-9.37-7.87-18.58-11.84-27.86c7.67-12.02,13.3-24.88,16.35-38.86c0.25-1.16,2.1-2.92,3.06-2.83
				c7.38,0.71,12.84-3.42,18.05-7.39c2.33-1.77,4.69-5.7,4.37-8.33c-0.96-7.89,2.95-10.66,9.63-11.72c0.81-0.13,1.8-0.31,2.32-0.84
				c1.17-1.2,2.11-2.64,3.14-3.99c-0.45-0.64-0.9-1.28-1.35-1.92c-11.45,3.73-23.04,7.1-34.26,11.41c-3.33,1.28-6.55,4.73-8.25,8
				c-9.34,17.88-21.75,32.63-40.06,41.83c-0.65,0.19-1.3,0.37-1.94,0.56c-0.27-1.77-0.22-3.67-0.86-5.3
				c-3.93-9.94-7.85-19.88-12.12-29.68C381.71,227.75,378.06,220.81,374.64,213.77z"/>
			<path class="st24" d="M439.92,394.18c1.32,0.91,3.48,1.58,3.82,2.76c1.26,4.44,3.16,7.76,8.28,8.25
				c0.66,0.06,1.21,1.25,1.82,1.91c-2.82,0.03-5.65-0.06-8.47,0.13c-3.95,0.27-4.49,1.8-2.96,5.43c1.8,4.28,4.5,5.96,9.23,5.66
				c5.26-0.33,11.79-1.63,15.52,0.86c3.69,2.47,4.67,9.09,6.64,13.97c1.85,4.59,3.43,9.29,5.13,13.94
				c-34.4,0.34-68.79,0.73-103.19,1c-17.63,0.14-35.26,0.07-52.89,0.09c1.28-8.71,2.57-17.42,3.85-26.13
				c1.44-4.32,2.88-8.64,4.33-12.95c1.58-0.23,3.16-0.45,4.75-0.68c2.72,0.01,5.44,0.02,8.16,0.03c7.66-0.01,15.33-0.02,22.99-0.04
				c20.29,0.13,40.57,0.34,60.86,0.35c3.95,0,6.88-2.08,8.38-5.97C437.28,399.88,438.65,397.05,439.92,394.18z"/>
			<path class="st14" d="M322.83,448.19c17.63-0.02,35.26,0.05,52.89-0.09c34.4-0.27,68.79-0.66,103.19-1
				c2.1,5.21,4.2,10.41,6.3,15.62c-1.66,0.1-3.32,0.29-4.97,0.29c-75.82,0.04-151.64,0.07-227.46,0.08c-1.66,0-3.31-0.19-4.97-0.29
				c0.04-0.3,0.08-0.61,0.14-0.9c15.02-0.01,30.03-0.02,45.05-0.03l0.31,0.1l0.31-0.1c2.73,0.02,5.46,0.05,8.19,0.07
				c5.11,0.07,10.22,0.36,15.31,0.06c1.3-0.08,3.16-1.84,3.59-3.2C321.77,455.37,322.17,451.74,322.83,448.19z"/>
			<path class="st23" d="M574.44,419.88c-4.05,1.98-6.11,4.61-5.91,9.72c0.13,3.28-2.47,6.68-3.93,9.99
				c-1.14,2.56-2.42,5.06-3.63,7.58c-21.09-0.04-42.19-0.09-63.28-0.13c3.34-8.84,6.59-17.72,10.14-26.47
				c0.45-1.12,2.52-2.24,3.85-2.25c20.8-0.05,41.6,0.08,62.4,0.16C574.2,418.95,574.32,419.42,574.44,419.88z"/>
			<path class="st22" d="M707.82,418.23c0.07-1.12-0.01-2.27,0.23-3.35c1.67-7.65,1.69-7.61-6.34-7.65
				c-4.3-0.02-8.6-0.17-12.89-0.26c0.04-8.53,0.08-17.06,0.12-25.59c4.97-5.31,9.94-10.61,14.91-15.92c1.9-1.43,3.79-2.86,5.69-4.29
				c1.09-0.69,2.18-1.38,3.27-2.07c0.28,0.77,0.37,1.69,0.87,2.27c4.4,5.18,8.74,10.41,13.35,15.4c3.08,3.33,6.56,6.28,9.86,9.4
				c-0.11,2.62,0.87,6.42-0.49,7.67C727.13,402.27,717.39,410.17,707.82,418.23z"/>
			<path class="st22" d="M761.9,415.29c-8.78,7.01-17.58,14.01-26.34,21.04c-1.37,1.1-2.62,2.37-3.93,3.56
				c-5.58,2.86-11.16,5.72-16.74,8.58c-1.39-2.56-2.77-5.13-4.16-7.69c4.9-0.59,9.8-1.18,14.71-1.78c-0.05-0.65-0.1-1.29-0.15-1.94
				c-11.12,0-22.25,0-33.37,0c0.35-0.91,0.69-1.83,1.04-2.74c0.32-0.38,0.63-0.75,0.95-1.13c0,0-0.03,0.07-0.03,0.07
				c1.11-0.67,2.33-1.2,3.31-2.03c11.39-9.67,22.98-19.13,34.01-29.21c5.35-4.88,10.23-8.71,17.6-4.64
				c0.84,1.59,1.47,3.34,2.55,4.75C754.77,406.59,758.37,410.91,761.9,415.29z"/>
			<path class="st4" d="M523.71,354.66c1.04,0.17,2.08,0.34,3.12,0.52c3.8,4.3,7.65,8.57,11.39,12.93c2.01,2.35,3.83,4.86,5.73,7.3
				c0.17,2.55-0.27,5.36,0.65,7.6c1.78,4.34,4.61,4.25,7.3,0.19c1.92,0.83,4.26,1.22,5.7,2.57c6.12,5.73,12.02,11.69,17.87,17.69
				c0.81,0.83,0.91,2.35,1.34,3.55c-14.69,0.05-29.38,0.11-44.07,0.16c-1.03-1.86-2.26-3.64-3.05-5.6
				c-4.98-12.39-9.87-24.82-14.79-37.24c-3.21-8.11-2.55-9.13,6.08-9.47C521.89,354.78,522.8,354.72,523.71,354.66z"/>
			<path class="st9" d="M688.93,381.37c-0.04,8.53-0.08,17.06-0.12,25.59c-3.6,0-7.21,0.01-10.81,0.01
				c0.69-30.19,1.33-60.38,2.09-90.56c0.3-12.09,0.86-24.18,1.3-36.27c3.09,0.68,6.19,1.35,9.29,2.03c0.07,1.64,0.15,3.28,0.22,4.92
				c-0.33,6.13-0.86,12.27-0.96,18.4C689.53,330.79,689.25,356.08,688.93,381.37z"/>
			<path class="st5" d="M574.44,419.88c-0.12-0.46-0.24-0.93-0.36-1.39c20.58,0.02,41.16,0.04,61.74,0.07
				c0.02,7.8,0.04,15.6,0.06,23.41c-11.91-0.07-23.81-0.15-35.72-0.22c-0.78-0.58-1.56-1.15-2.34-1.73
				c-0.34-0.28-0.67-0.57-1.01-0.85c-6.22-5.44-12.45-10.89-18.67-16.33C576.9,421.84,575.67,420.86,574.44,419.88z"/>
			<path class="st14" d="M497.68,447.04c21.09,0.04,42.19,0.09,63.28,0.13c-2.03,5.26-4.05,10.53-6.08,15.79
				c-21.09-0.09-42.18-0.19-63.28-0.28C493.63,457.47,495.66,452.26,497.68,447.04z"/>
			<path class="st9" d="M543.95,375.4c-1.91-2.44-3.72-4.95-5.73-7.3c-3.74-4.36-7.59-8.62-11.39-12.93c5-0.01,10-0.02,15-0.02
				c1.09,1.6,1.95,3.45,3.31,4.76c14.5,13.95,29.11,27.78,43.57,41.76c1.42,1.38,2.08,3.54,3.1,5.34c-5,0-10-0.01-15-0.01
				c-0.43-1.2-0.53-2.72-1.34-3.55c-5.85-6-11.75-11.97-17.87-17.69c-1.44-1.35-3.77-1.74-5.7-2.57
				C550.89,375.64,548.91,373.7,543.95,375.4z"/>
			<path class="st1" d="M591.82,407.01c-1.01-1.8-1.67-3.96-3.1-5.34c-14.46-13.98-29.08-27.81-43.57-41.76
				c-1.37-1.32-2.22-3.16-3.31-4.76c5.33,0,10.67-0.01,16-0.01c0.37,1.03,0.44,2.38,1.15,3.05c6.16,5.89,12.39,11.71,18.73,17.41
				c1,0.9,2.63,1.08,3.97,1.59c3.74,7.64,7.49,15.27,11.23,22.91c0.6,0.92,1.19,1.84,1.79,2.76c0.05,1.37,0.11,2.75,0.17,4.12
				C593.85,406.99,592.83,407,591.82,407.01z"/>
			<path class="st21" d="M635.87,441.96c-0.02-7.8-0.04-15.6-0.06-23.41c4.28-0.08,8.56-0.22,12.84-0.23
				c9.94-0.04,9.94-0.02,13.27,9.65c0.03,9.92-0.76,11.1-9.02,13.4c-5.71,0.33-11.42,0.66-17.13,0.99L635.87,441.96z"/>
			<path class="st24" d="M484.5,447.22c-3.85-9.31-7.7-18.61-11.8-28.54c10.24,0,19.87,0,30.94,0c-4.01,9.83-7.81,19.18-11.62,28.52
				C489.51,447.21,487.01,447.21,484.5,447.22z"/>
			<path class="st20" d="M652.9,441.37c8.26-2.29,9.05-3.48,9.02-13.4c4.26,10.7,8.53,21.41,12.79,32.11
				c-3.73,0.99-7.44,2.71-11.21,2.85c-11.54,0.41-23.1,0.22-34.66,0.26c0.04-1.94,0.09-3.89,0.13-5.83
				c7.29-0.05,14.59-0.1,21.88-0.15c1.65-1.26,4.68-2.5,4.69-3.77C655.6,449.34,657.97,444.41,652.9,441.37z"/>
			<path class="st12" d="M594.7,402.85c-0.6-0.92-1.19-1.84-1.79-2.76c0.85-0.76,1.84-1.42,2.51-2.31c2.81-3.73,5.93-4.38,10.08-1.9
				c2.14,1.28,4.87,1.57,7.33,2.31c0,0-0.04-0.07-0.04-0.07c0.32,0.33,0.65,0.65,0.97,0.98c7.05,0.17,14.27,1.37,21.11,0.24
				c8.81-1.45,17.05-5.67,25.97-7.16c0.24,0.06,0.47,0.09,0.72,0.09c0.46,1.42,0.72,2.93,1.4,4.23c2.2,4.2,1.44,7.61-2.4,10.36
				c-10.25,0.03-20.5,0.06-30.75,0.1c0.62-2.81-0.33-4.49-3.39-4.42c-2.9,0.06-5.8,0.27-8.71,0.41
				C610.06,402.93,602.38,402.89,594.7,402.85z"/>
			<path class="st11" d="M491.61,462.69c21.09,0.09,42.18,0.19,63.28,0.28c-0.93,2.75-1.86,5.51-2.78,8.26
				c-19.42-0.02-38.84-0.04-58.27-0.06C493.09,468.35,492.35,465.52,491.61,462.69z"/>
			<path class="st17" d="M714.89,448.47c5.58-2.86,11.16-5.72,16.74-8.58c-7.35,13.31-18.4,22.23-32.6,27.36
				c-3.7,1.34-7.46,2.53-11.19,3.79c-1.11,0.08-2.23,0.16-3.34,0.24c-0.25-0.57-0.5-1.14-0.75-1.71c1.06-2.45,2.13-4.89,3.19-7.34
				C696.25,457.65,705.57,453.06,714.89,448.47z"/>
			<path class="st19" d="M714.89,448.47c-9.32,4.59-18.64,9.18-27.95,13.77c-0.09-3.97-0.18-7.95-0.27-11.92
				c1.62-3.78,3.25-7.57,4.87-11.35c6.4,0.6,12.79,1.2,19.19,1.8C712.12,443.35,713.5,445.91,714.89,448.47z"/>
			<path class="st1" d="M628.85,463.19c11.55-0.04,23.12,0.15,34.66-0.26c3.76-0.13,7.47-1.85,11.21-2.85
				c2.93,4.2,0.04,7.61-1.52,11.21c-14.74-0.04-29.47-0.09-44.21-0.14C628.94,468.51,628.89,465.85,628.85,463.19z"/>
			<path class="st1" d="M687.2,434.78c-2.55,7.22-5.11,14.44-7.66,21.67c-0.42-0.03-0.84-0.05-1.26-0.08
				c-0.5-1.45-1.01-2.9-1.51-4.34c0.36-11.16,0.73-22.33,1.09-33.5c3.29-0.01,6.58-0.02,9.87-0.03
				C687.55,423.93,687.38,429.36,687.2,434.78z"/>
			<path class="st20" d="M677.86,418.53c-0.36,11.17-0.73,22.33-1.09,33.5c-4.43-10.94-8.86-21.89-13.56-33.5
				C668.74,418.53,673.3,418.53,677.86,418.53z"/>
			<path class="st4" d="M594.7,402.85c7.68,0.04,15.35,0.07,23.03,0.11c0.02,1.34,0.04,2.69,0.06,4.03
				c-7.64-0.01-15.29-0.01-22.93-0.02C594.81,405.6,594.76,404.23,594.7,402.85z"/>
			<path class="st3" d="M710.73,440.78c-6.4-0.6-12.79-1.2-19.19-1.8c0.12-0.64,0.25-1.27,0.38-1.91c11.12,0,22.25,0,33.37,0
				c0.05,0.65,0.1,1.29,0.15,1.94C720.54,439.6,715.63,440.19,710.73,440.78z"/>
			<path class="st11" d="M686.67,450.33c0.09,3.97,0.18,7.94,0.27,11.92c-1.06,2.45-2.13,4.89-3.19,7.34
				c-2.8-3.43-2.68-7.01-0.76-10.83C684.36,456.02,685.45,453.14,686.67,450.33z"/>
			<path class="st22" d="M687.2,434.78c0.18-5.43,0.36-10.85,0.53-16.28c1.94,0,3.87,0,6.85,0
				C691.92,424.37,689.56,429.58,687.2,434.78z"/>
			<path class="st1" d="M617.8,406.99c-0.02-1.34-0.04-2.69-0.06-4.03c2.9-0.14,5.8-0.34,8.71-0.41c3.06-0.07,4.01,1.61,3.39,4.42
				C625.82,406.98,621.81,406.99,617.8,406.99z"/>
			<path class="st22" d="M707.87,418.14c-4.29,3.39-8.57,6.77-12.86,10.17c0.26-0.61,0.64-1.19,0.75-1.83
				C696.97,419.58,701.03,416.85,707.87,418.14z"/>
			<path class="st14" d="M484.5,447.22c2.5,0,5.01-0.01,7.52-0.01c-1.07,3.19-2.13,6.38-3.2,9.57c-0.36,0.01-0.71,0.02-1.07,0.02
				C486.67,453.6,485.59,450.41,484.5,447.22z"/>
			<path class="st16" d="M107.75,458.45c3.7,2.18,7.4,4.35,11.09,6.53c-15.49,0.66-30.95,0.88-45.46-5.82
				c-26.19-12.1-42.88-31.8-47.53-60.72c-0.86-5.36-0.62-10.89-0.89-16.34c4.69,6.33,9.38,12.66,14.07,18.99
				c7.9,8.39,15.8,16.77,23.69,25.16C76.11,439.25,91.35,449.67,107.75,458.45z"/>
			<path class="st17" d="M690.9,287.09c-0.07-1.64-0.15-3.28-0.22-4.92c1.01-37.94,2.02-75.88,3.04-113.82
				c1.67,0.66,3.35,1.33,5.02,1.99c2.41,4.92,4.81,9.83,7.22,14.75c0.82-0.03,2.03,0.27,2.4-0.15c1.92-2.22,3.63-4.62,5.42-6.95
				c6.54,2.83,13.11,5.57,19.6,8.51c6.85,3.11,7.99,2.84,11.45-3.38c9.55,8.39,19.12,16.76,28.63,25.2c1.08,0.96,1.8,2.31,2.68,3.49
				c-0.14,0.18-0.28,0.35-0.43,0.52c-3.79-1.48-7.42-1.45-10.79,1.11c-21.63,14.86-40.14,33.08-57.12,52.94
				C702.01,273.15,696.52,280.18,690.9,287.09z"/>
			<path class="st17" d="M799.8,308.1c-10.41,4.41-20.83,8.82-31.24,13.22c0.38-1.44,0.71-2.89,1.14-4.32
				c9.23-30.99,12.96-62.55,9.93-94.82c-1.31-3.28-2.62-6.57-3.92-9.85c0.15-0.17,0.29-0.34,0.43-0.52
				c4.73,4.5,10.12,8.5,14.07,13.61c12.63,16.32,17.71,34.95,14.69,55.47C803.54,290.01,801.52,299.03,799.8,308.1z"/>
			<path class="st25" d="M112.58,370.88c-4.55,4.69-9.17,9.31-13.61,14.11c-2.33,2.52-4.17,5.51-6.57,7.96
				c-1.13,1.15-3.07,1.51-4.64,2.23c-0.17-9.5-0.76-18.92-5.05-27.63c1.82,11.08,4.96,22.03,1.63,34.52
				c-10.05-9.75-19.31-18.74-28.58-27.73c3.49-4.69,6.86-9.48,10.52-14.03c2.87-3.58,6.21-6.78,9.13-10.32
				c1.1-1.33,1.6-3.15,2.38-4.74c3.3,1.92,6.59,3.83,9.89,5.75C95.97,357.62,104.28,364.25,112.58,370.88z"/>
			<path class="st25" d="M62.73,426.25c-7.9-8.39-15.8-16.77-23.69-25.16c4.84-4.82,9.76-9.56,14.47-14.5
				c1.8-1.88,3.13-4.2,4.67-6.31c0.91,0.93,1.79,1.89,2.72,2.79c7.28,7.02,14.57,14.03,21.86,21.05
				c-10.99,3.96-22.17,2.66-33.4,1.07c8.9,4.09,18.11,4.57,27.54,3.09C74.32,415.96,68.34,420.96,62.73,426.25z"/>
			<path class="st11" d="M87.67,350.98c-3.3-1.92-6.59-3.83-9.89-5.75c-1.78-1.28-3.56-2.56-5.34-3.84
				c-0.1-3.56,0.34-7.25-0.42-10.66c-2.05-9.18-4.68-18.23-6.92-27.37c-0.42-1.72-0.14-3.62-0.18-5.44
				c4.32,1.37,8.65,2.74,12.97,4.11c0,0-0.15,0.31-0.15,0.31c1.72,8.18,3.47,16.36,5.14,24.55
				C84.53,334.91,86.08,342.95,87.67,350.98z"/>
			<path class="st16" d="M47.67,328.38c1.68-2.1,3.36-4.19,5.05-6.29c1.06,3.43,2.12,6.86,3.18,10.29
				C53.16,331.05,50.42,329.71,47.67,328.38z"/>
			<path class="st13" d="M330.25,88.07c-4.65,12.96-13.09,18.8-27.4,18.95c-2.69-0.83-5.37-1.72-8.09-2.48
				c-7.61-2.12-10.2-8.46-12.53-15.18c4.36,7.57,9.96,13.38,18.9,14.97c9.22,1.64,16.74-1.33,22.7-8.34
				c7.83-9.19,6.63-23.64-2.54-32.05c-10.75-9.87-23.27-7.61-37.67,6.79c0.79-8.86,13.96-16.14,26.26-14.53
				C324.15,58.07,333.19,72.24,330.25,88.07z"/>
			<path class="st13" d="M315.43,81.46c0.02,5.16-4.64,9.73-9.96,9.78c-5.64,0.06-10.2-4.5-10.09-10.08
				c0.1-5.32,4.62-9.86,9.89-9.92C310.66,71.18,315.41,75.95,315.43,81.46z M313.15,81.18c-0.06-4.43-3.48-7.91-7.79-7.92
				c-4.5-0.01-7.98,3.72-7.82,8.39c0.15,4.49,3.53,7.67,8.03,7.56C310.02,89.11,313.21,85.73,313.15,81.18z"/>
			<path class="st20" d="M308.73,53.85c0-3.45,0-6.9,0-10.35c2.31-0.06,4.98-0.87,6.82,0.03c2.13,1.03,3.54,3.56,5.26,5.44
				c-1.88,1.71-3.52,3.96-5.73,4.95C313.32,54.7,310.87,53.93,308.73,53.85z"/>
			<path class="st25" d="M766.89,365.23c-8.65,8.39-17.3,16.78-26.81,26c-3.02-12.61-0.32-23.57,1.73-34.63
				c-4.58,9.35-5.05,19.41-4.93,29.57c-3.3-3.12-6.78-6.07-9.86-9.4c-4.61-4.99-8.96-10.22-13.35-15.4
				c-0.49-0.58-0.59-1.51-0.87-2.27c4.92-4.22,9.85-8.44,14.77-12.66c1.25-0.9,2.51-1.8,3.76-2.7c1.89-1.25,3.78-2.5,5.67-3.75
				c2.3-1.22,4.6-2.44,6.9-3.66c2.78,3.91,5.37,7.96,8.37,11.69C757,353.87,762,359.5,766.89,365.23z"/>
			<path class="st25" d="M748.8,397.38c8.74,1.12,17.32,0.79,25.58-2.85c-10.87,1.5-21.73,3.69-33.08-1.57
				c3.66-3.38,6.96-6.33,10.14-9.41c7.04-6.84,13.98-13.78,21.04-20.59c1.24-1.2,2.88-1.97,4.34-2.94c2.26,3.14,4.39,6.39,6.8,9.41
				c2.96,3.71,6.15,7.23,9.24,10.84c-8.58,13.22-19.21,24.62-30.97,35.03c-3.53-4.38-7.12-8.7-10.55-13.16
				C750.27,400.73,749.64,398.98,748.8,397.38z"/>
			<path class="st1" d="M779.63,222.18c3.03,32.27-0.7,63.83-9.93,94.82c-0.42,1.42-0.76,2.88-1.14,4.32
				c-5.54,3.11-11.08,6.22-16.61,9.32c0.95-5.96,1.69-11.97,2.91-17.88c1.82-8.82,3.97-17.57,5.98-26.34
				c4.47-2.67,8.94-5.34,13.41-8.01c-0.32-0.51-0.64-1.02-0.95-1.53c-3.46,1.94-6.91,3.89-10.37,5.83c0.07-1.65-0.14-3.36,0.24-4.93
				c4.23-17.27,8.5-34.53,12.96-51.73C776.52,224.55,778.43,223.46,779.63,222.18z"/>
			<path class="st11" d="M760.84,286.42c-2.01,8.78-4.16,17.53-5.98,26.34c-1.22,5.91-1.96,11.92-2.91,17.88
				c-2.68,1.9-5.37,3.79-8.05,5.69c-2.3,1.22-4.6,2.44-6.9,3.66c1.43-6.92,2.77-13.86,4.32-20.75c2.09-9.33,4.34-18.62,6.52-27.93
				C752.17,289.67,756.51,288.04,760.84,286.42z"/>
			<path class="st8" d="M77.9,302.03c-4.32-1.37-8.65-2.74-12.97-4.11c-4.87-2.87-9.75-5.74-14.62-8.61
				c0.29-0.46,0.58-0.93,0.87-1.39c3.52,1.91,7.03,3.81,10.55,5.72c5.38,2.26,10.77,4.52,16.15,6.78
				C77.88,300.95,77.89,301.49,77.9,302.03z"/>
			<path class="st14" d="M628.85,463.19c0.04,2.66,0.09,5.31,0.14,7.97c-0.11,2.01-0.21,4.02-0.32,6.04c-1.6-0.01-3.2-0.01-4.8-0.02
				c-0.04-4.63-0.08-9.26-0.11-13.89c-0.03-1.96-0.05-3.93-0.08-5.89c1.77-0.01,3.54-0.03,5.31-0.04
				C628.93,459.31,628.89,461.25,628.85,463.19z"/>
			<path class="st25" d="M578.13,422.82c6.22,5.44,12.45,10.89,18.67,16.33c-0.3,0.26-0.6,0.51-0.9,0.76
				c-1.69,0.03-3.38,0.06-5.06,0.1c-2.33-0.61-4.66-1.21-8.07-2.09c1.17,9.54-1.4,17.66-5.95,25.22c-1.28,1.46-2.55,2.92-3.83,4.38
				c-0.05-10.01-0.07-20.01-0.2-30.02c-0.02-1.78-0.76-3.56-0.7-5.32C572.22,427.93,573.59,424.31,578.13,422.82z"/>
			<path class="st20" d="M623.67,457.4c0.03,1.96,0.05,3.93,0.08,5.89c-9.99-0.12-19.98-0.23-29.97-0.35
				c-0.72-5.26-1.45-10.51-2.17-15.77c2.03,0.06,4.07,0.11,6.1,0.17c0.1,8.87,1.23,9.97,10.06,9.99
				C613.07,457.34,618.37,457.38,623.67,457.4z"/>
			<path class="st20" d="M705.95,185.09c-2.41-4.92-4.81-9.83-7.22-14.75c5.03-3.41,10.09-6.76,15.07-10.24
				c5.1-3.56,10.1-7.25,15.15-10.89c8-4.94,16.01-9.86,24-14.81c1.66-1.03,3.26-2.15,4.89-3.23c0.34,0.41,0.67,0.82,1.01,1.22
				c-7.66,6.61-15.31,13.21-22.97,19.82c-9.05,7.66-18.09,15.32-27.14,22.97C707.81,178.49,706.88,181.79,705.95,185.09z"/>
			<path class="st14" d="M705.95,185.09c0.93-3.3,1.86-6.6,2.79-9.9c1.68,0.93,3.35,1.87,5.03,2.8c-1.78,2.34-3.5,4.74-5.42,6.95
				C707.98,185.36,706.78,185.06,705.95,185.09z"/>
			<path class="st23" d="M597.71,447.35c-2.03-0.06-4.07-0.11-6.1-0.17c-1.18-1.9-2.35-3.8-3.77-6.09c1.11-0.39,2.06-0.73,3-1.07
				c1.69-0.03,3.38-0.06,5.06-0.1c0.64,0.03,1.27,0.06,1.91,0.09c0.78,0.58,1.56,1.15,2.34,1.73
				C599.34,443.61,598.52,445.48,597.71,447.35z"/>
			<path class="st13" d="M728.96,149.21c-5.05,3.63-10.05,7.32-15.15,10.89c-4.98,3.48-10.04,6.83-15.07,10.24
				c-1.67-0.66-3.35-1.33-5.02-1.99c-3.26-1.41-6.53-2.81-9.79-4.22c-2.3-1.29-4.67-2.48-6.88-3.91c-0.87-0.56-1.99-1.7-1.92-2.47
				c0.07-0.81,1.35-1.68,2.28-2.19c1.85-1.01,3.83-1.79,5.76-2.67c3.55-1.09,7.09-2.18,10.64-3.27c6.94-2.18,13.88-4.37,20.82-6.56
				C719.39,145.1,724.17,147.16,728.96,149.21z"/>
			<path class="st20" d="M762.93,128.26c-0.57,0.7-1.13,1.4-1.7,2.09c-0.29-0.32-0.59-0.64-0.88-0.96c0.8-0.44,1.6-0.88,2.39-1.32
				C762.75,128.08,762.93,128.26,762.93,128.26z"/>
			<path class="st20" d="M762.75,128.08c0.18-0.12,0.37-0.24,0.55-0.36c-0.12,0.18-0.24,0.36-0.37,0.54
				C762.93,128.26,762.75,128.08,762.75,128.08z"/>
			<path class="st15" d="M252.98,448.22c-13.48,0.01-26.96,0.02-40.44,0.02c-8.59,0-17.17,0.08-25.76-0.08
				c-2.45-0.04-4.95-0.53-7.3-1.24c-5.96-1.81-7.66-4.26-7.66-10.55c0-36.28,0.02-72.56,0.01-108.84
				c-0.01-36.11-0.04-72.23-0.06-108.34c1.15,1.27,2.76,2.34,3.38,3.83c5.01,11.92,9.93,23.88,14.71,35.89
				c6.96,17.5,13.71,35.09,20.73,52.56c0.85,2.12,2.78,3.81,4.2,5.7c-0.76,5.73-1.7,11.44-2.24,17.19
				c-2.06,22.02,4.89,40.39,22.58,54.17c1.7,1.32,4.14,1.7,6.24,2.52c0.94,1.06,1.67,2.63,2.84,3.1c8.5,3.43,17.09,6.65,25.65,9.93
				c-0.99,4.63-1.98,9.25-2.97,13.88c-2.42,5.31-4.83,10.62-7.25,15.93C257.43,438.67,255.2,443.44,252.98,448.22z"/>
			<path class="st26" d="M214.8,317.18c-1.43-1.89-3.35-3.58-4.2-5.7c-7.02-17.48-13.77-35.06-20.73-52.56
				c-4.78-12.02-9.69-23.98-14.71-35.89c-0.63-1.49-2.23-2.56-3.38-3.83c-0.31-5.39-0.81-10.77-0.88-16.16
				c-0.17-14.52-3.36-18.9,18.27-25.83c0.6-0.19,1.12-0.63,1.68-0.95c11.95-1.34,23.87-3.2,35.86-3.9
				c15.35-0.9,30.75-0.86,46.13-1.23c0.35,1.4,0.59,2.85,1.08,4.2c2.26,6.28,4.6,12.53,6.91,18.79
				c-8.47,2.99-16.86,6.07-18.06,15.01c-3.25,2.49-6.7,3.76-7.34,5.88c-2.12,6.97,3.11,11.31,7.44,16.04
				c-3.51,3.78-1.01,6.15,2.38,7.41c3.67,1.37,7.66,1.89,11.51,2.78c-0.64,6.97-1.28,13.95-1.92,20.92c-0.91,3-1.82,5.99-2.74,8.99
				c-9.56,1.97-19.14,3.83-28.67,5.93c-10.59,2.34-17.61,8.96-21.36,18.98C219.44,303.02,217.2,310.13,214.8,317.18z"/>
			<path class="st14" d="M272.84,171.11c-15.38,0.37-30.78,0.33-46.13,1.23c-11.99,0.7-23.91,2.56-35.86,3.9
				c-1.31-4.97-2.63-9.95-3.95-14.92c8.13-0.33,16.26-0.76,24.4-0.97c32.9-0.85,65.8-1.61,98.7-2.46
				c5.31-0.14,10.61-0.56,15.92-0.85c4.41,3.95,8.83,7.9,13.24,11.85c-19.5,0.44-38.99,0.85-58.49,1.35
				C278.06,170.31,275.45,170.81,272.84,171.11z"/>
			<path class="st25" d="M252.98,448.22c2.23-4.78,4.45-9.55,6.68-14.33c0.66,0.73,1.18,1.67,1.99,2.14
				c9.33,5.41,18.61,10.92,28.13,16c3.42,1.83,4.93,3.63,3.23,7.37c-0.31,0.68-0.01,1.64,0,2.46c-15.02,0.01-30.03,0.02-45.05,0.03
				C249.63,457.34,251.3,452.78,252.98,448.22z"/>
			<path class="st14" d="M321.72,149.55c0.99,1.87,1.98,3.73,2.98,5.6c-5.32,0.17-10.65,0.36-15.97,0.5
				c-27.28,0.74-54.56,1.46-81.83,2.19c0.63-1.82,1.27-3.63,1.9-5.45c4.63-0.29,9.25-0.72,13.88-0.84
				C269.02,150.84,295.37,150.21,321.72,149.55z"/>
			<path class="st8" d="M226.89,157.84c27.28-0.73,54.56-1.45,81.83-2.19c5.33-0.14,10.65-0.33,15.97-0.5
				c0.41,0.63,0.81,1.26,1.22,1.89c-5.31,0.29-10.61,0.71-15.92,0.85c-32.9,0.85-65.8,1.61-98.7,2.46
				c-8.14,0.21-16.27,0.64-24.4,0.97c-4.81,0-9.64-0.27-14.44,0.05c-10.11,0.68-17.39,5.12-19.11,16.52
				c-1.98-4.34-1.6-6.24,1.44-10.13c4.92-6.31,11.71-8.31,19.33-8.51C191.72,158.8,209.31,158.32,226.89,157.84z"/>
			<path class="st8" d="M153,250.26c0.52,0.03,1.05,0.07,1.57,0.1c0,5.07,0,10.14,0,15.2c-0.52,0.03-1.05,0.07-1.57,0.1
				C153,260.53,153,255.39,153,250.26z"/>
			<path class="st8" d="M153.45,183.16c0,1.33,0,2.65,0,3.98c-0.36,0.04-0.72,0.08-1.08,0.11c-0.13-1.34-0.26-2.68-0.38-4.02
				C152.47,183.21,152.96,183.19,153.45,183.16z"/>
			<path class="st3" d="M133.68,447.24c0.66-0.01,1.31-0.01,1.97-0.02c-0.03,0.83-0.06,1.65-0.09,2.48
				c-8.55,0.55-17.1,1.1-25.65,1.65c-3.61-0.48-7.22-0.96-10.83-1.44c0.06-0.57,0.13-1.15,0.19-1.72c1.99,0.16,3.99,0.54,5.97,0.46
				C114.72,448.24,124.2,447.71,133.68,447.24z"/>
			<path class="st1" d="M131.72,161.37c-6.27-3.99-9.22-9.62-7.53-16.96c1.37-5.98,5.35-10.01,11.48-11.14
				c6.17-1.13,11.54,0.59,15.36,5.92c0.67,0.94,1.26,1.95,1.89,2.93c-8.56-0.82-15.96,1.14-19.73,9.64
				C131.92,154.62,132.17,158.15,131.72,161.37z"/>
			<path class="st8" d="M622.77,134.2c-3.05,4.22-6.75,3.03-10.45,1.17c-1.87-0.94-3.65-2.09-5.47-3.15
				c0.29-0.26,0.59-0.51,0.88-0.77c0.1-0.15,0.16-0.31,0.18-0.48c4.44,1.92,8.42,6.52,13.89,2.35
				C622.13,133.61,622.45,133.9,622.77,134.2z"/>
			<path class="st17" d="M605.98,26.7c19.01,15.01,38.18,29.84,56.96,45.14c6.32,5.15,6.43,6.29,1.19,12.76
				c-11.92,14.71-24.41,28.96-36.7,43.37c-0.61,0.72-1.62,1.1-2.44,1.63c-3.05,0.08-6.1,0.16-9.15,0.24
				c-0.08-3.31-0.36-6.63-0.18-9.93c0.14-2.61,0.85-5.19,1.3-7.79c4.74-0.47,12.11-7.6,12.91-12.48c0.48-0.48,0.96-0.96,1.45-1.45
				c0.52-0.35,1.04-0.7,1.55-1.05c0,0-0.05,0.05-0.05,0.05c3.11-2.75,6.3-5.41,9.19-8.37c0.26-0.26-1.42-2.41-2.19-3.68l0.04,0.05
				c-0.85-0.68-1.7-1.37-2.55-2.05c-1.15-1.48-2.31-2.97-3.46-4.45c-3.19-2.97-6.39-5.94-9.58-8.91c-1.67-1.37-3.35-2.74-5.02-4.11
				c-1.68-1.33-3.35-2.65-5.03-3.98c-2.92-2.45-5.84-4.9-8.75-7.35c0.31-3.32,0.87-6.63,0.89-9.95
				C606.4,38.5,606.12,32.6,605.98,26.7z"/>
			<path class="st2" d="M616.95,112.13c-0.46,2.59-1.16,5.18-1.3,7.79c-0.18,3.3,0.1,6.62,0.18,9.93c-2.64,0.37-5.27,0.75-7.91,1.12
				c-0.02,0.18-0.08,0.34-0.18,0.48c-0.28-0.17-0.58-0.26-0.9-0.27c-8.35-5.96-16.99-11.54-24.96-17.97
				c-8.62-6.96-16.66-14.64-24.82-22.15c-2.18-2.01-3.18-4.58-1.37-7.62c11.75-19.73,24.47-38.73,41.06-54.83
				c1.06-1.03,2.27-2.39,3.56-2.59c1.81-0.27,3.77,0.41,5.66,0.68c0.15,5.9,0.42,11.8,0.38,17.7c-0.02,3.32-0.58,6.63-0.89,9.95
				c-1.14-0.63-2.3-1.24-3.42-1.9c-6.15-3.61-7.73-3.09-11.22,3.75c0,0,0.02-0.05,0.02-0.05c-5.1,6.6-10.37,13.08-15.21,19.87
				c-1.76,2.47-1.54,5.17,2.67,5.21c0.27,0.36,0.54,0.72,0.81,1.08c1.72,2.12,3.1,4.7,5.22,6.28
				C595.1,96.58,606.06,104.31,616.95,112.13z"/>
			<path class="st4" d="M607.92,130.96c2.64-0.37,5.27-0.75,7.91-1.12c3.05-0.08,6.1-0.16,9.15-0.24c-0.45,0.79-0.9,1.58-1.35,2.37
				c-0.37,0.3-0.73,0.59-1.1,0.89c-0.35-0.02-0.59,0.14-0.72,0.46C616.34,137.49,612.36,132.88,607.92,130.96z"/>
			<path class="st22" d="M133.68,447.24c-9.48,0.48-18.96,1-28.45,1.4c-1.98,0.08-3.98-0.29-5.97-0.46
				c-0.06,0.57-0.13,1.15-0.19,1.72c3.61,0.48,7.22,0.96,10.83,1.44c-0.72,2.37-1.44,4.74-2.16,7.11
				c-16.4-8.78-31.63-19.2-45.02-32.2c5.62-5.28,11.59-10.29,14.17-17.97c1.97-0.72,3.93-1.43,5.9-2.14
				c1.58,0.63,3.49,0.88,4.7,1.94c11.36,9.92,22.53,20.06,33.92,29.95C125.27,441.37,129.58,444.18,133.68,447.24z"/>
			<path class="st27" d="M612.84,398.2c-2.46-0.74-5.19-1.04-7.33-2.31c-4.15-2.48-7.26-1.84-10.08,1.9
				c-0.67,0.89-1.67,1.55-2.51,2.31c-3.75-7.64-7.49-15.27-11.24-22.91c-2.41-5.28-4.42-10.81-7.4-15.75
				c-1.65-2.73-4.92-4.48-7.47-6.68c-2.28-5.76-4.77-11.46-6.75-17.32c-0.85-2.53-0.65-5.42-0.99-8.74
				c-0.98-0.91-3.55-2.25-4.46-4.32c-3.25-7.37-5.84-15.02-8.86-22.5c-2.08-5.15-4.61-10.13-6.63-15.3
				c-1.34-3.45-2.14-7.11-3.18-10.68c1.97,0.12,3.94,0.32,5.91,0.34c5.99,0.06,11.98,0.05,17.97,0.06
				c18.75-1.43,33.99-8.81,44.6-25.04c5.72-8.74,9.13-17.98,9.45-28.34c0.2-6.61-1.81-8.01-8.24-5.89
				c-15.14,4.99-30.26,10.06-45.39,15.06c-5.88,1.94-7.68,0.67-7.45-5.57c0.59-15.44,1.39-30.88,1.98-46.32
				c0.22-5.76-1.27-7.17-6.92-7.1c-14.34,0.18-25.58,7.25-35.96,16.24c-1.3-3.82-2.53-7.68-3.93-11.47
				c-1.78-4.82-3.78-9.53-8.13-12.72c15.79-0.36,31.57-0.71,47.36-1.09c27.08-0.65,54.16-1.3,81.24-2.01
				c3.97-0.1,7.94-0.54,11.9-0.83c12.95-0.94,17.4,5.11,20.19,15.65c2.7,10.16,4.39,20.81,4.82,31.31
				c0.69,16.76-0.02,33.58-0.16,50.37c-0.01,0.99-0.26,1.98-0.29,2.97c-0.38,16.29-0.69,32.58-1.12,48.86
				c-0.21,7.97-0.65,15.93-0.99,23.89c-4.12-5.81-10.7-5.58-15.98-6.11c0-3.94,1.1-7.78-0.24-10.34c-2.59-4.95-7.8-4.91-13.27-3.66
				c-3.39-6.29-6.45-12.72-10.21-18.7c-3.82-6.07-10.83-7.55-17.51-4.42c-5.89,3-6.76,5.8-3.81,12.23
				c-2.61,4.58-5.89,8.91-7.66,13.79c-2.58,7.15,0.11,10.74,7.76,12.07c1,3.64,2.01,7.28,3.01,10.93c-0.76,0.81-1.84,1.48-2.24,2.44
				c-2.92,6.99-5.95,13.95-8.46,21.09c-2.09,5.97-1.14,11.9,2.87,16.86c3.62,4.48,7.74,8.55,11.64,12.81
				C610.1,394.92,611.47,396.56,612.84,398.2z M611.55,198.18c-1.01-3.06-1.45-5.2-2.38-7.1c-7.23-14.88-20.14-21.43-35.69-23.74
				c-3.65-0.54-5.92,1.9-6.51,5.48c-2.5,15.17-4.95,30.35-7.35,45.54c-0.7,4.41,1.24,6.02,5.33,4.17
				c13.91-6.31,27.78-12.69,41.54-19.31C608.57,202.22,609.97,199.79,611.55,198.18z"/>
			<path class="st4" d="M683.92,164.12c3.26,1.41,6.53,2.81,9.79,4.22c-1.01,37.94-2.02,75.88-3.04,113.82
				c-3.1-0.68-6.19-1.35-9.29-2.03c0.3-15.43,0.55-30.86,0.9-46.29c0.17-7.63,0.61-15.26,0.78-22.9
				C683.4,195.34,683.64,179.73,683.92,164.12z"/>
			<path class="st5" d="M605.6,291.05c6.68-3.12,13.7-1.65,17.51,4.43c3.76,5.98,6.81,12.41,10.21,18.7
				c5.47-1.25,10.69-1.29,13.27,3.66c1.34,2.56,0.24,6.4,0.24,10.34c5.28,0.54,11.85,0.31,15.98,6.11
				c-0.05,4.33-0.1,8.65-0.14,12.98c-0.21,0-0.41-0.01-0.62-0.02c-1.73-1.18-3.71-2.11-5.15-3.57
				c-14.42-14.63-28.75-29.33-43.1-44.03C611.04,296.82,608.33,293.92,605.6,291.05z"/>
			<path class="st27" d="M662.05,347.25c0.21,0.01,0.41,0.02,0.62,0.02c-0.36,15.01-0.73,30.02-1.09,45.02
				c-0.24-0.01-0.48-0.04-0.72-0.09c-3.29-6.77-6.57-13.53-9.86-20.3c-0.53-1.12-1.05-2.24-1.58-3.36c2.67-1.76,6.9-3.04,7.64-5.41
				c1.06-3.38-0.45-7.55-0.87-11.49C657.67,350.54,659.86,348.89,662.05,347.25z"/>
			<path class="st24" d="M272.84,171.11c2.61-0.3,5.22-0.81,7.83-0.87c19.49-0.5,38.99-0.91,58.49-1.35
				c8.77,5.24,17.71,10.22,26.26,15.8c7.64,4.98,9.41,12.66,5.37,20.87c-1.31,2.66-2.96,5.18-4.73,7.57
				c-1.75,2.36-3.85,4.47-5.24,7.7c4.61-2.36,9.22-4.71,13.83-7.07c3.41,7.04,7.06,13.99,10.19,21.16
				c4.27,9.79,8.19,19.74,12.12,29.68c0.64,1.63,0.59,3.53,0.86,5.3c-13.88,5.9-28.43,7.58-42.81,3.6
				c-16.23-4.49-32.47-6.48-49.19-5.28c-1,0.01-2,0.03-2.99,0.04c-0.29-0.11-0.59-0.18-0.89-0.22c-0.23-0.63-0.46-1.26-0.7-1.9
				c-0.12-4.97-0.24-9.94-0.36-14.9c8.76-2.93,9.16-3.78,9.15-12.79c-0.01-10.4-3.37-19.88-7.15-29.31c1.37-0.94,2.8-1.81,4.11-2.83
				c4.33-3.38,5.81-8.81,3.86-13.88c-2.44-6.32-7.02-9.06-10.8-5.71c-5.64,5-12.34,6.18-19.22,7.37
				c-2.31-6.26-4.64-12.51-6.91-18.79C273.43,173.96,273.19,172.52,272.84,171.11z"/>
			<path class="st6" d="M87.67,350.98c-1.59-8.03-3.14-16.07-4.78-24.1c-1.67-8.19-3.42-16.37-5.14-24.55
				c1.34,0.78,3.34,1.23,3.91,2.39c8.26,16.76,16.33,33.61,24.68,50.92c-2.8,0.22-5.31,0.42-8.05,0.63
				c0.27,0.48,0.39,0.84,0.48,0.83c11.3-1.32,12.74,8.06,16.36,15.07c-0.85-0.43-1.7-0.86-2.55-1.29
				C104.28,364.25,95.97,357.62,87.67,350.98z"/>
			<path class="st19" d="M511.9,189.35c10.37-8.98,21.62-16.06,35.96-16.24c5.65-0.07,7.14,1.35,6.92,7.1
				c-0.58,15.44-1.39,30.88-1.98,46.32c-0.24,6.24,1.57,7.51,7.45,5.57c15.14-5,30.25-10.07,45.39-15.06
				c6.43-2.12,8.44-0.72,8.24,5.89c-0.32,10.37-3.73,19.6-9.45,28.34c-10.61,16.23-25.85,23.6-44.6,25.04
				c-1.08-1.23-1.99-2.7-3.27-3.65c-18.43-13.65-36.89-27.26-55.4-40.8c-2.48-1.81-5.28-3.2-7.92-4.78
				C493.76,211.68,501.91,200.06,511.9,189.35z"/>
			<path class="st24" d="M426.76,283.98c3.97,9.28,8.1,18.49,11.84,27.86c2.08,5.2,3.5,10.66,5.22,16
				c-6.99,0.16-13.99,0.32-20.98,0.48c-11.67,0.01-23.33,0.02-35,0.03c-7.39-0.92-14.11,0.01-17.9,7.46
				c-3.08,6.05-5.82,12.27-8.72,18.41c-6.82,14.19-13.61,28.39-20.48,42.56c-0.79,1.62-1.95,3.06-2.93,4.59
				c-2.93-0.21-5.85-0.42-8.78-0.62c1.57-1.35,4.31-2.52,4.54-4.07c2.03-13.73,4.33-27.49,5.13-41.32c0.81-14.01,0-28.11-0.1-42.18
				c11.19,0.34,22.43,1.48,33.57,0.83c14.24-0.83,27.56-5.29,38.79-14.68C416.23,294.21,421.5,289.1,426.76,283.98z"/>
			<path class="st4" d="M439.92,394.18c-1.27,2.87-2.64,5.7-3.77,8.62c-1.51,3.89-4.43,5.98-8.38,5.97
				c-20.29-0.01-40.57-0.21-60.86-0.35c-0.45-4.23,0.79-6.77,5.72-6.38c0.88,0.07,2.12-1.43,2.79-2.47
				c0.89-1.37,1.03-3.34,2.11-4.47c5.4-5.65,10.82-11.3,16.59-16.55c2.82-2.57,6.42-4.27,9.67-6.37c2.83,4.93,6.63,5.5,9.6,0.91
				c1.65-2.55,1.99-5.96,2.92-8.98c-0.28-1.46-0.56-2.91-0.84-4.37c1.27-1.51,2.42-3.14,3.83-4.5c7.58-7.34,15.29-14.55,22.8-21.95
				c1.29-1.27,1.85-3.28,2.75-4.94c3.82-0.07,7.64-0.29,11.45-0.19c5.3,0.14,7.97,3.91,6.01,8.76
				c-6.95,17.21-14.08,34.35-21.06,51.55C440.52,390.26,440.35,392.27,439.92,394.18z"/>
			<path class="st28" d="M410.97,299.33c-11.23,9.39-24.55,13.85-38.79,14.68c-11.14,0.65-22.38-0.49-33.57-0.83
				c-1.26-5.28-2.51-10.56-3.77-15.84c0.13-5.87-1.77-11.05-5.77-15.54c0.67,2.11,1.34,4.22,2,6.33c-1.23-0.32-2.71-0.31-3.66-1.01
				c-3.56-2.63-7.06-5.37-10.38-8.3c-3.85-3.4-7.48-7.05-11.21-10.59c16.72-1.21,32.95,0.79,49.19,5.28
				c14.38,3.98,28.93,2.29,42.81-3.6c0.65-0.19,1.3-0.37,1.94-0.56C405.58,278.56,409.18,288.61,410.97,299.33z"/>
			<path class="st12" d="M410.97,299.33c-1.79-10.72-5.39-20.77-11.21-29.99c18.31-9.21,30.72-23.95,40.06-41.83
				c1.71-3.27,4.93-6.72,8.25-8c11.23-4.31,22.81-7.68,34.26-11.41c0.45,0.64,0.9,1.28,1.35,1.92c-1.03,1.34-1.97,2.78-3.14,3.99
				c-0.52,0.53-1.51,0.71-2.32,0.84c-6.68,1.06-10.59,3.83-9.63,11.72c0.32,2.63-2.05,6.55-4.37,8.33
				c-5.21,3.97-10.67,8.1-18.05,7.39c-0.96-0.09-2.81,1.67-3.06,2.83c-3.05,13.98-8.68,26.84-16.35,38.86
				C421.5,289.1,416.23,294.21,410.97,299.33z"/>
			<path class="st9" d="M403.79,372.18c-3.25,2.1-6.85,3.8-9.67,6.37c-5.77,5.25-11.2,10.9-16.59,16.55
				c-1.08,1.13-1.22,3.09-2.11,4.47c-0.67,1.04-1.91,2.54-2.79,2.47c-4.93-0.39-6.17,2.15-5.72,6.38
				c-7.66,0.01-15.33,0.02-22.99,0.04c0.02-7.22,7.01-9.12,10.8-13.16c8.91-9.51,19.15-17.77,28.68-26.71
				c11-10.31,21.91-20.71,32.67-31.28c2.65-2.6,4.55-5.97,6.79-8.99c6.99-0.16,13.99-0.32,20.98-0.48c0.34,0.17,0.68,0.34,1.02,0.51
				c-0.9,1.67-1.46,3.67-2.75,4.94c-7.51,7.41-15.22,14.62-22.8,21.95c-1.41,1.36-2.56,2.99-3.82,4.5c-3.44-3.18-6.62-1.95-8.6,1.36
				c-1.58,2.64-1.95,6-2.86,9.03C403.94,370.82,403.87,371.5,403.79,372.18z"/>
			<path class="st29" d="M493.23,227.07c2.65,1.58,5.44,2.97,7.92,4.78c18.51,13.54,36.97,27.15,55.4,40.8
				c1.29,0.95,2.19,2.42,3.27,3.65c-5.99-0.01-11.98,0-17.97-0.06c-1.97-0.02-3.94-0.22-5.91-0.34c-12-3.36-23.34-7.94-31.68-17.78
				C496.68,249.19,492.39,239.03,493.23,227.07z"/>
			<path class="st11" d="M566.82,354.77c2.54,2.19,5.82,3.94,7.47,6.68c2.98,4.94,4.99,10.46,7.4,15.75
				c-1.34-0.51-2.98-0.7-3.97-1.59c-6.34-5.7-12.56-11.52-18.73-17.41c-0.71-0.68-0.78-2.02-1.15-3.05
				C560.83,355.02,563.82,354.89,566.82,354.77z"/>
			<path class="st27" d="M523.71,354.66c-0.91,0.06-1.82,0.12-2.72,0.18C521.89,354.78,522.8,354.72,523.71,354.66z"/>
			<path class="st1" d="M422.85,328.32c-2.24,3.02-4.14,6.39-6.79,8.99c-10.76,10.56-21.67,20.97-32.67,31.28
				c-9.54,8.94-19.77,17.2-28.68,26.71c-3.79,4.04-10.77,5.94-10.8,13.16c-2.72-0.01-5.44-0.02-8.16-0.03
				c0.69-2.36,1.37-4.71,2.06-7.07c0.99-1.52,2.15-2.97,2.93-4.59c6.86-14.17,13.66-28.37,20.48-42.56c1.18-0.49,2.6-0.71,3.49-1.52
				c7.21-6.55,14.38-13.14,21.38-19.9c1.04-1.01,1.19-2.94,1.75-4.45C399.51,328.34,411.18,328.33,422.85,328.32z"/>
			<path class="st22" d="M293,461.87c-0.02-0.83-0.31-1.78,0-2.46c1.7-3.74,0.19-5.55-3.23-7.37c-9.51-5.08-18.79-10.59-28.13-16
				c-0.81-0.47-1.33-1.42-1.99-2.14c2.42-5.31,4.83-10.62,7.25-15.92c1.78,0.38,3.55,0.76,5.34,1.12c18,3.65,36.23,3.22,54.45,2.97
				c-1.28,8.71-2.57,17.42-3.85,26.13c-0.66,3.55-1.06,7.18-2.13,10.6c-0.42,1.36-2.29,3.12-3.59,3.2
				c-5.08,0.31-10.2,0.01-15.31-0.06c-2.77-5.15-4.87-5.17-8.19-0.07l-0.31,0.1L293,461.87z"/>
			<path class="st29" d="M326.68,422.06c-18.22,0.24-36.44,0.68-54.45-2.97c-1.78-0.36-3.56-0.75-5.34-1.12
				c0.99-4.63,1.98-9.25,2.97-13.88c3.38,0.65,7.32,0.4,10.05,2.1c11.44,7.1,23.55,6.43,35.92,4.18c1.47-0.27,2.81-1.21,4.21-1.85
				c3.66,0.2,7.31,0.39,10.97,0.59C329.57,413.43,328.12,417.74,326.68,422.06z"/>
			<path class="st4" d="M331.01,409.11c-3.66-0.2-7.31-0.39-10.97-0.59c-1.4-0.18-2.8-0.36-4.2-0.54c-0.65-3.07-3.2-7.01,3.15-6.87
				c3.35-0.12,6.69-0.25,10.04-0.37c2.93,0.21,5.85,0.42,8.78,0.62c-0.69,2.36-1.37,4.71-2.06,7.07
				C334.17,408.66,332.59,408.88,331.01,409.11z"/>
			<path class="st25" d="M293.62,461.86c3.32-5.1,5.42-5.08,8.19,0.07C299.08,461.91,296.35,461.89,293.62,461.86z"/>
			<path class="st6" d="M690.9,287.09c5.63-6.91,11.11-13.94,16.9-20.71c16.98-19.85,35.49-38.08,57.12-52.94
				c-0.47,3.4-0.65,6.88-1.45,10.2c-2.25,9.24-4.87,18.39-7.07,27.64c-0.38,1.6,0.59,3.53,0.94,5.3
				c-4.68,10.53-9.36,21.07-14.38,32.38c-7.35-11.71-7.55-24.36-10.43-36.62c-0.67,0.74-1.08,0.97-1.07,1.2
				c0.45,12.05,3.21,23.51,8.41,34.43c0.83,1.75,1.16,4.49,0.38,6.15c-5.4,11.59-11.1,23.04-16.81,34.48
				c-2.33,4.67-4.89,9.21-7.67,14.41c-8.21-12.92-9.61-26.88-11.45-41.19c-0.94,0.88-1.32,1.06-1.34,1.28
				c-0.12,0.98-0.21,1.98-0.18,2.96c0.36,12.89,3.74,24.98,10.14,36.15c1.34,2.33,1.47,3.94,0.13,6.24
				c-3.24,5.57-6.18,11.32-9.23,17c-4.97,5.31-9.94,10.61-14.91,15.92c0.32-25.29,0.6-50.59,1.01-75.88
				C690.03,299.36,690.56,293.22,690.9,287.09z"/>
			<path class="st8" d="M703.84,365.45c3.06-5.68,6-11.43,9.23-17c1.34-2.3,1.2-3.91-0.13-6.24c-6.4-11.16-9.78-23.25-10.14-36.15
				c-0.03-0.99,0.06-1.98,0.18-2.96c0.03-0.22,0.4-0.41,1.34-1.28c1.84,14.31,3.24,28.27,11.45,41.19c2.78-5.2,5.34-9.74,7.67-14.41
				c5.7-11.44,11.41-22.89,16.81-34.48c0.77-1.66,0.45-4.39-0.38-6.15c-5.2-10.92-7.96-22.38-8.41-34.43
				c-0.01-0.22,0.39-0.46,1.07-1.2c2.88,12.26,3.08,24.91,10.43,36.62c5.02-11.31,9.7-21.85,14.38-32.38
				c4-9.35,8.01-18.71,12.01-28.06c0.57,0.25,1.14,0.5,1.71,0.75c-8.46,19.8-16.92,39.59-26.06,60.98
				c6.83-2.87,12.38-5.21,17.94-7.55c3.46-1.94,6.91-3.89,10.37-5.83c0.32,0.51,0.64,1.02,0.95,1.53
				c-4.47,2.67-8.94,5.34-13.41,8.01c-4.34,1.63-8.67,3.26-13.01,4.89c-1.95,1.45-4.72,2.49-5.71,4.43
				c-7.64,15.02-14.94,30.21-22.31,45.36c-0.53,1.09-0.84,2.29-1.51,4.16c4.85-0.57,8.93-1.04,13.02-1.52
				c-1.25,0.9-2.51,1.8-3.76,2.7c-8.21-0.72-13.86,2.39-16.17,10.67c-0.4,1.42-1.23,2.71-1.87,4.06
				C707.63,362.6,705.74,364.02,703.84,365.45z"/>
			<path class="st6" d="M709.53,361.17c0.63-1.35,1.47-2.64,1.87-4.06c2.31-8.28,7.96-11.39,16.17-10.67
				c-4.92,4.22-9.85,8.44-14.77,12.66C711.7,359.79,710.62,360.48,709.53,361.17z"/>
			<path class="st14" d="M543.95,375.4c4.96-1.7,6.94,0.24,7.96,7.79c-2.7,4.07-5.52,4.15-7.3-0.19
				C543.68,380.76,544.13,377.95,543.95,375.4z"/>
			<path class="st13" d="M597.71,447.35c0.81-1.87,1.63-3.74,2.44-5.61c11.91,0.07,23.81,0.15,35.72,0.22c0,0-0.1,0.4-0.1,0.4
				c2.52,2.5,5.02,5.02,7.55,7.51c2.5,2.46,5.02,4.89,7.54,7.34c-7.29,0.05-14.59,0.1-21.88,0.15c-1.77,0.01-3.54,0.03-5.31,0.04
				c-5.3-0.02-10.6-0.06-15.9-0.07C598.93,457.32,597.81,456.21,597.71,447.35z"/>
			<path class="st12" d="M597.81,440.01c-0.64-0.03-1.27-0.06-1.91-0.09c0.3-0.26,0.6-0.51,0.9-0.76
				C597.14,439.44,597.47,439.72,597.81,440.01z"/>
			<path class="st14" d="M650.86,457.21c-2.51-2.45-5.04-4.88-7.54-7.34c-2.53-2.49-5.04-5.01-7.55-7.51
				c5.71-0.33,11.42-0.66,17.13-0.99c5.07,3.04,2.7,7.97,2.65,12.07C655.54,454.72,652.51,455.96,650.86,457.21z"/>
			<path class="st25" d="M650.99,371.9c3.29,6.77,6.57,13.53,9.86,20.3c-8.92,1.49-17.17,5.7-25.97,7.16
				c-6.84,1.13-14.06-0.07-21.11-0.24c-0.32-0.33-0.65-0.65-0.97-0.98c0,0,0.04,0.07,0.04,0.07c-1.37-1.64-2.74-3.28-4.11-4.93
				c12.7-5.86,25.43-11.67,38.07-17.65C648.42,374.86,649.61,373.17,650.99,371.9z"/>
			<path class="st27" d="M612.81,398.14c0.32,0.33,0.65,0.65,0.97,0.98C613.45,398.79,613.13,398.46,612.81,398.14z"/>
			<path class="st11" d="M762.93,282.7c-5.56,2.34-11.11,4.67-17.94,7.55c9.14-21.39,17.6-41.18,26.06-60.98
				c-0.57-0.25-1.14-0.5-1.71-0.75c-4,9.35-8.01,18.7-12.01,28.06c-0.35-1.77-1.32-3.7-0.94-5.3c2.2-9.25,4.82-18.4,7.07-27.64
				c0.81-3.32,0.99-6.8,1.45-10.2c3.37-2.56,7-2.59,10.79-1.11c1.31,3.28,2.62,6.57,3.92,9.85c-1.2,1.28-3.1,2.37-3.49,3.86
				c-4.47,17.21-8.73,34.46-12.96,51.73C762.79,279.34,763,281.06,762.93,282.7z"/>
			<path class="st3" d="M82.8,406.13c-1.97,0.71-3.93,1.43-5.9,2.14c-9.42,1.48-18.64,1-27.54-3.09c11.24,1.59,22.42,2.89,33.4-1.07
				C82.78,404.79,82.79,405.46,82.8,406.13z"/>
			<path class="st1" d="M313.15,81.18c0.06,4.54-3.13,7.92-7.58,8.03c-4.51,0.11-7.89-3.07-8.03-7.56c-0.15-4.67,3.32-8.4,7.82-8.39
				C309.67,73.27,313.09,76.75,313.15,81.18z"/>
			<path class="st6" d="M731.32,343.74c-4.08,0.48-8.17,0.95-13.02,1.52c0.67-1.86,0.98-3.07,1.51-4.16
				c7.38-15.15,14.67-30.34,22.31-45.36c0.99-1.94,3.76-2.98,5.71-4.43c-2.18,9.31-4.43,18.6-6.52,27.93
				c-1.55,6.89-2.88,13.83-4.32,20.75C735.11,341.24,733.21,342.49,731.32,343.74z"/>
			<path class="st29" d="M329.04,400.74c-3.35,0.12-6.69,0.25-10.04,0.37c-5.39-0.13-10.78-0.25-16.17-0.38
				c-0.98-0.71-1.99-2.07-2.93-2.02c-2.41,0.13-5.02,1.76-7.15,1.22c-8.81-2.23-16.83-6.29-23.98-11.99
				c-2.3-21.59-6.01-42.87-12.91-63.68c-0.75,0.46-1.12,0.57-1.29,0.81c-0.47,0.68-0.9,1.39-1.28,2.12
				c-7.97,15.02-9.47,30.24-1.35,45.75c-3.52,6.04-7.05,12.07-10.57,18.11c-2.1-0.82-4.54-1.19-6.24-2.52
				c-17.69-13.78-24.63-32.15-22.58-54.17c0.54-5.75,1.48-11.46,2.24-17.19c2.4-7.05,4.64-14.15,7.25-21.12
				c3.75-10.02,10.77-16.64,21.36-18.98c9.53-2.11,19.11-3.97,28.67-5.93c-0.78,3.11,0.75,4.69,3.37,6.23
				c7.31,4.32,14.21,2.04,21.18-0.7c3.43-1.35,5.4-3.69,5.27-7.52c0.31-0.29,0.61-0.59,0.92-0.88c1-0.01,2-0.03,2.99-0.04
				c3.73,3.54,7.36,7.18,11.21,10.59c3.32,2.93,6.82,5.67,10.38,8.3c0.95,0.7,2.43,0.69,3.66,1.01c1.26,3.07,2.51,6.14,3.77,9.21
				c1.26,5.28,2.52,10.56,3.77,15.84c0.1,14.06,0.9,28.17,0.09,42.18c-0.8,13.83-3.1,27.59-5.13,41.32
				C333.35,398.22,330.61,399.39,329.04,400.74z"/>
			<path class="st22" d="M241.37,391.05c3.52-6.04,7.05-12.07,10.57-18.11c5.61,5,11.22,10,16.83,15
				c7.14,5.7,15.17,9.76,23.98,11.99c2.13,0.54,4.74-1.1,7.15-1.22c0.94-0.05,1.95,1.3,2.93,2.02c-1.52,1.05-3.04,2.1-5.71,3.95
				c7.23,1.27,12.98,2.29,18.73,3.3c1.4,0.18,2.8,0.36,4.2,0.54c-1.4,0.63-2.74,1.58-4.21,1.85c-12.37,2.25-24.48,2.92-35.92-4.18
				c-2.73-1.7-6.67-1.45-10.05-2.1c-8.56-3.28-17.15-6.5-25.65-9.93C243.04,393.68,242.31,392.11,241.37,391.05z"/>
			<path class="st1" d="M280.83,194.11c6.88-1.19,13.58-2.38,19.22-7.37c3.78-3.35,8.35-0.61,10.8,5.71
				c1.96,5.07,0.48,10.5-3.86,13.88c-1.31,1.02-2.73,1.89-4.11,2.83c-6.45,2.14-12.9,4.31-19.36,6.42
				c-5.37,1.76-6.23,3.43-4.41,8.87c0.6,1.81,1.15,3.63,1.73,5.45c-0.42,0.14-0.83,0.29-1.25,0.43c-0.91-1.48-1.53-3.31-2.79-4.34
				c-1.33-1.08-3.28-1.39-4.95-2.04c-0.54,1.88-1.95,4.08-1.41,5.58c0.84,2.37,3.09,4.2,4.55,6.39c1.03,1.54,1.75,3.28,2.61,4.93
				c-0.32,0.04-0.6,0.17-0.84,0.39c-3.85-0.89-7.84-1.4-11.51-2.78c-3.39-1.26-5.89-3.63-2.38-7.41c-4.33-4.73-9.56-9.07-7.44-16.04
				c0.64-2.12,4.09-3.39,7.34-5.88C263.97,200.17,272.35,197.09,280.83,194.11z"/>
			<path class="st22" d="M276.74,241.23c0.24-0.22,0.52-0.35,0.84-0.39c5.68,8.14,13.74,10.95,23.3,10.42
				c0.12,4.97,0.24,9.94,0.35,14.9c-1.97-0.23-3.94-0.38-5.89-0.69c-6.85-1.08-13.68-2.21-20.52-3.32
				C275.46,255.17,276.1,248.2,276.74,241.23z"/>
			<path class="st25" d="M274.82,262.15c6.84,1.11,13.68,2.24,20.52,3.32c1.95,0.31,3.92,0.46,5.89,0.69
				c0.23,0.63,0.47,1.26,0.7,1.9c-0.01,0.37-0.02,0.73-0.03,1.09c0.13,3.83-1.85,6.17-5.27,7.52c-6.97,2.75-13.87,5.03-21.18,0.7
				c-2.62-1.55-4.15-3.12-3.37-6.23C273,268.14,273.91,265.14,274.82,262.15z"/>
			<path class="st18" d="M631.31,98.2c-0.48,0.48-0.96,0.96-1.45,1.45c-2.8,2.82-5.73,5.51-8.34,8.49
				c-2.06,2.36-4.12,2.49-6.47,0.82c-6.18-4.4-12.31-8.87-18.47-13.31c2.45-3.9,4.9-7.8,7.36-11.7c10.99,2.6,21.97,5.21,32.71,7.75
				c-0.89,1.28-2.37,3.39-3.84,5.49c0,0,0.05-0.05,0.05-0.05C632.34,97.51,631.82,97.85,631.31,98.2z"/>
			<path class="st18" d="M633.84,78.69c1.15,1.48,2.31,2.97,3.46,4.45c0.85,0.68,1.7,1.37,2.55,2.05c0,0-0.04-0.05-0.04-0.05
				c0.11,0.94,0.22,1.88,0.48,4.05c-8.61-1.21-16.72-2.2-24.77-3.57c-2.78-0.47-5.41-1.86-8.11-2.83c2.52-4,5.03-8,7.55-12
				c2.03,1.55,4.04,3.14,6.15,4.58c0.18,0.12,1.05-0.77,1.59-1.19c1.08-0.36,2.16-0.73,3.24-1.09
				C628.57,74.96,631.21,76.83,633.84,78.69z M628.61,82c0.16-0.18,0.31-0.35,0.47-0.53c-1.81-1.44-3.63-2.89-5.44-4.33
				c0.18-0.15,0.37-0.31,0.55-0.46C625.66,78.46,627.14,80.23,628.61,82z"/>
			<path class="st15" d="M586.55,87.6c-2.47-1.76-4.94-3.51-7.43-5.28c-0.28-0.37-0.55-0.73-0.82-1.09
				c-2.22-1.91-1.97-3.87-0.31-6.06c3.48-4.61,6.91-9.26,10.24-13.99c1.08-1.53,1.76-3.34,2.62-5.03c0,0-0.02,0.05-0.02,0.05
				c1.08-0.28,2.15-0.56,3.36-0.88c1.68,6.29,3.34,12.5,5,18.7c-1.13,0.58-2.57,0.89-3.32,1.79
				C592.65,79.64,589.64,83.65,586.55,87.6z"/>
			<path class="st10" d="M650.99,371.9c-1.39,1.26-2.57,2.96-4.2,3.72c-12.64,5.98-25.37,11.79-38.07,17.65
				c-3.9-4.25-8.02-8.33-11.64-12.81c-4.01-4.96-4.97-10.89-2.87-16.86c2.5-7.14,5.54-14.1,8.46-21.09c0.4-0.96,1.48-1.63,2.24-2.44
				c4.6,1.65,9.06,1.99,13.14-1.37c1.71,0.98,3.73,1.65,5.08,3c8.85,8.86,17.55,17.87,26.29,26.84
				C649.94,369.66,650.47,370.78,650.99,371.9z M634.84,377.16c-0.14-0.07-0.29-0.14-0.43-0.21c0.13,0.08,0.27,0.16,0.4,0.24
				c0.15,0.07,0.3,0.15,0.45,0.22C635.12,377.33,634.98,377.25,634.84,377.16z"/>
			<path class="st28" d="M611.55,198.18c-1.57,1.62-2.98,4.04-5.06,5.04c-13.76,6.62-27.63,13.01-41.54,19.31
				c-4.09,1.85-6.02,0.25-5.33-4.17c2.4-15.19,4.85-30.37,7.35-45.54c0.59-3.59,2.86-6.03,6.51-5.48
				c15.55,2.31,28.46,8.85,35.69,23.74C610.1,192.98,610.54,195.11,611.55,198.18z"/>
			<path class="st21" d="M649.42,368.54c-8.75-8.96-17.45-17.97-26.29-26.84c-1.34-1.35-3.37-2.02-5.08-3
				c-1.78-4.19-3.55-8.37-5.33-12.56c2.8-2.73,5.76-5.33,8.3-8.28c0.63-0.73-0.05-2.6-0.13-3.95c-1.32,0.16-2.76,0.04-3.91,0.57
				c-1.19,0.54-2.09,1.71-3.9,3.3c0.88-6.23,2.28-11.52-3-15.14c-2.87-1.97-5.65-1.32-8.27,0.64c-2.95-6.43-2.08-9.23,3.81-12.23
				c2.73,2.87,5.43,5.76,8.2,8.6c14.34,14.7,28.68,29.41,43.1,44.03c1.44,1.46,3.42,2.39,5.15,3.57c-2.19,1.65-4.38,3.29-5.85,4.4
				c0.42,3.93,1.92,8.11,0.87,11.49C656.32,365.5,652.09,366.78,649.42,368.54z"/>
			<path class="st12" d="M601.8,303.28c2.62-1.96,5.4-2.61,8.27-0.64c5.28,3.62,3.88,8.91,3,15.14c1.81-1.58,2.71-2.75,3.9-3.3
				c1.15-0.53,2.6-0.41,3.91-0.57c0.08,1.35,0.76,3.22,0.13,3.95c-2.55,2.95-5.5,5.55-8.3,8.28c-3.61,1-7.21,2.01-10.82,3.01
				c-7.64-1.34-10.34-4.92-7.76-12.07C595.9,312.2,599.19,307.86,601.8,303.28z"/>
			<path class="st25" d="M601.9,329.15c3.61-1,7.21-2.01,10.82-3.01c1.78,4.19,3.55,8.37,5.33,12.56
				c-4.07,3.37-8.54,3.02-13.14,1.37C603.9,336.43,602.9,332.79,601.9,329.15z"/>
			<path class="st12" d="M300.88,251.25c-9.56,0.54-17.62-2.28-23.3-10.42c-0.86-1.65-1.58-3.39-2.61-4.93
				c-1.47-2.19-3.71-4.02-4.55-6.39c-0.53-1.5,0.87-3.69,1.41-5.58c1.68,0.65,3.63,0.96,4.95,2.04c1.27,1.03,1.89,2.86,2.79,4.34
				c0.42-0.14,0.83-0.29,1.25-0.43c-0.57-1.82-1.13-3.64-1.73-5.45c-1.81-5.43-0.96-7.11,4.41-8.87c6.46-2.11,12.91-4.28,19.36-6.42
				c3.78,9.43,7.14,18.92,7.15,29.31C310.04,247.47,309.64,248.32,300.88,251.25z"/>
			<path class="st28" d="M301.9,269.15c0.01-0.36,0.02-0.73,0.03-1.09c0.31,0.04,0.6,0.11,0.89,0.22
				C302.52,268.56,302.21,268.86,301.9,269.15z"/>
			<path class="st11" d="M387.85,328.35c-0.56,1.51-0.7,3.44-1.75,4.45c-7.01,6.76-14.18,13.35-21.38,19.9
				c-0.89,0.81-2.31,1.03-3.49,1.52c2.89-6.14,5.63-12.36,8.72-18.41C373.74,328.36,380.46,327.43,387.85,328.35z"/>
			<path class="st25" d="M403.79,372.18c0.07-0.68,0.15-1.36,0.22-2.04c4.1-2.01,8.2-4.02,12.3-6.03c-0.93,3.02-1.27,6.43-2.92,8.98
				C410.42,377.68,406.63,377.11,403.79,372.18z"/>
			<path class="st10" d="M416.31,364.11c-4.1,2.01-8.2,4.02-12.3,6.03c0.91-3.04,1.28-6.39,2.86-9.03c1.98-3.31,5.16-4.54,8.6-1.36
				C415.75,361.2,416.03,362.66,416.31,364.11z"/>
			<path class="st5" d="M334.84,297.33c-1.26-3.07-2.51-6.14-3.77-9.21c-0.67-2.11-1.33-4.22-2-6.33
				C333.07,286.29,334.97,291.46,334.84,297.33z"/>
			<path class="st9" d="M315.85,407.98c-5.75-1.01-11.5-2.03-18.73-3.3c2.67-1.85,4.19-2.9,5.71-3.95
				c5.39,0.13,10.78,0.25,16.17,0.38C312.64,400.97,315.2,404.91,315.85,407.98z"/>
			<path class="st26" d="M268.77,387.95c-5.61-5-11.22-10-16.84-15c-8.12-15.5-6.62-30.72,1.35-45.75c0.39-0.73,0.81-1.45,1.28-2.12
				c0.17-0.25,0.54-0.35,1.29-0.81C262.77,345.07,266.47,366.36,268.77,387.95z"/>
			<path class="st26" d="M586.55,87.6c3.09-3.95,6.1-7.96,9.31-11.8c0.75-0.89,2.19-1.21,3.32-1.79c1.59,3.31,3.17,6.63,4.76,9.94
				c-2.45,3.9-4.9,7.8-7.36,11.7C593.24,92.97,589.9,90.29,586.55,87.6z"/>
			<path class="st26" d="M607.42,82.8c-5.61-1.83-5.04-7.3-6.74-11.42c1.76-2.47,3.51-4.93,5.27-7.39c3.01,2.27,6.02,4.55,9.03,6.82
				C612.45,74.8,609.93,78.8,607.42,82.8z"/>
			<path class="st26" d="M618.72,66.31c1.66,1.34,3.32,2.68,4.99,4.02c0.74,0.92,1.49,1.85,2.23,2.77
				c-1.08,0.36-2.16,0.73-3.23,1.09c-4.7-3.62-9.4-7.24-14.1-10.86c0.9-0.49,1.81-0.98,2.71-1.47c0.8,0.16,1.59,0.31,2.39,0.47
				C615.38,63.66,617.05,64.98,618.72,66.31z"/>
			<path class="st15" d="M608.61,63.33c-1.62-0.93-3.24-1.87-4.85-2.8c-0.21,0.27-0.43,0.55-0.64,0.82
				c0.94,0.88,1.88,1.75,2.83,2.63c-1.75,2.46-3.51,4.93-5.27,7.39c-1.78-6.2-3.56-12.4-5.33-18.61c0.64-0.5,1.27-1,1.91-1.51
				c4.69,3.53,9.38,7.06,14.07,10.59C610.41,62.35,609.51,62.84,608.61,63.33z"/>
			<path class="st25" d="M634.84,377.16c0.14,0.09,0.28,0.17,0.42,0.26c-0.15-0.07-0.3-0.15-0.45-0.22L634.84,377.16z"/>
			<path class="st25" d="M634.81,377.19c-0.13-0.08-0.27-0.16-0.4-0.24c0.14,0.07,0.29,0.14,0.43,0.21
				C634.84,377.16,634.81,377.19,634.81,377.19z"/>
		</g>
	</g>
</g>
</svg>
