<?xml version="1.0" encoding="utf-8"?>
<!-- Generator: Adobe Illustrator 23.0.3, SVG Export Plug-In . SVG Version: 6.00 Build 0)  -->
<svg version="1.1" id="Layer_1" xmlns="http://www.w3.org/2000/svg" xmlns:xlink="http://www.w3.org/1999/xlink" x="0px" y="0px"
	 viewBox="0 0 122.88 122.88" style="enable-background:new 0 0 122.88 122.88;" xml:space="preserve">
<style type="text/css">
	.st0{fill-rule:evenodd;clip-rule:evenodd;fill:#527CBD;}
	.st1{fill-rule:evenodd;clip-rule:evenodd;fill:#FFFFFF;}
	.st2{fill:#FFFFFF;}
</style>
<path class="st0" d="M61.44,0c33.93,0,61.44,27.51,61.44,61.44s-27.51,61.44-61.44,61.44S0,95.37,0,61.44S27.51,0,61.44,0z"/>
<path class="st1" d="M32.88,39.6H90c1.99,0,3.6,1.61,3.6,3.6v36.96c0,1.99-1.61,3.6-3.6,3.6H32.88c-1.99,0-3.6-1.61-3.6-3.6V43.2
	C29.28,41.21,30.89,39.6,32.88,39.6z"/>
<path class="st0" d="M25.2,43.68l36.48,21.6l52.55-30.19L9.84,38.4L25.2,43.68z"/>
<path class="st2" d="M93.6,40.8L61.78,59.52l-32.5-18.59L93.6,40.8z"/>
</svg>
