<?xml version="1.0" encoding="utf-8"?>
<!-- Generator: Adobe Illustrator 23.0.3, SVG Export Plug-In . SVG Version: 6.00 Build 0)  -->
<svg version="1.1" id="Layer_1" xmlns="http://www.w3.org/2000/svg" xmlns:xlink="http://www.w3.org/1999/xlink" x="0px" y="0px"
	 viewBox="0 0 190.21 151.71" style="enable-background:new 0 0 190.21 151.71;" xml:space="preserve">
<style type="text/css">
	.st0{fill:url(#SVGID_1_);}
</style>
<g>
	<linearGradient id="SVGID_1_" gradientUnits="userSpaceOnUse" x1="38.0659" y1="-24.6992" x2="132.3859" y2="154.5808">
		<stop  offset="0" style="stop-color:#7D9FE8"/>
		<stop  offset="1" style="stop-color:#8E69B1"/>
	</linearGradient>
	<path class="st0" d="M0,151.68C0,101.12,0,50.56,0,0c60.64,0,121.28,0,181.92,0c1.55,3.01,3.17,6,4.64,9.05
		c2.89,5.99,4.06,12.36,3.52,18.95c-0.46,5.58-2.84,10.39-6.77,14.41c-4.25,4.35-9.43,7.21-15.02,9.43
		c-10.74,4.27-22.1,5.56-33.44,6.96c-3.48,0.43-6.99,0.72-10.43,1.38c-8.47,1.63-15.43,6.13-21.62,11.91
		c-2.26,2.11-4.19,4.59-6.25,6.92c-0.31,0.35-0.58,0.77-0.78,1.2c-2.2,4.7-4.28,9.45-6.61,14.09c-2.06,4.09-5.13,7.41-8.87,10.04
		c-6.01,4.22-12.56,7.41-19.68,9.22c-3.41,0.86-6.4,2.4-9.27,4.31c-6.13,4.08-11.61,8.89-16.05,14.77
		c-3.87,5.14-6.62,10.87-7.96,17.23c-0.47,2.23-0.17,1.82-2.29,1.82C16.71,151.7,8.36,151.68,0,151.68z"/>
</g>
</svg>
