<?xml version="1.0" encoding="utf-8"?>
<!-- Generator: Adobe Illustrator 23.0.3, SVG Export Plug-In . SVG Version: 6.00 Build 0)  -->
<svg version="1.1" id="Layer_1" xmlns="http://www.w3.org/2000/svg" xmlns:xlink="http://www.w3.org/1999/xlink" x="0px" y="0px"
	 viewBox="0 0 190.33 161.06" style="enable-background:new 0 0 190.33 161.06;" xml:space="preserve">
<style type="text/css">
	.st0{fill:url(#SVGID_1_);}
</style>
<g>
	<linearGradient id="SVGID_1_" gradientUnits="userSpaceOnUse" x1="48.8239" y1="-36.9066" x2="114.3439" y2="140.5734">
		<stop  offset="0" style="stop-color:#7D9FE8"/>
		<stop  offset="1" style="stop-color:#8E69B1"/>
	</linearGradient>
	<path class="st0" d="M0,158.4C0,105.6,0,52.8,0,0c0.76,0.01,1.52,0.03,2.28,0.03c50.23,0,100.46-0.01,150.69-0.02
		c9.2,0,18.4,0,27.59-0.01c0.81,0,1.42,0.12,1.89,0.92c2.83,4.77,5.19,9.74,6.61,15.12c1.45,5.46,1.84,10.96,0.16,16.45
		c-2.11,6.88-6.78,11.65-12.75,15.32c-5.02,3.09-10.49,5.1-16.14,6.66c-9.72,2.69-19.72,3.64-29.69,4.78
		c-5.37,0.62-10.57,1.68-15.42,4.16c-7.5,3.84-13.65,9.29-18.86,15.85c-0.22,0.28-0.41,0.59-0.56,0.92
		c-2.12,4.56-4.2,9.15-6.37,13.69c-2.14,4.47-5.49,7.93-9.48,10.79c-5.82,4.18-12.29,7.05-19.18,8.84c-3.7,0.96-6.98,2.56-9.97,4.78
		c-3.17,2.36-6.34,4.76-9.22,7.46c-6.41,6.01-11.23,13.1-13.61,21.67c-0.4,1.42-0.66,2.89-1.08,4.3c-1.58,5.34-5.12,8.41-10.67,9.17
		c-2.89,0.39-5.76,0.17-8.58-0.46C5.07,159.83,2.55,159.08,0,158.4z"/>
</g>
</svg>
