<?xml version="1.0" encoding="utf-8"?>
<!-- Generator: Adobe Illustrator 23.0.3, SVG Export Plug-In . SVG Version: 6.00 Build 0)  -->
<svg version="1.1" id="Layer_1" xmlns="http://www.w3.org/2000/svg" xmlns:xlink="http://www.w3.org/1999/xlink" x="0px" y="0px"
	 viewBox="0 0 122.88 125.04" style="enable-background:new 0 0 122.88 125.04;" xml:space="preserve">
<style type="text/css">
	.st0{fill-rule:evenodd;clip-rule:evenodd;fill:none;}
	.st1{fill-rule:evenodd;clip-rule:evenodd;fill:#3B419A;}
	.st2{display:none;fill-rule:evenodd;clip-rule:evenodd;fill:#3B419A;}
	.st3{fill-rule:evenodd;clip-rule:evenodd;fill:#FFFFFF;}
</style>
<path class="st0" d="M49.68,0c7.84,0,15.68,0,23.52,0c0,0.4,0,0.8,0,1.2c25.22,4.19,44.14,23.38,48.48,48.48c0.4,0,0.8,0,1.2,0
	c0,7.84,0,15.68,0,23.52c-0.4,0-0.8,0-1.2,0c-4.71,30.41-41.2,60.77-79.92,46.8C21.63,112.74,5.01,96.65,1.2,73.2
	c-0.4,0-0.8,0-1.2,0c0-7.84,0-15.68,0-23.52c0.4,0,0.8,0,1.2,0C5.39,24.46,24.58,5.54,49.68,1.2C49.68,0.8,49.68,0.4,49.68,0z"/>
<circle class="st1" cx="61.44" cy="61.44" r="61.44"/>
<path class="st0" d="M81.6,27.6c-4.16,4.04-9.57,9.63-11.28,15.84c-1.59,5.78,3.74,6.85,2.64,12c-0.95,4.47-12.99,16.8-18.24,17.04
	c-2.04-1.07-5.59-4.12-8.88-3.36c-4.4,1.02-16.68,9.73-17.76,13.68c-1.54,5.59,7.07,11.99,11.04,12.72
	c7.47,1.37,14.72-3.88,18.96-6.48c14.19-8.71,27.76-21.52,34.8-37.2c1.3-2.9,3.38-7.68,2.64-11.76
	C94.49,34.43,88.27,27.58,81.6,27.6z"/>
<path class="st2" d="M49.68,0c7.84,0,15.68,0,23.52,0c0,0.41,0,0.81,0,1.21c25.22,4.24,44.14,23.67,48.48,49.09c0.4,0,0.8,0,1.2,0
	c0,7.94,0,15.88,0,23.81c-0.4,0-0.8,0-1.2,0c-4.71,30.79-41.2,61.53-79.92,47.39C21.63,114.15,5.01,97.86,1.2,74.12
	c-0.4,0-0.8,0-1.2,0c0-7.94,0-15.88,0-23.81c0.4,0,0.8,0,1.2,0C5.39,24.76,24.58,5.61,49.68,1.21C49.68,0.81,49.68,0.41,49.68,0z"/>
<path class="st3" d="M81.6,27.95c-4.16,4.09-9.57,9.75-11.28,16.04c-1.59,5.85,3.74,6.94,2.64,12.15
	c-0.95,4.52-12.99,17.01-18.24,17.25c-2.04-1.08-5.59-4.17-8.88-3.4c-4.4,1.03-16.68,9.86-17.76,13.85
	c-1.54,5.66,7.07,12.14,11.04,12.88c7.47,1.39,14.72-3.93,18.96-6.56c14.19-8.82,27.76-21.79,34.8-37.67
	c1.3-2.94,3.38-7.78,2.64-11.91C94.49,34.86,88.27,27.93,81.6,27.95z"/>
</svg>
