<?xml version="1.0" encoding="utf-8"?>
<!-- Generator: Adobe Illustrator 23.0.3, SVG Export Plug-In . SVG Version: 6.00 Build 0)  -->
<svg version="1.1" id="Layer_1" xmlns="http://www.w3.org/2000/svg" xmlns:xlink="http://www.w3.org/1999/xlink" x="0px" y="0px"
	 viewBox="0 0 333.98 375.87" style="enable-background:new 0 0 333.98 375.87;" xml:space="preserve">
<style type="text/css">
	.st0{fill:#FDCA2D;}
</style>
<g>
	<g>
		<path class="st0" d="M171.4,0c13.19,2.99,22.36,11.38,29.87,22.09c0.74,1.06,2.46,1.94,3.77,2.01
			c8.74,0.47,15.28,4.42,18.91,12.33c3.57,7.76,2.41,15.21-2.79,22.06c-0.71,0.94-1.39,2.49-1.12,3.5c2.02,7.53,4.29,15,6.55,22.75
			c6.88-1.69,13.69-3.46,20.55-5.03c13.26-3.04,26.69-5.21,40.32-4.57c6.9,0.32,13.95,1.18,20.59,3.05
			c20.29,5.72,29.64,22.35,24.57,42.79c-3.55,14.3-11.07,26.62-20.21,37.86c-8.16,10.04-17.08,19.47-26.47,30.09
			c1.37,1.11,3.38,2.47,5.08,4.14c13.13,12.91,25.15,26.71,34.04,42.97c4.06,7.43,7.36,15.19,8.48,23.67
			c2.37,17.91-6.4,31.9-23.87,37.51c-5.07,1.63-10.48,2.24-15.77,3.07c-2.29,0.36-3.87,0.92-5.26,3.13
			c-4.39,6.99-11,10.41-19.23,9.74c-8.67-0.71-14.8-5.36-17.99-13.52c-0.75-1.91-1.67-2.84-3.76-3.31c-7-1.56-13.93-3.42-21.06-5.21
			c-2.3,7.86-4.34,15.65-6.86,23.26c-5.68,17.14-12.68,33.64-24.88,47.35c-5.71,6.42-12.47,11.42-21.03,13.33
			c-12.07,2.69-22.17-1.51-30.9-9.55c-11.15-10.26-18.17-23.32-23.48-37.19c-4.31-11.26-7.47-22.96-11.14-34.47
			c-0.26-0.81-0.5-1.62-0.85-2.79c-5.84,1.49-11.55,3.09-17.33,4.39c-14.81,3.34-29.74,6.19-45,5.28
			c-6.54-0.39-13.2-1.31-19.47-3.13C5.57,291.76-3.91,275.22,1.5,255c1.96-7.34,5.83-14.16,8.63-21.3c0.59-1.5,0.92-3.54,0.39-4.96
			c-2.9-7.73-2.29-14.96,2.81-21.46c5.1-6.5,11.95-8.94,20.15-7.81c1.26,0.17,3.01-0.14,3.9-0.94c3.64-3.24,7.04-6.76,10.91-10.54
			c-2.84-2.76-5.5-5.23-8.04-7.82c-12.03-12.25-23.15-25.24-31.39-40.43c-4.04-7.44-7.35-15.2-8.43-23.69
			c-2.3-18.11,6.64-31.91,24.34-37.58c13.34-4.28,27.05-4.41,40.66-2.35c13.98,2.11,27.81,5.23,42.19,8
			c0.3-0.99,0.88-2.67,1.33-4.39c4.72-18.41,10.7-36.33,20.65-52.67c5.98-9.81,13.03-18.71,23.75-23.79
			c2.94-1.39,6.15-2.2,9.24-3.27C165.53,0,168.46,0,171.4,0z M220.6,188.05c0-9.53,0.08-19.07-0.1-28.6
			c-0.02-1.26-1.09-3.02-2.19-3.67c-16.33-9.58-32.72-19.04-49.18-28.39c-1.1-0.62-3.17-0.62-4.27,0
			c-16.46,9.35-32.86,18.8-49.17,28.4c-1.16,0.68-2.2,2.65-2.21,4.02c-0.14,18.82-0.14,37.65,0,56.47c0.01,1.28,0.97,3.12,2.05,3.75
			c16.43,9.64,32.93,19.16,49.49,28.58c1.02,0.58,2.93,0.58,3.95,0c16.56-9.42,33.06-18.93,49.49-28.58
			c1.08-0.63,2.03-2.46,2.05-3.75C220.68,206.87,220.6,197.46,220.6,188.05z M274.25,176.85c12.67-12.02,24.81-24.87,34.15-40.13
			c4.49-7.34,8.29-14.96,9.28-23.69c0.97-8.59-2.24-14.75-10.12-17.93c-4.03-1.63-8.38-2.72-12.69-3.35
			c-12.13-1.77-24.19-0.4-36.1,1.93c-9.66,1.89-19.2,4.39-28.61,6.58c1.96,16.04,3.81,31.31,5.74,46.57
			c0.11,0.83,0.78,1.8,1.47,2.32C249.55,158.36,261.78,167.51,274.25,176.85z M104.19,100.76c-20.27-6.05-40.35-10.57-61.23-9.46
			c-5.27,0.28-10.62,1.69-15.63,3.44c-7.42,2.58-11.55,8.07-11.12,16.21c0.16,3.01,0.62,6.12,1.59,8.96
			c8.01,23.5,25.15,40.27,41.85,57.02c12.54-9.4,24.77-18.51,36.9-27.77c0.98-0.74,1.59-2.4,1.75-3.71
			c0.96-7.76,1.61-15.55,2.61-23.3C101.81,115.14,103.04,108.17,104.19,100.76z M211.11,286.09c-0.65-0.32-1.07-0.56-1.5-0.74
			c-13.52-5.64-27.02-11.32-40.6-16.82c-1.35-0.54-3.35-0.29-4.76,0.28c-11.52,4.72-22.97,9.62-34.45,14.44
			c-2.23,0.94-4.51,1.75-6.91,2.68c4.32,17.85,9.46,35.12,18.33,51.06c3.89,6.99,8.38,13.49,14.76,18.51
			c7.17,5.65,14.78,5.87,21.77,0.13c3.19-2.62,6.29-5.54,8.7-8.86C199.66,328.64,205.74,307.56,211.11,286.09z M229.76,275.36
			c7.6,1.93,14.79,3.82,22.02,5.51c0.74,0.17,1.99-0.62,2.61-1.32c10.88-12.22,26.96-10.77,35.26,3.17
			c0.47,0.79,1.56,1.81,2.27,1.74c6.59-0.61,13.14-1.51,18.82-5.34c4.19-2.83,6.63-6.59,6.97-11.82c0.4-6.19-1.19-11.9-3.67-17.38
			c-9.19-20.24-24.26-35.88-39.91-51.06c-0.54,0.28-0.88,0.41-1.16,0.62c-11.76,8.97-23.54,17.91-35.21,26.99
			c-1.07,0.84-1.87,2.54-2.05,3.93c-0.99,7.76-1.63,15.56-2.63,23.32C232.18,260.75,230.95,267.72,229.76,275.36z M211.19,89.45
			c-1.93-6.78-3.97-13.68-5.82-20.62c-0.51-1.93-1.34-2.68-3.39-3c-9.23-1.45-15.85-7.98-17.6-16.83
			c-1.24-6.29,0.55-11.83,4.47-17.57c-3.82-3.86-7.36-8.11-11.57-11.53c-5.6-4.56-12.22-5.66-18.33-1.29
			c-4.49,3.21-8.69,7.18-12.06,11.54c-7.84,10.16-12.68,21.96-16.67,34.06c-2.78,8.42-5.09,16.99-7.51,25.19
			c14.62,6.26,28.62,12.28,42.67,18.2c0.97,0.41,2.44,0.32,3.44-0.11C182.76,101.63,196.66,95.66,211.19,89.45z M59.38,198.78
			c-3.1,3.25-6.41,6.51-9.42,10.03c-0.73,0.85-0.78,2.55-0.65,3.81c0.29,3,1.49,6.02,1.24,8.94c-1.06,12.42-10.53,20.15-22.99,19.39
			c-1.27-0.08-3.37,0.64-3.8,1.57c-2.58,5.63-5.42,11.27-6.96,17.22c-2.6,10.1,1.04,17.6,9.72,21.1c4.03,1.62,8.38,2.69,12.68,3.31
			c12.12,1.76,24.16,0.38,36.06-1.95c9.65-1.89,19.17-4.39,28.57-6.57c-1.96-16.02-3.8-31.27-5.73-46.51
			c-0.11-0.84-0.74-1.82-1.43-2.34C84.49,217.58,72.27,208.44,59.38,198.78z M148.7,117.39c-9.97-4.02-19.37-7.8-29.28-11.79
			c-1.49,10.61-2.88,20.55-4.37,31.21C126.52,130.19,137.23,124.01,148.7,117.39z M214.56,105.58c-9.97,4.03-19.33,7.81-29.25,11.83
			c11.53,6.65,22.22,12.82,33.63,19.4C217.45,126.17,216.07,116.31,214.56,105.58z M148.72,258.52
			c-11.58-6.68-22.26-12.84-33.69-19.43c1.52,10.75,2.93,20.68,4.42,31.21C129.38,266.3,138.69,262.55,148.72,258.52z
			 M185.26,258.54c10.13,4.05,19.51,7.81,29.33,11.74c1.48-10.71,2.85-20.6,4.32-31.17C207.39,245.75,196.77,251.89,185.26,258.54z
			 M96.71,168.47c-8.58,6.75-16.49,12.97-24.79,19.51c8.46,6.62,16.37,12.8,24.79,19.39C96.71,194.14,96.71,181.77,96.71,168.47z
			 M237.31,207.38c8.49-6.67,16.44-12.92,24.77-19.46c-8.51-6.65-16.42-12.82-24.77-19.35
			C237.31,181.81,237.31,194.18,237.31,207.38z"/>
		<path class="st0" d="M200.1,188.04c-0.06,18.23-14.99,33.07-33.19,33.01c-18.22-0.06-33.08-14.99-33.02-33.19
			c0.06-18.22,14.99-33.08,33.19-33.02C185.31,154.91,200.16,169.84,200.1,188.04z M184.09,187.86c-0.05-9.44-7.56-16.95-17-17
			c-9.6-0.05-17.24,7.59-17.18,17.19c0.05,9.44,7.56,16.95,17,17C176.5,205.1,184.14,197.46,184.09,187.86z"/>
	</g>
</g>
</svg>
