<?xml version="1.0" encoding="utf-8"?>
<!-- Generator: Adobe Illustrator 23.0.3, SVG Export Plug-In . SVG Version: 6.00 Build 0)  -->
<svg version="1.1" id="Layer_1" xmlns="http://www.w3.org/2000/svg" xmlns:xlink="http://www.w3.org/1999/xlink" x="0px" y="0px"
	 viewBox="0 0 876.54 875.62" style="enable-background:new 0 0 876.54 875.62;" xml:space="preserve">
<style type="text/css">
	.st0{fill:#FFFFFF;}
	.st1{fill:#E11B1B;}
	.st2{fill:#C30606;}
	.st3{fill:#DE0707;}
	.st4{fill:#DF0909;}
</style>
<g>
	<rect x="194.17" y="200.51" class="st0" width="494.44" height="522.22"/>
	<path class="st1" d="M496.82,871.62c-28.46,3.88-57.05,4.97-85.7,3.14c-47.83-3.06-94-13.48-138.41-31.63
		c-37.37-15.28-71.91-35.39-103.73-60.19c-23.29-18.15-44.47-38.49-63.7-60.92c-24.76-28.87-45.48-60.38-61.97-94.61
		C24.9,589.17,12.28,549.1,5.64,507.12c-5.14-32.53-6.93-65.19-4.69-98c3.63-53.21,16.36-104.17,38.58-152.77
		c16.38-35.83,37.25-68.8,62.41-98.98c25.68-30.81,55.15-57.61,88.28-80.29c50.82-34.8,106.41-58.06,167.02-69.43
		c36.51-6.85,73.27-9.16,110.27-6.67c54.42,3.67,106.47,16.89,155.94,40.05c36.12,16.91,69.26,38.37,99.59,64.28
		c46.77,39.94,83.49,87.62,110.29,142.88c19.54,40.32,32.43,82.73,38.74,127.16c4.32,30.44,5.44,60.96,3.65,91.61
		c-0.37,6.3-1.32,12.56-2.01,18.83c-1.47-1.35-2.99-2.64-4.4-4.04c-75.08-75.06-150.14-150.13-225.27-225.14
		c-1.5-1.5-3.7-2.3-5.57-3.43l0.03-0.05c-0.24-0.44-0.47-0.88-0.71-1.31c-14.24-22.24-41.56-22.04-57.85-4.33
		c-15.63,16.99-32.55,32.81-48.9,49.14c-18.72,18.7-37.43,37.42-56.18,56.1c-10.49,10.44-21.05,20.8-31.58,31.2
		c-1.66,0-3.31,0-4.97,0c-16.54-16.52-33.07-33.03-49.61-49.55c-1.42-4.88-4.57-8.03-9.45-9.45c-1.35-1.23-2.74-2.41-4.03-3.69
		c-25.6-25.54-51.09-51.2-76.8-76.62c-18.45-18.25-49.42-10.79-57.08,13.74c-4.39,14.05-0.47,26.13,9.9,36.47
		c45.33,45.17,90.57,90.43,135.84,135.66c1.28,1.28,2.46,2.67,3.68,4.01c-0.01,0.6-0.02,1.21-0.04,1.81
		c-1.44,1.59-2.81,3.25-4.32,4.76c-44.89,44.86-89.84,89.65-134.59,134.65c-4.01,4.03-7.67,8.98-9.8,14.19
		c-6.82,16.69,0.12,33.01,17.73,43.64c1.18,1.73,2.12,3.71,3.58,5.17c33.43,33.22,67,66.3,100.39,99.56
		c43.2,43.04,86.26,86.21,129.37,129.34C494.38,868.89,495.58,870.28,496.82,871.62z"/>
	<path class="st2" d="M496.82,871.62c-1.24-1.34-2.44-2.73-3.73-4.02c-43.11-43.12-86.18-86.3-129.37-129.34
		c-33.39-33.26-66.95-66.34-100.39-99.56c-1.46-1.45-2.4-3.43-3.58-5.16c16.16,5.99,29.59,2.17,41.72-10.06
		c44.94-45.3,90.2-90.28,135.35-135.37c1.26-1.26,2.59-2.46,4.65-4.41c1.17,1.58,2.01,3.06,3.17,4.22
		c29.2,29.23,58.44,58.42,87.67,87.62c16.62,16.6,33.27,33.17,49.84,49.82c7.58,7.62,16.63,11.77,27.37,10.95
		c14.6-1.11,25.19-8.54,30.28-22.37c5.07-13.77,2.09-26.3-8.31-36.71c-46.04-46.09-92.15-92.1-138.26-138.12
		c-1.17-1.17-2.62-2.05-4.71-3.68c2.1-1.64,3.53-2.52,4.69-3.68c45.4-45.31,90.69-90.74,136.23-135.9
		c12.59-12.49,15.9-26.36,9.04-42.68c1.87,1.13,4.07,1.93,5.57,3.43c75.12,75.01,150.19,150.09,225.27,225.14
		c1.41,1.41,2.93,2.7,4.4,4.04c-2,13.57-3.39,27.27-6.11,40.7c-7.89,38.84-21.04,75.9-39.2,111.14
		c-23.75,46.09-54.7,86.81-92.84,121.88c-56.98,52.38-123.33,87.38-198.7,105C523.68,867.6,510.17,869.29,496.82,871.62z"/>
	<path class="st3" d="M388.71,334.37c-3.15-3.15-6.3-6.3-9.45-9.45C384.15,326.33,387.29,329.49,388.71,334.37z"/>
	<path class="st3" d="M443.29,383.92c-1.66,2.84-3.31,2.81-4.97,0C439.97,383.92,441.63,383.92,443.29,383.92z"/>
	<path class="st2" d="M638.5,253.13c-0.24-0.44-0.47-0.88-0.71-1.31C638.03,252.25,638.26,252.69,638.5,253.13z"/>
	<path class="st4" d="M390.77,434.49c-0.01,0.6-0.02,1.2-0.04,1.81C390.75,435.7,390.76,435.09,390.77,434.49z"/>
</g>
</svg>
