<?xml version="1.0" encoding="utf-8"?>
<!-- Generator: Adobe Illustrator 23.0.3, SVG Export Plug-In . SVG Version: 6.00 Build 0)  -->
<svg version="1.1" id="Layer_1" xmlns="http://www.w3.org/2000/svg" xmlns:xlink="http://www.w3.org/1999/xlink" x="0px" y="0px"
	 viewBox="0 0 362.29 294.92" style="enable-background:new 0 0 362.29 294.92;" xml:space="preserve">
<style type="text/css">
	.st0{fill:url(#SVGID_1_);}
</style>
<g transform="translate(300,300)">
	
		<linearGradient id="SVGID_1_" gradientUnits="userSpaceOnUse" x1="30.7088" y1="-178.6601" x2="-299.2912" y2="-169.6601" gradientTransform="matrix(-0.4864 -0.8737 0.8737 -0.4864 17.3393 -340.1199)">
		<stop  offset="0" style="stop-color:#7D9FE8"/>
		<stop  offset="1" style="stop-color:#8E69B1"/>
	</linearGradient>
	<path class="st0" d="M-297.97-227.91c9.87-32.85,56.74-57,95.95-65.31c39.2-8.32,70.78-0.94,96.74,0.05
		c25.91,0.91,46.31-4.6,76.13-6.33c29.83-1.73,69.26,0.24,82.45,19c13.23,18.62,0.15,53.94,1.19,95.48
		c1.07,41.4,16.39,89.07,0.93,112.9C39.82-48.34-6.51-48.3-52.94-35.5C-99.47-22.65-146.18,3.02-179.55-7.59
		c-33.46-10.56-53.63-57.47-77.29-101.64C-280.57-153.48-307.7-195.03-297.97-227.91z"/>
</g>
</svg>
