<?xml version="1.0" encoding="utf-8"?>
<!-- Generator: Adobe Illustrator 23.0.3, SVG Export Plug-In . SVG Version: 6.00 Build 0)  -->
<svg version="1.1" id="Layer_1" xmlns="http://www.w3.org/2000/svg" xmlns:xlink="http://www.w3.org/1999/xlink" x="0px" y="0px"
	 viewBox="0 0 137.5 137.52" style="enable-background:new 0 0 137.5 137.52;" xml:space="preserve">
<style type="text/css">
	.st0{fill:#FFFFFF;}
	.st1{fill:#36A9FF;}
	.st2{fill:#4F6B89;}
</style>
<g>
	<rect x="27.8" y="29.32" class="st0" width="80.51" height="79.23"/>
	<path class="st1" d="M63.96,137.29c-1.75-0.19-3.51-0.29-5.24-0.56c-15.56-2.41-28.96-9.13-39.73-20.63
		C3.65,99.73-2.36,80.25,0.83,58.1C2.98,43.17,9.62,30.29,20.48,19.8C36.95,3.88,56.72-2.43,79.34,0.83
		c15.58,2.25,28.8,9.43,39.56,20.94c10.52,11.25,16.56,24.59,18.18,39.92c0,0,0.81,7.03,0.18,12.33c-0.25,2.1-0.43,4.22-0.79,6.3
		c-2.61,14.77-9.26,27.45-20.06,37.85c-10.8,10.4-23.69,16.61-38.56,18.64c-1.71,0.23-3.42,0.46-5.13,0.69c-0.96,0-1.92,0-2.88,0
		c-0.8,0-1.6,0-2.4,0 M68.68,98.15c4.96,0,9.92,0.05,14.88-0.01c4.52-0.06,7.66-2.67,8.13-7.13c0.27-2.58,0-5.26-0.32-7.86
		c-0.38-3.14-1.31-6.15-3.27-8.74c-1.46-1.93-3.4-3.05-5.76-3.59c-1.96-0.44-3.34,0.56-4.82,1.55c-3.25,2.18-6.82,3.25-10.76,2.74
		c-3.17-0.42-5.83-2.01-8.44-3.72c-0.53-0.35-1.24-0.59-1.86-0.59c-3.84-0.01-6.44,2.04-8.2,5.26c-1.84,3.36-2.39,7.06-2.62,10.82
		c-0.09,1.47-0.16,2.98,0.07,4.43c0.68,4.25,3.75,6.78,8.22,6.83C58.84,98.19,63.76,98.15,68.68,98.15z M68.61,72.98
		c6.82,0.07,12.52-5.43,12.78-11.98c0.27-6.81-4.79-13.31-12.64-13.36c-7.27-0.04-12.65,5.63-12.74,12.65
		C55.93,67.25,61.59,72.91,68.61,72.98z M54.28,58.18c-1.38,0.22-2.59,0.51-3.81,0.6c-2.94,0.21-5.53-0.91-8.04-2.29
		c-1.33-0.73-2.42-0.53-3.33,0.7c-0.42,0.56-0.74,1.23-0.97,1.9c-0.97,2.8-0.96,5.72-0.94,8.64c0.02,2.4,1.2,4.18,3.55,4.77
		c1.56,0.39,3.23,0.34,4.84,0.5c1.56,0.15,2.99,0,4-1.45c0.28-0.4,0.77-0.74,1.23-0.92c1.89-0.76,3.8-1.46,5.78-2.2
		C54.68,65.47,53.78,61.99,54.28,58.18z M80.62,68.72c4.37,0.67,5.14,1.04,8.43,3.92c0.21,0.19,0.55,0.32,0.83,0.33
		c1.68,0.02,3.36,0.07,5.03-0.04c3.39-0.22,5.42-2.38,5.35-5.77c-0.04-1.99-0.16-3.99-0.47-5.95c-0.2-1.27-0.65-2.55-1.25-3.69
		c-0.77-1.46-2.13-1.84-3.41-1.1c-3.74,2.15-7.61,3.21-12,1.6C83.67,61.99,82.71,65.48,80.62,68.72z M49.84,39.33
		c-4.79,0-8.49,3.68-8.48,8.45c0.01,4.71,3.72,8.41,8.42,8.41c4.82,0,8.52-3.65,8.53-8.41C58.32,42.98,54.65,39.32,49.84,39.33z
		 M87.53,56.18c4.77,0.01,8.48-3.62,8.49-8.31c0.02-4.81-3.59-8.38-8.24-8.59c-3.86-0.18-8.71,2.9-8.71,8.53
		C79.07,52.51,82.84,56.18,87.53,56.18z"/>
	<path class="st2" d="M67.43,137.52c0.8,0,1.6,0,2.4,0C69.03,137.52,68.23,137.52,67.43,137.52z"/>
</g>
</svg>
