<?xml version="1.0" encoding="utf-8"?>
<!-- Generator: Adobe Illustrator 23.0.3, SVG Export Plug-In . SVG Version: 6.00 Build 0)  -->
<svg version="1.1" id="Layer_1" xmlns="http://www.w3.org/2000/svg" xmlns:xlink="http://www.w3.org/1999/xlink" x="0px" y="0px"
	 viewBox="0 0 225 225.08" style="enable-background:new 0 0 225 225.08;" xml:space="preserve">
<style type="text/css">
	.st0{display:none;fill:#FEC51B;}
	.st1{fill:#FEC51B;}
	.st2{fill:#E9A12F;}
	.st3{fill:#FEE19A;}
	.st4{fill:#FEDF93;}
	.st5{fill:#FEE199;}
	.st6{fill:#FEE4A8;}
	.st7{fill:#F6D197;}
	.st8{fill:#121149;}
	.st9{fill:#273B7A;}
	.st10{fill:#386894;}
	.st11{fill:#12124A;}
	.st12{fill:#F2A628;}
	.st13{fill:#02B1B1;}
	.st14{fill:#0B0B38;}
	.st15{fill:#283B79;}
	.st16{fill:#71E1EE;}
	.st17{fill:#181854;}
	.st18{fill:#2B5A80;}
</style>
<g>
	<path class="st0" d="M225,105.08c0,5.67,0,11.33,0,17c0,0.67,0,1.33,0,2c0,0.33,0,0.67,0,1c-0.74,2.72-1.49,5.44-2.23,8.17
		c-1.37-0.67-3.01-1.06-4.07-2.05c-3.76-3.51-7.25-7.31-10.99-10.85c-4.43-4.19-9-8.21-13.52-12.31
		c-4.93-4.68-9.86-9.37-14.79-14.05c-13.54-13.49-26.89-27.19-40.72-40.38c-5.71-5.44-12.69-8.77-20.89-4.52
		c-1.93-0.61-3.85-1.23-5.78-1.84c-1.65,0.61-3.31,1.23-4.96,1.84C99.41,45,92.7,47.51,87.08,52.77
		C73.01,65.92,59.26,79.42,45.42,92.82c-0.66,0.64-1.01,1.59-1.51,2.4c-4.27,4.28-9.36,8-12.67,12.93
		c-11.82,17.58-6.83,38.56,11.89,52.56c1.32,1.67,2.49,3.48,3.99,4.98c17.7,17.77,35.48,35.46,53.12,53.27
		c1.64,1.66,2.52,4.06,3.76,6.12c-1,0-2,0-3,0c-0.53-0.31-1.03-0.82-1.59-0.89c-49.45-6.71-86.21-40.31-97.01-88.72
		C1.63,132,0.8,128.54,0,125.08c0-0.33,0-0.67,0-1c0-1,0-2,0-3c0-5.67,0-11.33,0-17c0-1,0-2,0-3c0-0.33,0-0.67,0-1
		c1.14-4.91,2.16-9.85,3.43-14.73c8.37-32.13,27.35-56.1,56.33-72.02C69.91,7.76,80.88,4.11,92.57,2.89c2.87-0.3,5.62-1.84,8.43-2.8
		c0.33,0,0.67,0,1,0c1,0,2,0,3,0c5,0,10,0,15,0c1.04,0.28,2.08,0.56,3.11,0.84c9.38,2.34,18.74,4.77,28.14,7.01
		c12.31,2.93,22.58,9.73,32.15,17.48c19.06,15.42,31.62,35.21,37.83,58.96c1.36,5.21,2.52,10.47,3.77,15.71c0,0.33,0,0.67,0,1
		C225,102.41,225,103.75,225,105.08z"/>
	<circle class="st1" cx="112.5" cy="112.5" r="112.5"/>
	<path class="st2" d="M146.03,219.92c42.02-14.32,67.77-43.41,76.82-87.19c-1.37-0.67-3.34-1-4.41-1.99
		c-3.76-3.51-7.25-7.31-10.99-10.85c-4.43-4.19-9-8.21-13.52-12.31c5.92,10.85,7.99,22.09,3.07,33.87
		c-6.27,15.02-17.72,23.43-33.88,23.8c-16.04,0.36-27.82-7.42-34.99-21.9c-0.42-0.85-0.99-1.64-1.49-2.45
		c-9.75,0.2-19.51,0.4-29.26,0.61c-9.26,21.42-33.09,30.41-54.49,18.75c1.32,1.67,2.49,3.48,3.99,4.98
		c17.7,17.77,35.48,35.46,53.12,53.27c1.64,1.66,2.52,4.06,3.76,6.12c2.96,0.71,15,0,17,0
		C120.75,224.62,137.02,223.32,146.03,219.92z"/>
	<path class="st3" d="M225,105.08c0-1.33,0-2.67,0-4C225,102.41,225,103.75,225,105.08z"/>
	<path class="st4" d="M105,0.08c-1,0-2,0-3,0C103,0.08,104,0.08,105,0.08z"/>
	<path class="st4" d="M123,0.08c0.04,0.28,0.08,0.56,0.11,0.84c-1.04-0.28-2.08-0.56-3.11-0.84C121,0.08,122,0.08,123,0.08z"/>
	<path class="st5" d="M0,101.08c0,1,0,2,0,3C0,103.08,0,102.08,0,101.08z"/>
	<path class="st5" d="M0,121.08c0,1,0,2,0,3C0,123.08,0,122.08,0,121.08z"/>
	<path class="st6" d="M225,124.08c0-0.67,0-1.33,0-2C225,122.75,225,123.41,225,124.08z"/>
	<path class="st7" d="M121,225.08c0.67,0,1.33,0,2,0C122.33,225.08,121.67,225.08,121,225.08z"/>
	<path class="st8" d="M194.19,108.03c5.92,10.85,7.99,22.09,3.07,33.87c-6.27,15.02-17.72,23.43-33.88,23.8
		c-16.04,0.36-27.82-7.42-34.99-21.9c-0.42-0.85-0.99-1.64-1.49-2.45c0,0,0.13-0.35,0.13-0.35c-0.68-3.93-1.36-7.87-2.04-11.8
		c0.36-3.74,0.72-7.48,1.08-11.23c0.72-1.48,1.49-2.95,2.16-4.46c5.45-12.38,14.89-20.38,28.16-21.89
		c7.49-0.86,15.35,1.47,23.04,2.36C184.33,98.67,189.26,103.35,194.19,108.03z M162.3,153.33c13.84,0.13,25.12-10.98,25.25-24.89
		c0.13-13.58-11.49-25.24-25.1-25.2c-13.61,0.04-25.05,11.59-25.06,25.3C137.39,142.03,148.6,153.2,162.3,153.33z"/>
	<path class="st9" d="M97.62,141.96c-9.26,21.42-33.09,30.41-54.49,18.75c-18.72-14-23.71-34.99-11.89-52.56
		c3.31-4.92,8.4-8.65,12.67-12.93c1.58-0.49,3.17-0.93,4.72-1.49c13.76-4.92,26.78-3.51,37.67,6.36c5.11,4.64,8.46,11.22,12.6,16.93
		c0.37,4,0.73,8,1.1,12c-0.68,3.99-1.35,7.98-2.03,11.96C97.86,141.31,97.74,141.64,97.62,141.96z M62.34,153.26
		c13.94,0.06,25.33-11.14,25.27-24.85c-0.07-13.71-11.58-25.19-25.19-25.13c-13.71,0.06-25.05,11.56-24.94,25.3
		C37.58,142.25,48.61,153.2,62.34,153.26z"/>
	<path class="st10" d="M98.91,117.02c-4.14-5.7-7.49-12.29-12.6-16.93c-10.89-9.87-23.92-11.28-37.67-6.36
		c-1.55,0.56-3.15,0.99-4.72,1.49c0.49-0.81,0.85-1.76,1.51-2.4c13.84-13.39,27.58-26.9,41.65-40.05
		c5.62-5.26,12.34-7.77,19.97-3.69c-0.34,2.29-0.96,4.58-0.97,6.87c-0.04,17.75,0.03,35.49,0.07,53.24
		C103.74,111.8,101.32,114.41,98.91,117.02z"/>
	<path class="st9" d="M179.4,93.99c-7.69-0.89-15.55-3.21-23.04-2.36c-13.26,1.52-22.71,9.51-28.16,21.89
		c-0.66,1.51-1.43,2.97-2.16,4.46c-2.4-2.96-4.8-5.91-7.19-8.87c0.03-17.91,0.1-35.81,0.04-53.72c-0.01-2.11-0.73-4.21-1.12-6.31
		c8.2-4.25,15.18-0.92,20.89,4.52C152.51,66.8,165.86,80.49,179.4,93.99z"/>
	<path class="st11" d="M117.79,49.09c0.39,2.1,1.11,4.21,1.12,6.31c0.06,17.91-0.01,35.81-0.04,53.72
		c-2.27-0.34-4.54-0.67-6.82-1.01c-0.01-20.29-0.02-40.58-0.03-60.86C113.93,47.86,115.86,48.47,117.79,49.09z"/>
	<path class="st9" d="M112.01,47.25c0.01,20.29,0.02,40.58,0.03,60.86c0,0-0.04-0.03-0.04-0.03c-1.95,0.37-3.9,0.74-5.85,1.11
		c-0.04-17.75-0.12-35.49-0.07-53.24c0.01-2.29,0.63-4.58,0.97-6.87C108.7,48.47,110.35,47.86,112.01,47.25z"/>
	<path class="st12" d="M97.62,141.96c0.12-0.32,0.24-0.65,0.37-0.97c4.68-0.06,9.35-0.12,14.03-0.19c5,0.07,10,0.14,14.99,0.2
		c0,0-0.13,0.35-0.13,0.35C117.13,141.56,107.37,141.76,97.62,141.96z"/>
	<path class="st13" d="M162.3,153.33c-13.69-0.13-24.91-11.3-24.9-24.79c0-13.71,11.45-25.26,25.06-25.3
		c13.61-0.04,25.22,11.62,25.1,25.2C187.42,142.35,176.14,153.46,162.3,153.33z"/>
	<path class="st14" d="M112.04,108.11c2.27,0.34,4.55,0.67,6.82,1.01c2.4,2.96,4.79,5.91,7.19,8.87c-0.36,3.74-0.72,7.48-1.08,11.23
		c-4.32,2.2-8.65,4.39-12.97,6.59c0-9.24,0-18.48,0-27.72L112.04,108.11z"/>
	<path class="st15" d="M112,135.8c4.32-2.2,8.65-4.4,12.97-6.59c0.68,3.93,1.36,7.87,2.04,11.8c-5-0.07-10-0.14-14.99-0.2
		c0-1.54,0-3.07,0-4.61L112,135.8z"/>
	<path class="st16" d="M62.34,153.26c-13.73-0.06-24.76-11.01-24.87-24.68c-0.11-13.74,11.24-25.25,24.94-25.3
		c13.61-0.06,25.13,11.43,25.19,25.13C87.68,142.12,76.29,153.32,62.34,153.26z"/>
	<path class="st17" d="M112,108.08c0,9.24,0,18.48,0,27.72c0,0,0.01,0.4,0.01,0.39c-4-2.39-8-4.78-12-7.17c-0.37-4-0.73-8-1.1-12
		c2.41-2.61,4.83-5.22,7.24-7.83C108.1,108.82,110.05,108.45,112,108.08z"/>
	<path class="st18" d="M100.01,129.03c4,2.39,8,4.78,12,7.17c0,1.54,0,3.07,0,4.61c-4.68,0.06-9.35,0.12-14.03,0.19
		C98.66,137,99.34,133.01,100.01,129.03z"/>
</g>
</svg>
